%TF.GenerationSoftware,KiCad,Pcbnew,7.0.11+1*%
%TF.CreationDate,2024-03-31T13:18:05+02:00*%
%TF.ProjectId,ch32v203_thermokoppel,63683332-7632-4303-935f-746865726d6f,rev?*%
%TF.SameCoordinates,Original*%
%TF.FileFunction,Legend,Top*%
%TF.FilePolarity,Positive*%
%FSLAX46Y46*%
G04 Gerber Fmt 4.6, Leading zero omitted, Abs format (unit mm)*
G04 Created by KiCad (PCBNEW 7.0.11+1) date 2024-03-31 13:18:05*
%MOMM*%
%LPD*%
G01*
G04 APERTURE LIST*
%ADD10C,0.100000*%
%ADD11C,0.300000*%
%ADD12C,0.150000*%
%ADD13C,0.120000*%
G04 APERTURE END LIST*
D10*
X101603884Y-51872419D02*
X101603884Y-50872419D01*
X101603884Y-51253371D02*
X101699122Y-51205752D01*
X101699122Y-51205752D02*
X101889598Y-51205752D01*
X101889598Y-51205752D02*
X101984836Y-51253371D01*
X101984836Y-51253371D02*
X102032455Y-51300990D01*
X102032455Y-51300990D02*
X102080074Y-51396228D01*
X102080074Y-51396228D02*
X102080074Y-51681942D01*
X102080074Y-51681942D02*
X102032455Y-51777180D01*
X102032455Y-51777180D02*
X101984836Y-51824800D01*
X101984836Y-51824800D02*
X101889598Y-51872419D01*
X101889598Y-51872419D02*
X101699122Y-51872419D01*
X101699122Y-51872419D02*
X101603884Y-51824800D01*
X102651503Y-51872419D02*
X102556265Y-51824800D01*
X102556265Y-51824800D02*
X102508646Y-51777180D01*
X102508646Y-51777180D02*
X102461027Y-51681942D01*
X102461027Y-51681942D02*
X102461027Y-51396228D01*
X102461027Y-51396228D02*
X102508646Y-51300990D01*
X102508646Y-51300990D02*
X102556265Y-51253371D01*
X102556265Y-51253371D02*
X102651503Y-51205752D01*
X102651503Y-51205752D02*
X102794360Y-51205752D01*
X102794360Y-51205752D02*
X102889598Y-51253371D01*
X102889598Y-51253371D02*
X102937217Y-51300990D01*
X102937217Y-51300990D02*
X102984836Y-51396228D01*
X102984836Y-51396228D02*
X102984836Y-51681942D01*
X102984836Y-51681942D02*
X102937217Y-51777180D01*
X102937217Y-51777180D02*
X102889598Y-51824800D01*
X102889598Y-51824800D02*
X102794360Y-51872419D01*
X102794360Y-51872419D02*
X102651503Y-51872419D01*
X103556265Y-51872419D02*
X103461027Y-51824800D01*
X103461027Y-51824800D02*
X103413408Y-51777180D01*
X103413408Y-51777180D02*
X103365789Y-51681942D01*
X103365789Y-51681942D02*
X103365789Y-51396228D01*
X103365789Y-51396228D02*
X103413408Y-51300990D01*
X103413408Y-51300990D02*
X103461027Y-51253371D01*
X103461027Y-51253371D02*
X103556265Y-51205752D01*
X103556265Y-51205752D02*
X103699122Y-51205752D01*
X103699122Y-51205752D02*
X103794360Y-51253371D01*
X103794360Y-51253371D02*
X103841979Y-51300990D01*
X103841979Y-51300990D02*
X103889598Y-51396228D01*
X103889598Y-51396228D02*
X103889598Y-51681942D01*
X103889598Y-51681942D02*
X103841979Y-51777180D01*
X103841979Y-51777180D02*
X103794360Y-51824800D01*
X103794360Y-51824800D02*
X103699122Y-51872419D01*
X103699122Y-51872419D02*
X103556265Y-51872419D01*
X104175313Y-51205752D02*
X104556265Y-51205752D01*
X104318170Y-50872419D02*
X104318170Y-51729561D01*
X104318170Y-51729561D02*
X104365789Y-51824800D01*
X104365789Y-51824800D02*
X104461027Y-51872419D01*
X104461027Y-51872419D02*
X104556265Y-51872419D01*
X101403884Y-88872419D02*
X101403884Y-88205752D01*
X101403884Y-88396228D02*
X101451503Y-88300990D01*
X101451503Y-88300990D02*
X101499122Y-88253371D01*
X101499122Y-88253371D02*
X101594360Y-88205752D01*
X101594360Y-88205752D02*
X101689598Y-88205752D01*
X102403884Y-88824800D02*
X102308646Y-88872419D01*
X102308646Y-88872419D02*
X102118170Y-88872419D01*
X102118170Y-88872419D02*
X102022932Y-88824800D01*
X102022932Y-88824800D02*
X101975313Y-88729561D01*
X101975313Y-88729561D02*
X101975313Y-88348609D01*
X101975313Y-88348609D02*
X102022932Y-88253371D01*
X102022932Y-88253371D02*
X102118170Y-88205752D01*
X102118170Y-88205752D02*
X102308646Y-88205752D01*
X102308646Y-88205752D02*
X102403884Y-88253371D01*
X102403884Y-88253371D02*
X102451503Y-88348609D01*
X102451503Y-88348609D02*
X102451503Y-88443847D01*
X102451503Y-88443847D02*
X101975313Y-88539085D01*
X102832456Y-88824800D02*
X102927694Y-88872419D01*
X102927694Y-88872419D02*
X103118170Y-88872419D01*
X103118170Y-88872419D02*
X103213408Y-88824800D01*
X103213408Y-88824800D02*
X103261027Y-88729561D01*
X103261027Y-88729561D02*
X103261027Y-88681942D01*
X103261027Y-88681942D02*
X103213408Y-88586704D01*
X103213408Y-88586704D02*
X103118170Y-88539085D01*
X103118170Y-88539085D02*
X102975313Y-88539085D01*
X102975313Y-88539085D02*
X102880075Y-88491466D01*
X102880075Y-88491466D02*
X102832456Y-88396228D01*
X102832456Y-88396228D02*
X102832456Y-88348609D01*
X102832456Y-88348609D02*
X102880075Y-88253371D01*
X102880075Y-88253371D02*
X102975313Y-88205752D01*
X102975313Y-88205752D02*
X103118170Y-88205752D01*
X103118170Y-88205752D02*
X103213408Y-88253371D01*
X104070551Y-88824800D02*
X103975313Y-88872419D01*
X103975313Y-88872419D02*
X103784837Y-88872419D01*
X103784837Y-88872419D02*
X103689599Y-88824800D01*
X103689599Y-88824800D02*
X103641980Y-88729561D01*
X103641980Y-88729561D02*
X103641980Y-88348609D01*
X103641980Y-88348609D02*
X103689599Y-88253371D01*
X103689599Y-88253371D02*
X103784837Y-88205752D01*
X103784837Y-88205752D02*
X103975313Y-88205752D01*
X103975313Y-88205752D02*
X104070551Y-88253371D01*
X104070551Y-88253371D02*
X104118170Y-88348609D01*
X104118170Y-88348609D02*
X104118170Y-88443847D01*
X104118170Y-88443847D02*
X103641980Y-88539085D01*
X104403885Y-88205752D02*
X104784837Y-88205752D01*
X104546742Y-87872419D02*
X104546742Y-88729561D01*
X104546742Y-88729561D02*
X104594361Y-88824800D01*
X104594361Y-88824800D02*
X104689599Y-88872419D01*
X104689599Y-88872419D02*
X104784837Y-88872419D01*
D11*
X160816066Y-92007393D02*
X160816066Y-90102632D01*
X160101780Y-89269298D02*
X160101780Y-88316917D01*
X159268447Y-88912155D02*
X161411304Y-88912155D01*
X161411304Y-88912155D02*
X161649400Y-88793108D01*
X161649400Y-88793108D02*
X161768447Y-88555013D01*
X161768447Y-88555013D02*
X161768447Y-88316917D01*
X160101780Y-86412156D02*
X161768447Y-86412156D01*
X159149400Y-87007394D02*
X160935114Y-87602632D01*
X160935114Y-87602632D02*
X160935114Y-86055013D01*
X160816066Y-85102632D02*
X160816066Y-83197871D01*
X161768447Y-84150251D02*
X159863685Y-84150251D01*
X160816066Y-81007393D02*
X160816066Y-79102632D01*
X160101780Y-78269298D02*
X160101780Y-77316917D01*
X159268447Y-77912155D02*
X161411304Y-77912155D01*
X161411304Y-77912155D02*
X161649400Y-77793108D01*
X161649400Y-77793108D02*
X161768447Y-77555013D01*
X161768447Y-77555013D02*
X161768447Y-77316917D01*
X159268447Y-76721680D02*
X159268447Y-75174061D01*
X159268447Y-75174061D02*
X160220828Y-76007394D01*
X160220828Y-76007394D02*
X160220828Y-75650251D01*
X160220828Y-75650251D02*
X160339876Y-75412156D01*
X160339876Y-75412156D02*
X160458923Y-75293108D01*
X160458923Y-75293108D02*
X160697019Y-75174061D01*
X160697019Y-75174061D02*
X161292257Y-75174061D01*
X161292257Y-75174061D02*
X161530352Y-75293108D01*
X161530352Y-75293108D02*
X161649400Y-75412156D01*
X161649400Y-75412156D02*
X161768447Y-75650251D01*
X161768447Y-75650251D02*
X161768447Y-76364537D01*
X161768447Y-76364537D02*
X161649400Y-76602632D01*
X161649400Y-76602632D02*
X161530352Y-76721680D01*
X160816066Y-74102632D02*
X160816066Y-72197871D01*
X161768447Y-73150251D02*
X159863685Y-73150251D01*
X160816066Y-69007393D02*
X160816066Y-67102632D01*
X160101780Y-66269298D02*
X160101780Y-65316917D01*
X159268447Y-65912155D02*
X161411304Y-65912155D01*
X161411304Y-65912155D02*
X161649400Y-65793108D01*
X161649400Y-65793108D02*
X161768447Y-65555013D01*
X161768447Y-65555013D02*
X161768447Y-65316917D01*
X159506542Y-64602632D02*
X159387495Y-64483584D01*
X159387495Y-64483584D02*
X159268447Y-64245489D01*
X159268447Y-64245489D02*
X159268447Y-63650251D01*
X159268447Y-63650251D02*
X159387495Y-63412156D01*
X159387495Y-63412156D02*
X159506542Y-63293108D01*
X159506542Y-63293108D02*
X159744638Y-63174061D01*
X159744638Y-63174061D02*
X159982733Y-63174061D01*
X159982733Y-63174061D02*
X160339876Y-63293108D01*
X160339876Y-63293108D02*
X161768447Y-64721680D01*
X161768447Y-64721680D02*
X161768447Y-63174061D01*
X160816066Y-62102632D02*
X160816066Y-60197871D01*
X161768447Y-61150251D02*
X159863685Y-61150251D01*
X160816066Y-57007393D02*
X160816066Y-55102632D01*
X160101780Y-54269298D02*
X160101780Y-53316917D01*
X159268447Y-53912155D02*
X161411304Y-53912155D01*
X161411304Y-53912155D02*
X161649400Y-53793108D01*
X161649400Y-53793108D02*
X161768447Y-53555013D01*
X161768447Y-53555013D02*
X161768447Y-53316917D01*
X161768447Y-51174061D02*
X161768447Y-52602632D01*
X161768447Y-51888346D02*
X159268447Y-51888346D01*
X159268447Y-51888346D02*
X159625590Y-52126442D01*
X159625590Y-52126442D02*
X159863685Y-52364537D01*
X159863685Y-52364537D02*
X159982733Y-52602632D01*
X160816066Y-50102632D02*
X160816066Y-48197871D01*
X161768447Y-49150251D02*
X159863685Y-49150251D01*
D12*
X136909580Y-59880357D02*
X136957200Y-59927976D01*
X136957200Y-59927976D02*
X137004819Y-60070833D01*
X137004819Y-60070833D02*
X137004819Y-60166071D01*
X137004819Y-60166071D02*
X136957200Y-60308928D01*
X136957200Y-60308928D02*
X136861961Y-60404166D01*
X136861961Y-60404166D02*
X136766723Y-60451785D01*
X136766723Y-60451785D02*
X136576247Y-60499404D01*
X136576247Y-60499404D02*
X136433390Y-60499404D01*
X136433390Y-60499404D02*
X136242914Y-60451785D01*
X136242914Y-60451785D02*
X136147676Y-60404166D01*
X136147676Y-60404166D02*
X136052438Y-60308928D01*
X136052438Y-60308928D02*
X136004819Y-60166071D01*
X136004819Y-60166071D02*
X136004819Y-60070833D01*
X136004819Y-60070833D02*
X136052438Y-59927976D01*
X136052438Y-59927976D02*
X136100057Y-59880357D01*
X137004819Y-58927976D02*
X137004819Y-59499404D01*
X137004819Y-59213690D02*
X136004819Y-59213690D01*
X136004819Y-59213690D02*
X136147676Y-59308928D01*
X136147676Y-59308928D02*
X136242914Y-59404166D01*
X136242914Y-59404166D02*
X136290533Y-59499404D01*
X136100057Y-58547023D02*
X136052438Y-58499404D01*
X136052438Y-58499404D02*
X136004819Y-58404166D01*
X136004819Y-58404166D02*
X136004819Y-58166071D01*
X136004819Y-58166071D02*
X136052438Y-58070833D01*
X136052438Y-58070833D02*
X136100057Y-58023214D01*
X136100057Y-58023214D02*
X136195295Y-57975595D01*
X136195295Y-57975595D02*
X136290533Y-57975595D01*
X136290533Y-57975595D02*
X136433390Y-58023214D01*
X136433390Y-58023214D02*
X137004819Y-58594642D01*
X137004819Y-58594642D02*
X137004819Y-57975595D01*
X127209580Y-88080357D02*
X127257200Y-88127976D01*
X127257200Y-88127976D02*
X127304819Y-88270833D01*
X127304819Y-88270833D02*
X127304819Y-88366071D01*
X127304819Y-88366071D02*
X127257200Y-88508928D01*
X127257200Y-88508928D02*
X127161961Y-88604166D01*
X127161961Y-88604166D02*
X127066723Y-88651785D01*
X127066723Y-88651785D02*
X126876247Y-88699404D01*
X126876247Y-88699404D02*
X126733390Y-88699404D01*
X126733390Y-88699404D02*
X126542914Y-88651785D01*
X126542914Y-88651785D02*
X126447676Y-88604166D01*
X126447676Y-88604166D02*
X126352438Y-88508928D01*
X126352438Y-88508928D02*
X126304819Y-88366071D01*
X126304819Y-88366071D02*
X126304819Y-88270833D01*
X126304819Y-88270833D02*
X126352438Y-88127976D01*
X126352438Y-88127976D02*
X126400057Y-88080357D01*
X127304819Y-87127976D02*
X127304819Y-87699404D01*
X127304819Y-87413690D02*
X126304819Y-87413690D01*
X126304819Y-87413690D02*
X126447676Y-87508928D01*
X126447676Y-87508928D02*
X126542914Y-87604166D01*
X126542914Y-87604166D02*
X126590533Y-87699404D01*
X127304819Y-86175595D02*
X127304819Y-86747023D01*
X127304819Y-86461309D02*
X126304819Y-86461309D01*
X126304819Y-86461309D02*
X126447676Y-86556547D01*
X126447676Y-86556547D02*
X126542914Y-86651785D01*
X126542914Y-86651785D02*
X126590533Y-86747023D01*
X130859580Y-84942857D02*
X130907200Y-84990476D01*
X130907200Y-84990476D02*
X130954819Y-85133333D01*
X130954819Y-85133333D02*
X130954819Y-85228571D01*
X130954819Y-85228571D02*
X130907200Y-85371428D01*
X130907200Y-85371428D02*
X130811961Y-85466666D01*
X130811961Y-85466666D02*
X130716723Y-85514285D01*
X130716723Y-85514285D02*
X130526247Y-85561904D01*
X130526247Y-85561904D02*
X130383390Y-85561904D01*
X130383390Y-85561904D02*
X130192914Y-85514285D01*
X130192914Y-85514285D02*
X130097676Y-85466666D01*
X130097676Y-85466666D02*
X130002438Y-85371428D01*
X130002438Y-85371428D02*
X129954819Y-85228571D01*
X129954819Y-85228571D02*
X129954819Y-85133333D01*
X129954819Y-85133333D02*
X130002438Y-84990476D01*
X130002438Y-84990476D02*
X130050057Y-84942857D01*
X130954819Y-83990476D02*
X130954819Y-84561904D01*
X130954819Y-84276190D02*
X129954819Y-84276190D01*
X129954819Y-84276190D02*
X130097676Y-84371428D01*
X130097676Y-84371428D02*
X130192914Y-84466666D01*
X130192914Y-84466666D02*
X130240533Y-84561904D01*
X129954819Y-83371428D02*
X129954819Y-83276190D01*
X129954819Y-83276190D02*
X130002438Y-83180952D01*
X130002438Y-83180952D02*
X130050057Y-83133333D01*
X130050057Y-83133333D02*
X130145295Y-83085714D01*
X130145295Y-83085714D02*
X130335771Y-83038095D01*
X130335771Y-83038095D02*
X130573866Y-83038095D01*
X130573866Y-83038095D02*
X130764342Y-83085714D01*
X130764342Y-83085714D02*
X130859580Y-83133333D01*
X130859580Y-83133333D02*
X130907200Y-83180952D01*
X130907200Y-83180952D02*
X130954819Y-83276190D01*
X130954819Y-83276190D02*
X130954819Y-83371428D01*
X130954819Y-83371428D02*
X130907200Y-83466666D01*
X130907200Y-83466666D02*
X130859580Y-83514285D01*
X130859580Y-83514285D02*
X130764342Y-83561904D01*
X130764342Y-83561904D02*
X130573866Y-83609523D01*
X130573866Y-83609523D02*
X130335771Y-83609523D01*
X130335771Y-83609523D02*
X130145295Y-83561904D01*
X130145295Y-83561904D02*
X130050057Y-83514285D01*
X130050057Y-83514285D02*
X130002438Y-83466666D01*
X130002438Y-83466666D02*
X129954819Y-83371428D01*
X130959580Y-91066666D02*
X131007200Y-91114285D01*
X131007200Y-91114285D02*
X131054819Y-91257142D01*
X131054819Y-91257142D02*
X131054819Y-91352380D01*
X131054819Y-91352380D02*
X131007200Y-91495237D01*
X131007200Y-91495237D02*
X130911961Y-91590475D01*
X130911961Y-91590475D02*
X130816723Y-91638094D01*
X130816723Y-91638094D02*
X130626247Y-91685713D01*
X130626247Y-91685713D02*
X130483390Y-91685713D01*
X130483390Y-91685713D02*
X130292914Y-91638094D01*
X130292914Y-91638094D02*
X130197676Y-91590475D01*
X130197676Y-91590475D02*
X130102438Y-91495237D01*
X130102438Y-91495237D02*
X130054819Y-91352380D01*
X130054819Y-91352380D02*
X130054819Y-91257142D01*
X130054819Y-91257142D02*
X130102438Y-91114285D01*
X130102438Y-91114285D02*
X130150057Y-91066666D01*
X131054819Y-90590475D02*
X131054819Y-90399999D01*
X131054819Y-90399999D02*
X131007200Y-90304761D01*
X131007200Y-90304761D02*
X130959580Y-90257142D01*
X130959580Y-90257142D02*
X130816723Y-90161904D01*
X130816723Y-90161904D02*
X130626247Y-90114285D01*
X130626247Y-90114285D02*
X130245295Y-90114285D01*
X130245295Y-90114285D02*
X130150057Y-90161904D01*
X130150057Y-90161904D02*
X130102438Y-90209523D01*
X130102438Y-90209523D02*
X130054819Y-90304761D01*
X130054819Y-90304761D02*
X130054819Y-90495237D01*
X130054819Y-90495237D02*
X130102438Y-90590475D01*
X130102438Y-90590475D02*
X130150057Y-90638094D01*
X130150057Y-90638094D02*
X130245295Y-90685713D01*
X130245295Y-90685713D02*
X130483390Y-90685713D01*
X130483390Y-90685713D02*
X130578628Y-90638094D01*
X130578628Y-90638094D02*
X130626247Y-90590475D01*
X130626247Y-90590475D02*
X130673866Y-90495237D01*
X130673866Y-90495237D02*
X130673866Y-90304761D01*
X130673866Y-90304761D02*
X130626247Y-90209523D01*
X130626247Y-90209523D02*
X130578628Y-90161904D01*
X130578628Y-90161904D02*
X130483390Y-90114285D01*
X142418095Y-91334819D02*
X142418095Y-92144342D01*
X142418095Y-92144342D02*
X142465714Y-92239580D01*
X142465714Y-92239580D02*
X142513333Y-92287200D01*
X142513333Y-92287200D02*
X142608571Y-92334819D01*
X142608571Y-92334819D02*
X142799047Y-92334819D01*
X142799047Y-92334819D02*
X142894285Y-92287200D01*
X142894285Y-92287200D02*
X142941904Y-92239580D01*
X142941904Y-92239580D02*
X142989523Y-92144342D01*
X142989523Y-92144342D02*
X142989523Y-91334819D01*
X143894285Y-91334819D02*
X143703809Y-91334819D01*
X143703809Y-91334819D02*
X143608571Y-91382438D01*
X143608571Y-91382438D02*
X143560952Y-91430057D01*
X143560952Y-91430057D02*
X143465714Y-91572914D01*
X143465714Y-91572914D02*
X143418095Y-91763390D01*
X143418095Y-91763390D02*
X143418095Y-92144342D01*
X143418095Y-92144342D02*
X143465714Y-92239580D01*
X143465714Y-92239580D02*
X143513333Y-92287200D01*
X143513333Y-92287200D02*
X143608571Y-92334819D01*
X143608571Y-92334819D02*
X143799047Y-92334819D01*
X143799047Y-92334819D02*
X143894285Y-92287200D01*
X143894285Y-92287200D02*
X143941904Y-92239580D01*
X143941904Y-92239580D02*
X143989523Y-92144342D01*
X143989523Y-92144342D02*
X143989523Y-91906247D01*
X143989523Y-91906247D02*
X143941904Y-91811009D01*
X143941904Y-91811009D02*
X143894285Y-91763390D01*
X143894285Y-91763390D02*
X143799047Y-91715771D01*
X143799047Y-91715771D02*
X143608571Y-91715771D01*
X143608571Y-91715771D02*
X143513333Y-91763390D01*
X143513333Y-91763390D02*
X143465714Y-91811009D01*
X143465714Y-91811009D02*
X143418095Y-91906247D01*
X142418095Y-79631485D02*
X142418095Y-80441008D01*
X142418095Y-80441008D02*
X142465714Y-80536246D01*
X142465714Y-80536246D02*
X142513333Y-80583866D01*
X142513333Y-80583866D02*
X142608571Y-80631485D01*
X142608571Y-80631485D02*
X142799047Y-80631485D01*
X142799047Y-80631485D02*
X142894285Y-80583866D01*
X142894285Y-80583866D02*
X142941904Y-80536246D01*
X142941904Y-80536246D02*
X142989523Y-80441008D01*
X142989523Y-80441008D02*
X142989523Y-79631485D01*
X143941904Y-79631485D02*
X143465714Y-79631485D01*
X143465714Y-79631485D02*
X143418095Y-80107675D01*
X143418095Y-80107675D02*
X143465714Y-80060056D01*
X143465714Y-80060056D02*
X143560952Y-80012437D01*
X143560952Y-80012437D02*
X143799047Y-80012437D01*
X143799047Y-80012437D02*
X143894285Y-80060056D01*
X143894285Y-80060056D02*
X143941904Y-80107675D01*
X143941904Y-80107675D02*
X143989523Y-80202913D01*
X143989523Y-80202913D02*
X143989523Y-80441008D01*
X143989523Y-80441008D02*
X143941904Y-80536246D01*
X143941904Y-80536246D02*
X143894285Y-80583866D01*
X143894285Y-80583866D02*
X143799047Y-80631485D01*
X143799047Y-80631485D02*
X143560952Y-80631485D01*
X143560952Y-80631485D02*
X143465714Y-80583866D01*
X143465714Y-80583866D02*
X143418095Y-80536246D01*
X142418095Y-67928152D02*
X142418095Y-68737675D01*
X142418095Y-68737675D02*
X142465714Y-68832913D01*
X142465714Y-68832913D02*
X142513333Y-68880533D01*
X142513333Y-68880533D02*
X142608571Y-68928152D01*
X142608571Y-68928152D02*
X142799047Y-68928152D01*
X142799047Y-68928152D02*
X142894285Y-68880533D01*
X142894285Y-68880533D02*
X142941904Y-68832913D01*
X142941904Y-68832913D02*
X142989523Y-68737675D01*
X142989523Y-68737675D02*
X142989523Y-67928152D01*
X143894285Y-68261485D02*
X143894285Y-68928152D01*
X143656190Y-67880533D02*
X143418095Y-68594818D01*
X143418095Y-68594818D02*
X144037142Y-68594818D01*
X142418095Y-56224819D02*
X142418095Y-57034342D01*
X142418095Y-57034342D02*
X142465714Y-57129580D01*
X142465714Y-57129580D02*
X142513333Y-57177200D01*
X142513333Y-57177200D02*
X142608571Y-57224819D01*
X142608571Y-57224819D02*
X142799047Y-57224819D01*
X142799047Y-57224819D02*
X142894285Y-57177200D01*
X142894285Y-57177200D02*
X142941904Y-57129580D01*
X142941904Y-57129580D02*
X142989523Y-57034342D01*
X142989523Y-57034342D02*
X142989523Y-56224819D01*
X143370476Y-56224819D02*
X143989523Y-56224819D01*
X143989523Y-56224819D02*
X143656190Y-56605771D01*
X143656190Y-56605771D02*
X143799047Y-56605771D01*
X143799047Y-56605771D02*
X143894285Y-56653390D01*
X143894285Y-56653390D02*
X143941904Y-56701009D01*
X143941904Y-56701009D02*
X143989523Y-56796247D01*
X143989523Y-56796247D02*
X143989523Y-57034342D01*
X143989523Y-57034342D02*
X143941904Y-57129580D01*
X143941904Y-57129580D02*
X143894285Y-57177200D01*
X143894285Y-57177200D02*
X143799047Y-57224819D01*
X143799047Y-57224819D02*
X143513333Y-57224819D01*
X143513333Y-57224819D02*
X143418095Y-57177200D01*
X143418095Y-57177200D02*
X143370476Y-57129580D01*
X125838095Y-75554819D02*
X125838095Y-76364342D01*
X125838095Y-76364342D02*
X125885714Y-76459580D01*
X125885714Y-76459580D02*
X125933333Y-76507200D01*
X125933333Y-76507200D02*
X126028571Y-76554819D01*
X126028571Y-76554819D02*
X126219047Y-76554819D01*
X126219047Y-76554819D02*
X126314285Y-76507200D01*
X126314285Y-76507200D02*
X126361904Y-76459580D01*
X126361904Y-76459580D02*
X126409523Y-76364342D01*
X126409523Y-76364342D02*
X126409523Y-75554819D01*
X126838095Y-75650057D02*
X126885714Y-75602438D01*
X126885714Y-75602438D02*
X126980952Y-75554819D01*
X126980952Y-75554819D02*
X127219047Y-75554819D01*
X127219047Y-75554819D02*
X127314285Y-75602438D01*
X127314285Y-75602438D02*
X127361904Y-75650057D01*
X127361904Y-75650057D02*
X127409523Y-75745295D01*
X127409523Y-75745295D02*
X127409523Y-75840533D01*
X127409523Y-75840533D02*
X127361904Y-75983390D01*
X127361904Y-75983390D02*
X126790476Y-76554819D01*
X126790476Y-76554819D02*
X127409523Y-76554819D01*
X120694819Y-64226904D02*
X121504342Y-64226904D01*
X121504342Y-64226904D02*
X121599580Y-64179285D01*
X121599580Y-64179285D02*
X121647200Y-64131666D01*
X121647200Y-64131666D02*
X121694819Y-64036428D01*
X121694819Y-64036428D02*
X121694819Y-63845952D01*
X121694819Y-63845952D02*
X121647200Y-63750714D01*
X121647200Y-63750714D02*
X121599580Y-63703095D01*
X121599580Y-63703095D02*
X121504342Y-63655476D01*
X121504342Y-63655476D02*
X120694819Y-63655476D01*
X121694819Y-62655476D02*
X121694819Y-63226904D01*
X121694819Y-62941190D02*
X120694819Y-62941190D01*
X120694819Y-62941190D02*
X120837676Y-63036428D01*
X120837676Y-63036428D02*
X120932914Y-63131666D01*
X120932914Y-63131666D02*
X120980533Y-63226904D01*
X112824819Y-57966666D02*
X112348628Y-58299999D01*
X112824819Y-58538094D02*
X111824819Y-58538094D01*
X111824819Y-58538094D02*
X111824819Y-58157142D01*
X111824819Y-58157142D02*
X111872438Y-58061904D01*
X111872438Y-58061904D02*
X111920057Y-58014285D01*
X111920057Y-58014285D02*
X112015295Y-57966666D01*
X112015295Y-57966666D02*
X112158152Y-57966666D01*
X112158152Y-57966666D02*
X112253390Y-58014285D01*
X112253390Y-58014285D02*
X112301009Y-58061904D01*
X112301009Y-58061904D02*
X112348628Y-58157142D01*
X112348628Y-58157142D02*
X112348628Y-58538094D01*
X111920057Y-57585713D02*
X111872438Y-57538094D01*
X111872438Y-57538094D02*
X111824819Y-57442856D01*
X111824819Y-57442856D02*
X111824819Y-57204761D01*
X111824819Y-57204761D02*
X111872438Y-57109523D01*
X111872438Y-57109523D02*
X111920057Y-57061904D01*
X111920057Y-57061904D02*
X112015295Y-57014285D01*
X112015295Y-57014285D02*
X112110533Y-57014285D01*
X112110533Y-57014285D02*
X112253390Y-57061904D01*
X112253390Y-57061904D02*
X112824819Y-57633332D01*
X112824819Y-57633332D02*
X112824819Y-57014285D01*
X112824819Y-83976666D02*
X112348628Y-84309999D01*
X112824819Y-84548094D02*
X111824819Y-84548094D01*
X111824819Y-84548094D02*
X111824819Y-84167142D01*
X111824819Y-84167142D02*
X111872438Y-84071904D01*
X111872438Y-84071904D02*
X111920057Y-84024285D01*
X111920057Y-84024285D02*
X112015295Y-83976666D01*
X112015295Y-83976666D02*
X112158152Y-83976666D01*
X112158152Y-83976666D02*
X112253390Y-84024285D01*
X112253390Y-84024285D02*
X112301009Y-84071904D01*
X112301009Y-84071904D02*
X112348628Y-84167142D01*
X112348628Y-84167142D02*
X112348628Y-84548094D01*
X112824819Y-83024285D02*
X112824819Y-83595713D01*
X112824819Y-83309999D02*
X111824819Y-83309999D01*
X111824819Y-83309999D02*
X111967676Y-83405237D01*
X111967676Y-83405237D02*
X112062914Y-83500475D01*
X112062914Y-83500475D02*
X112110533Y-83595713D01*
X153154819Y-88333333D02*
X153869104Y-88333333D01*
X153869104Y-88333333D02*
X154011961Y-88380952D01*
X154011961Y-88380952D02*
X154107200Y-88476190D01*
X154107200Y-88476190D02*
X154154819Y-88619047D01*
X154154819Y-88619047D02*
X154154819Y-88714285D01*
X153154819Y-87380952D02*
X153154819Y-87857142D01*
X153154819Y-87857142D02*
X153631009Y-87904761D01*
X153631009Y-87904761D02*
X153583390Y-87857142D01*
X153583390Y-87857142D02*
X153535771Y-87761904D01*
X153535771Y-87761904D02*
X153535771Y-87523809D01*
X153535771Y-87523809D02*
X153583390Y-87428571D01*
X153583390Y-87428571D02*
X153631009Y-87380952D01*
X153631009Y-87380952D02*
X153726247Y-87333333D01*
X153726247Y-87333333D02*
X153964342Y-87333333D01*
X153964342Y-87333333D02*
X154059580Y-87380952D01*
X154059580Y-87380952D02*
X154107200Y-87428571D01*
X154107200Y-87428571D02*
X154154819Y-87523809D01*
X154154819Y-87523809D02*
X154154819Y-87761904D01*
X154154819Y-87761904D02*
X154107200Y-87857142D01*
X154107200Y-87857142D02*
X154059580Y-87904761D01*
X152954819Y-76533333D02*
X153669104Y-76533333D01*
X153669104Y-76533333D02*
X153811961Y-76580952D01*
X153811961Y-76580952D02*
X153907200Y-76676190D01*
X153907200Y-76676190D02*
X153954819Y-76819047D01*
X153954819Y-76819047D02*
X153954819Y-76914285D01*
X153288152Y-75628571D02*
X153954819Y-75628571D01*
X152907200Y-75866666D02*
X153621485Y-76104761D01*
X153621485Y-76104761D02*
X153621485Y-75485714D01*
X153054819Y-64933333D02*
X153769104Y-64933333D01*
X153769104Y-64933333D02*
X153911961Y-64980952D01*
X153911961Y-64980952D02*
X154007200Y-65076190D01*
X154007200Y-65076190D02*
X154054819Y-65219047D01*
X154054819Y-65219047D02*
X154054819Y-65314285D01*
X153054819Y-64552380D02*
X153054819Y-63933333D01*
X153054819Y-63933333D02*
X153435771Y-64266666D01*
X153435771Y-64266666D02*
X153435771Y-64123809D01*
X153435771Y-64123809D02*
X153483390Y-64028571D01*
X153483390Y-64028571D02*
X153531009Y-63980952D01*
X153531009Y-63980952D02*
X153626247Y-63933333D01*
X153626247Y-63933333D02*
X153864342Y-63933333D01*
X153864342Y-63933333D02*
X153959580Y-63980952D01*
X153959580Y-63980952D02*
X154007200Y-64028571D01*
X154007200Y-64028571D02*
X154054819Y-64123809D01*
X154054819Y-64123809D02*
X154054819Y-64409523D01*
X154054819Y-64409523D02*
X154007200Y-64504761D01*
X154007200Y-64504761D02*
X153959580Y-64552380D01*
X152954819Y-53133333D02*
X153669104Y-53133333D01*
X153669104Y-53133333D02*
X153811961Y-53180952D01*
X153811961Y-53180952D02*
X153907200Y-53276190D01*
X153907200Y-53276190D02*
X153954819Y-53419047D01*
X153954819Y-53419047D02*
X153954819Y-53514285D01*
X153050057Y-52704761D02*
X153002438Y-52657142D01*
X153002438Y-52657142D02*
X152954819Y-52561904D01*
X152954819Y-52561904D02*
X152954819Y-52323809D01*
X152954819Y-52323809D02*
X153002438Y-52228571D01*
X153002438Y-52228571D02*
X153050057Y-52180952D01*
X153050057Y-52180952D02*
X153145295Y-52133333D01*
X153145295Y-52133333D02*
X153240533Y-52133333D01*
X153240533Y-52133333D02*
X153383390Y-52180952D01*
X153383390Y-52180952D02*
X153954819Y-52752380D01*
X153954819Y-52752380D02*
X153954819Y-52133333D01*
X103354819Y-74533333D02*
X104069104Y-74533333D01*
X104069104Y-74533333D02*
X104211961Y-74580952D01*
X104211961Y-74580952D02*
X104307200Y-74676190D01*
X104307200Y-74676190D02*
X104354819Y-74819047D01*
X104354819Y-74819047D02*
X104354819Y-74914285D01*
X104354819Y-73533333D02*
X104354819Y-74104761D01*
X104354819Y-73819047D02*
X103354819Y-73819047D01*
X103354819Y-73819047D02*
X103497676Y-73914285D01*
X103497676Y-73914285D02*
X103592914Y-74009523D01*
X103592914Y-74009523D02*
X103640533Y-74104761D01*
X126923333Y-49759580D02*
X126875714Y-49807200D01*
X126875714Y-49807200D02*
X126732857Y-49854819D01*
X126732857Y-49854819D02*
X126637619Y-49854819D01*
X126637619Y-49854819D02*
X126494762Y-49807200D01*
X126494762Y-49807200D02*
X126399524Y-49711961D01*
X126399524Y-49711961D02*
X126351905Y-49616723D01*
X126351905Y-49616723D02*
X126304286Y-49426247D01*
X126304286Y-49426247D02*
X126304286Y-49283390D01*
X126304286Y-49283390D02*
X126351905Y-49092914D01*
X126351905Y-49092914D02*
X126399524Y-48997676D01*
X126399524Y-48997676D02*
X126494762Y-48902438D01*
X126494762Y-48902438D02*
X126637619Y-48854819D01*
X126637619Y-48854819D02*
X126732857Y-48854819D01*
X126732857Y-48854819D02*
X126875714Y-48902438D01*
X126875714Y-48902438D02*
X126923333Y-48950057D01*
X127494762Y-49283390D02*
X127399524Y-49235771D01*
X127399524Y-49235771D02*
X127351905Y-49188152D01*
X127351905Y-49188152D02*
X127304286Y-49092914D01*
X127304286Y-49092914D02*
X127304286Y-49045295D01*
X127304286Y-49045295D02*
X127351905Y-48950057D01*
X127351905Y-48950057D02*
X127399524Y-48902438D01*
X127399524Y-48902438D02*
X127494762Y-48854819D01*
X127494762Y-48854819D02*
X127685238Y-48854819D01*
X127685238Y-48854819D02*
X127780476Y-48902438D01*
X127780476Y-48902438D02*
X127828095Y-48950057D01*
X127828095Y-48950057D02*
X127875714Y-49045295D01*
X127875714Y-49045295D02*
X127875714Y-49092914D01*
X127875714Y-49092914D02*
X127828095Y-49188152D01*
X127828095Y-49188152D02*
X127780476Y-49235771D01*
X127780476Y-49235771D02*
X127685238Y-49283390D01*
X127685238Y-49283390D02*
X127494762Y-49283390D01*
X127494762Y-49283390D02*
X127399524Y-49331009D01*
X127399524Y-49331009D02*
X127351905Y-49378628D01*
X127351905Y-49378628D02*
X127304286Y-49473866D01*
X127304286Y-49473866D02*
X127304286Y-49664342D01*
X127304286Y-49664342D02*
X127351905Y-49759580D01*
X127351905Y-49759580D02*
X127399524Y-49807200D01*
X127399524Y-49807200D02*
X127494762Y-49854819D01*
X127494762Y-49854819D02*
X127685238Y-49854819D01*
X127685238Y-49854819D02*
X127780476Y-49807200D01*
X127780476Y-49807200D02*
X127828095Y-49759580D01*
X127828095Y-49759580D02*
X127875714Y-49664342D01*
X127875714Y-49664342D02*
X127875714Y-49473866D01*
X127875714Y-49473866D02*
X127828095Y-49378628D01*
X127828095Y-49378628D02*
X127780476Y-49331009D01*
X127780476Y-49331009D02*
X127685238Y-49283390D01*
X141493333Y-83569580D02*
X141445714Y-83617200D01*
X141445714Y-83617200D02*
X141302857Y-83664819D01*
X141302857Y-83664819D02*
X141207619Y-83664819D01*
X141207619Y-83664819D02*
X141064762Y-83617200D01*
X141064762Y-83617200D02*
X140969524Y-83521961D01*
X140969524Y-83521961D02*
X140921905Y-83426723D01*
X140921905Y-83426723D02*
X140874286Y-83236247D01*
X140874286Y-83236247D02*
X140874286Y-83093390D01*
X140874286Y-83093390D02*
X140921905Y-82902914D01*
X140921905Y-82902914D02*
X140969524Y-82807676D01*
X140969524Y-82807676D02*
X141064762Y-82712438D01*
X141064762Y-82712438D02*
X141207619Y-82664819D01*
X141207619Y-82664819D02*
X141302857Y-82664819D01*
X141302857Y-82664819D02*
X141445714Y-82712438D01*
X141445714Y-82712438D02*
X141493333Y-82760057D01*
X141826667Y-82664819D02*
X142493333Y-82664819D01*
X142493333Y-82664819D02*
X142064762Y-83664819D01*
X109799580Y-70166666D02*
X109847200Y-70214285D01*
X109847200Y-70214285D02*
X109894819Y-70357142D01*
X109894819Y-70357142D02*
X109894819Y-70452380D01*
X109894819Y-70452380D02*
X109847200Y-70595237D01*
X109847200Y-70595237D02*
X109751961Y-70690475D01*
X109751961Y-70690475D02*
X109656723Y-70738094D01*
X109656723Y-70738094D02*
X109466247Y-70785713D01*
X109466247Y-70785713D02*
X109323390Y-70785713D01*
X109323390Y-70785713D02*
X109132914Y-70738094D01*
X109132914Y-70738094D02*
X109037676Y-70690475D01*
X109037676Y-70690475D02*
X108942438Y-70595237D01*
X108942438Y-70595237D02*
X108894819Y-70452380D01*
X108894819Y-70452380D02*
X108894819Y-70357142D01*
X108894819Y-70357142D02*
X108942438Y-70214285D01*
X108942438Y-70214285D02*
X108990057Y-70166666D01*
X108894819Y-69309523D02*
X108894819Y-69499999D01*
X108894819Y-69499999D02*
X108942438Y-69595237D01*
X108942438Y-69595237D02*
X108990057Y-69642856D01*
X108990057Y-69642856D02*
X109132914Y-69738094D01*
X109132914Y-69738094D02*
X109323390Y-69785713D01*
X109323390Y-69785713D02*
X109704342Y-69785713D01*
X109704342Y-69785713D02*
X109799580Y-69738094D01*
X109799580Y-69738094D02*
X109847200Y-69690475D01*
X109847200Y-69690475D02*
X109894819Y-69595237D01*
X109894819Y-69595237D02*
X109894819Y-69404761D01*
X109894819Y-69404761D02*
X109847200Y-69309523D01*
X109847200Y-69309523D02*
X109799580Y-69261904D01*
X109799580Y-69261904D02*
X109704342Y-69214285D01*
X109704342Y-69214285D02*
X109466247Y-69214285D01*
X109466247Y-69214285D02*
X109371009Y-69261904D01*
X109371009Y-69261904D02*
X109323390Y-69309523D01*
X109323390Y-69309523D02*
X109275771Y-69404761D01*
X109275771Y-69404761D02*
X109275771Y-69595237D01*
X109275771Y-69595237D02*
X109323390Y-69690475D01*
X109323390Y-69690475D02*
X109371009Y-69738094D01*
X109371009Y-69738094D02*
X109466247Y-69785713D01*
X109609580Y-76166666D02*
X109657200Y-76214285D01*
X109657200Y-76214285D02*
X109704819Y-76357142D01*
X109704819Y-76357142D02*
X109704819Y-76452380D01*
X109704819Y-76452380D02*
X109657200Y-76595237D01*
X109657200Y-76595237D02*
X109561961Y-76690475D01*
X109561961Y-76690475D02*
X109466723Y-76738094D01*
X109466723Y-76738094D02*
X109276247Y-76785713D01*
X109276247Y-76785713D02*
X109133390Y-76785713D01*
X109133390Y-76785713D02*
X108942914Y-76738094D01*
X108942914Y-76738094D02*
X108847676Y-76690475D01*
X108847676Y-76690475D02*
X108752438Y-76595237D01*
X108752438Y-76595237D02*
X108704819Y-76452380D01*
X108704819Y-76452380D02*
X108704819Y-76357142D01*
X108704819Y-76357142D02*
X108752438Y-76214285D01*
X108752438Y-76214285D02*
X108800057Y-76166666D01*
X108704819Y-75261904D02*
X108704819Y-75738094D01*
X108704819Y-75738094D02*
X109181009Y-75785713D01*
X109181009Y-75785713D02*
X109133390Y-75738094D01*
X109133390Y-75738094D02*
X109085771Y-75642856D01*
X109085771Y-75642856D02*
X109085771Y-75404761D01*
X109085771Y-75404761D02*
X109133390Y-75309523D01*
X109133390Y-75309523D02*
X109181009Y-75261904D01*
X109181009Y-75261904D02*
X109276247Y-75214285D01*
X109276247Y-75214285D02*
X109514342Y-75214285D01*
X109514342Y-75214285D02*
X109609580Y-75261904D01*
X109609580Y-75261904D02*
X109657200Y-75309523D01*
X109657200Y-75309523D02*
X109704819Y-75404761D01*
X109704819Y-75404761D02*
X109704819Y-75642856D01*
X109704819Y-75642856D02*
X109657200Y-75738094D01*
X109657200Y-75738094D02*
X109609580Y-75785713D01*
X141823333Y-71859580D02*
X141775714Y-71907200D01*
X141775714Y-71907200D02*
X141632857Y-71954819D01*
X141632857Y-71954819D02*
X141537619Y-71954819D01*
X141537619Y-71954819D02*
X141394762Y-71907200D01*
X141394762Y-71907200D02*
X141299524Y-71811961D01*
X141299524Y-71811961D02*
X141251905Y-71716723D01*
X141251905Y-71716723D02*
X141204286Y-71526247D01*
X141204286Y-71526247D02*
X141204286Y-71383390D01*
X141204286Y-71383390D02*
X141251905Y-71192914D01*
X141251905Y-71192914D02*
X141299524Y-71097676D01*
X141299524Y-71097676D02*
X141394762Y-71002438D01*
X141394762Y-71002438D02*
X141537619Y-70954819D01*
X141537619Y-70954819D02*
X141632857Y-70954819D01*
X141632857Y-70954819D02*
X141775714Y-71002438D01*
X141775714Y-71002438D02*
X141823333Y-71050057D01*
X142680476Y-71288152D02*
X142680476Y-71954819D01*
X142442381Y-70907200D02*
X142204286Y-71621485D01*
X142204286Y-71621485D02*
X142823333Y-71621485D01*
X141623333Y-60159580D02*
X141575714Y-60207200D01*
X141575714Y-60207200D02*
X141432857Y-60254819D01*
X141432857Y-60254819D02*
X141337619Y-60254819D01*
X141337619Y-60254819D02*
X141194762Y-60207200D01*
X141194762Y-60207200D02*
X141099524Y-60111961D01*
X141099524Y-60111961D02*
X141051905Y-60016723D01*
X141051905Y-60016723D02*
X141004286Y-59826247D01*
X141004286Y-59826247D02*
X141004286Y-59683390D01*
X141004286Y-59683390D02*
X141051905Y-59492914D01*
X141051905Y-59492914D02*
X141099524Y-59397676D01*
X141099524Y-59397676D02*
X141194762Y-59302438D01*
X141194762Y-59302438D02*
X141337619Y-59254819D01*
X141337619Y-59254819D02*
X141432857Y-59254819D01*
X141432857Y-59254819D02*
X141575714Y-59302438D01*
X141575714Y-59302438D02*
X141623333Y-59350057D01*
X141956667Y-59254819D02*
X142575714Y-59254819D01*
X142575714Y-59254819D02*
X142242381Y-59635771D01*
X142242381Y-59635771D02*
X142385238Y-59635771D01*
X142385238Y-59635771D02*
X142480476Y-59683390D01*
X142480476Y-59683390D02*
X142528095Y-59731009D01*
X142528095Y-59731009D02*
X142575714Y-59826247D01*
X142575714Y-59826247D02*
X142575714Y-60064342D01*
X142575714Y-60064342D02*
X142528095Y-60159580D01*
X142528095Y-60159580D02*
X142480476Y-60207200D01*
X142480476Y-60207200D02*
X142385238Y-60254819D01*
X142385238Y-60254819D02*
X142099524Y-60254819D01*
X142099524Y-60254819D02*
X142004286Y-60207200D01*
X142004286Y-60207200D02*
X141956667Y-60159580D01*
X141423333Y-48459580D02*
X141375714Y-48507200D01*
X141375714Y-48507200D02*
X141232857Y-48554819D01*
X141232857Y-48554819D02*
X141137619Y-48554819D01*
X141137619Y-48554819D02*
X140994762Y-48507200D01*
X140994762Y-48507200D02*
X140899524Y-48411961D01*
X140899524Y-48411961D02*
X140851905Y-48316723D01*
X140851905Y-48316723D02*
X140804286Y-48126247D01*
X140804286Y-48126247D02*
X140804286Y-47983390D01*
X140804286Y-47983390D02*
X140851905Y-47792914D01*
X140851905Y-47792914D02*
X140899524Y-47697676D01*
X140899524Y-47697676D02*
X140994762Y-47602438D01*
X140994762Y-47602438D02*
X141137619Y-47554819D01*
X141137619Y-47554819D02*
X141232857Y-47554819D01*
X141232857Y-47554819D02*
X141375714Y-47602438D01*
X141375714Y-47602438D02*
X141423333Y-47650057D01*
X141804286Y-47650057D02*
X141851905Y-47602438D01*
X141851905Y-47602438D02*
X141947143Y-47554819D01*
X141947143Y-47554819D02*
X142185238Y-47554819D01*
X142185238Y-47554819D02*
X142280476Y-47602438D01*
X142280476Y-47602438D02*
X142328095Y-47650057D01*
X142328095Y-47650057D02*
X142375714Y-47745295D01*
X142375714Y-47745295D02*
X142375714Y-47840533D01*
X142375714Y-47840533D02*
X142328095Y-47983390D01*
X142328095Y-47983390D02*
X141756667Y-48554819D01*
X141756667Y-48554819D02*
X142375714Y-48554819D01*
X119333333Y-69259580D02*
X119285714Y-69307200D01*
X119285714Y-69307200D02*
X119142857Y-69354819D01*
X119142857Y-69354819D02*
X119047619Y-69354819D01*
X119047619Y-69354819D02*
X118904762Y-69307200D01*
X118904762Y-69307200D02*
X118809524Y-69211961D01*
X118809524Y-69211961D02*
X118761905Y-69116723D01*
X118761905Y-69116723D02*
X118714286Y-68926247D01*
X118714286Y-68926247D02*
X118714286Y-68783390D01*
X118714286Y-68783390D02*
X118761905Y-68592914D01*
X118761905Y-68592914D02*
X118809524Y-68497676D01*
X118809524Y-68497676D02*
X118904762Y-68402438D01*
X118904762Y-68402438D02*
X119047619Y-68354819D01*
X119047619Y-68354819D02*
X119142857Y-68354819D01*
X119142857Y-68354819D02*
X119285714Y-68402438D01*
X119285714Y-68402438D02*
X119333333Y-68450057D01*
X120285714Y-69354819D02*
X119714286Y-69354819D01*
X120000000Y-69354819D02*
X120000000Y-68354819D01*
X120000000Y-68354819D02*
X119904762Y-68497676D01*
X119904762Y-68497676D02*
X119809524Y-68592914D01*
X119809524Y-68592914D02*
X119714286Y-68640533D01*
D13*
%TO.C,C12*%
X133790000Y-58526248D02*
X133790000Y-59948752D01*
X135610000Y-58526248D02*
X135610000Y-59948752D01*
%TO.C,C11*%
X124090000Y-86726248D02*
X124090000Y-88148752D01*
X125910000Y-86726248D02*
X125910000Y-88148752D01*
%TO.C,C10*%
X133300000Y-84211252D02*
X133300000Y-82788748D01*
X131480000Y-84211252D02*
X131480000Y-82788748D01*
%TO.C,C9*%
X131480000Y-90988748D02*
X131480000Y-92411252D01*
X133300000Y-90988748D02*
X133300000Y-92411252D01*
%TO.C,U6*%
X146970000Y-90625000D02*
X146490000Y-90625000D01*
X146730000Y-90295000D01*
X146970000Y-90625000D01*
G36*
X146970000Y-90625000D02*
G01*
X146490000Y-90625000D01*
X146730000Y-90295000D01*
X146970000Y-90625000D01*
G37*
X145940000Y-91040000D02*
X145940000Y-90295000D01*
X143180000Y-91040000D02*
X145940000Y-91040000D01*
X140420000Y-91040000D02*
X140420000Y-90295000D01*
X143180000Y-91040000D02*
X140420000Y-91040000D01*
X145940000Y-84620000D02*
X145940000Y-85365000D01*
X143180000Y-84620000D02*
X145940000Y-84620000D01*
X140420000Y-84620000D02*
X140420000Y-85365000D01*
X143180000Y-84620000D02*
X140420000Y-84620000D01*
%TO.C,U5*%
X143180000Y-72916666D02*
X140420000Y-72916666D01*
X140420000Y-72916666D02*
X140420000Y-73661666D01*
X143180000Y-72916666D02*
X145940000Y-72916666D01*
X145940000Y-72916666D02*
X145940000Y-73661666D01*
X143180000Y-79336666D02*
X140420000Y-79336666D01*
X140420000Y-79336666D02*
X140420000Y-78591666D01*
X143180000Y-79336666D02*
X145940000Y-79336666D01*
X145940000Y-79336666D02*
X145940000Y-78591666D01*
X146970000Y-78921666D02*
X146490000Y-78921666D01*
X146730000Y-78591666D01*
X146970000Y-78921666D01*
G36*
X146970000Y-78921666D02*
G01*
X146490000Y-78921666D01*
X146730000Y-78591666D01*
X146970000Y-78921666D01*
G37*
%TO.C,U4*%
X146970000Y-67218333D02*
X146490000Y-67218333D01*
X146730000Y-66888333D01*
X146970000Y-67218333D01*
G36*
X146970000Y-67218333D02*
G01*
X146490000Y-67218333D01*
X146730000Y-66888333D01*
X146970000Y-67218333D01*
G37*
X145940000Y-67633333D02*
X145940000Y-66888333D01*
X143180000Y-67633333D02*
X145940000Y-67633333D01*
X140420000Y-67633333D02*
X140420000Y-66888333D01*
X143180000Y-67633333D02*
X140420000Y-67633333D01*
X145940000Y-61213333D02*
X145940000Y-61958333D01*
X143180000Y-61213333D02*
X145940000Y-61213333D01*
X140420000Y-61213333D02*
X140420000Y-61958333D01*
X143180000Y-61213333D02*
X140420000Y-61213333D01*
%TO.C,U3*%
X143180000Y-49510000D02*
X140420000Y-49510000D01*
X140420000Y-49510000D02*
X140420000Y-50255000D01*
X143180000Y-49510000D02*
X145940000Y-49510000D01*
X145940000Y-49510000D02*
X145940000Y-50255000D01*
X143180000Y-55930000D02*
X140420000Y-55930000D01*
X140420000Y-55930000D02*
X140420000Y-55185000D01*
X143180000Y-55930000D02*
X145940000Y-55930000D01*
X145940000Y-55930000D02*
X145940000Y-55185000D01*
X146970000Y-55515000D02*
X146490000Y-55515000D01*
X146730000Y-55185000D01*
X146970000Y-55515000D01*
G36*
X146970000Y-55515000D02*
G01*
X146490000Y-55515000D01*
X146730000Y-55185000D01*
X146970000Y-55515000D01*
G37*
%TO.C,U2*%
X119100000Y-72830000D02*
X122860000Y-72830000D01*
X119100000Y-79650000D02*
X122860000Y-79650000D01*
X122860000Y-72830000D02*
X122860000Y-74090000D01*
X122860000Y-79650000D02*
X122860000Y-78390000D01*
X117820000Y-72930000D02*
X117580000Y-72600000D01*
X118060000Y-72600000D01*
X117820000Y-72930000D01*
G36*
X117820000Y-72930000D02*
G01*
X117580000Y-72600000D01*
X118060000Y-72600000D01*
X117820000Y-72930000D01*
G37*
%TO.C,U1*%
X130730000Y-60155000D02*
X130730000Y-59855000D01*
X130730000Y-59855000D02*
X130430000Y-59855000D01*
X130730000Y-66775000D02*
X130730000Y-67075000D01*
X130730000Y-67075000D02*
X130430000Y-67075000D01*
X123510000Y-60155000D02*
X123510000Y-59855000D01*
X123510000Y-59855000D02*
X123810000Y-59855000D01*
X123510000Y-66775000D02*
X123510000Y-67075000D01*
X123510000Y-67075000D02*
X123810000Y-67075000D01*
X123810000Y-67677500D02*
X123340000Y-68017500D01*
X123340000Y-67337500D01*
X123810000Y-67677500D01*
G36*
X123810000Y-67677500D02*
G01*
X123340000Y-68017500D01*
X123340000Y-67337500D01*
X123810000Y-67677500D01*
G37*
%TO.C,SW2*%
X106500000Y-57000000D02*
X106500000Y-55500000D01*
X105250000Y-53000000D02*
X100750000Y-53000000D01*
X99500000Y-55500000D02*
X99500000Y-57000000D01*
X100750000Y-59500000D02*
X105250000Y-59500000D01*
%TO.C,SW1*%
X106500000Y-84750000D02*
X106500000Y-83250000D01*
X105250000Y-80750000D02*
X100750000Y-80750000D01*
X99500000Y-83250000D02*
X99500000Y-84750000D01*
X100750000Y-87250000D02*
X105250000Y-87250000D01*
%TO.C,R2*%
X108630000Y-61070000D02*
X108960000Y-61070000D01*
X111370000Y-54530000D02*
X111370000Y-61070000D01*
X108630000Y-54530000D02*
X108630000Y-61070000D01*
X108960000Y-54530000D02*
X108630000Y-54530000D01*
X111040000Y-54530000D02*
X111370000Y-54530000D01*
X111370000Y-61070000D02*
X111040000Y-61070000D01*
%TO.C,R1*%
X111370000Y-87080000D02*
X111040000Y-87080000D01*
X111040000Y-80540000D02*
X111370000Y-80540000D01*
X108960000Y-80540000D02*
X108630000Y-80540000D01*
X108630000Y-80540000D02*
X108630000Y-87080000D01*
X111370000Y-80540000D02*
X111370000Y-87080000D01*
X108630000Y-87080000D02*
X108960000Y-87080000D01*
%TO.C,J5*%
X156239845Y-89602853D02*
G75*
G03*
X156240000Y-91102500I1700155J-749647D01*
G01*
X156239845Y-84522853D02*
G75*
G03*
X156240000Y-86022500I1700155J-749647D01*
G01*
X156240000Y-83772500D02*
X156240000Y-84522500D01*
X151590000Y-86522500D02*
X150590000Y-86772500D01*
X156240000Y-91102500D02*
X156240000Y-91852500D01*
X157100000Y-82622500D02*
X149630000Y-82622500D01*
X151590000Y-84522500D02*
X151940000Y-84522500D01*
X151590000Y-89602500D02*
X151940000Y-89602500D01*
X151940000Y-89602500D02*
X151940000Y-88852500D01*
X151590000Y-91602500D02*
X150590000Y-91852500D01*
X151940000Y-88852500D02*
X156240000Y-88852500D01*
X150590000Y-86772500D02*
X150590000Y-83772500D01*
X151590000Y-91102500D02*
X151590000Y-91602500D01*
X150490000Y-93392500D02*
X149240000Y-93392500D01*
X157100000Y-93002500D02*
X157100000Y-82622500D01*
X150590000Y-83772500D02*
X151590000Y-84022500D01*
X151590000Y-84022500D02*
X151590000Y-84522500D01*
X149630000Y-82622500D02*
X149630000Y-93002500D01*
X151940000Y-91852500D02*
X151940000Y-91102500D01*
X151940000Y-86772500D02*
X151940000Y-86022500D01*
X151590000Y-86022500D02*
X151590000Y-86522500D01*
X151940000Y-86022500D02*
X151590000Y-86022500D01*
X149240000Y-93392500D02*
X149240000Y-91392500D01*
X151940000Y-91102500D02*
X151590000Y-91102500D01*
X149630000Y-93002500D02*
X157100000Y-93002500D01*
X151940000Y-84522500D02*
X151940000Y-83772500D01*
X156240000Y-88852500D02*
X156240000Y-89602500D01*
X156240000Y-86022500D02*
X156240000Y-86772500D01*
X150590000Y-91852500D02*
X150590000Y-88852500D01*
X151590000Y-89102500D02*
X151590000Y-89602500D01*
X156240000Y-86772500D02*
X151940000Y-86772500D01*
X151940000Y-83772500D02*
X156240000Y-83772500D01*
X150590000Y-88852500D02*
X151590000Y-89102500D01*
X156240000Y-91852500D02*
X151940000Y-91852500D01*
%TO.C,J4*%
X156240000Y-80149166D02*
X151940000Y-80149166D01*
X150590000Y-77149166D02*
X151590000Y-77399166D01*
X151940000Y-72069166D02*
X156240000Y-72069166D01*
X156240000Y-75069166D02*
X151940000Y-75069166D01*
X151590000Y-77399166D02*
X151590000Y-77899166D01*
X150590000Y-80149166D02*
X150590000Y-77149166D01*
X156240000Y-74319166D02*
X156240000Y-75069166D01*
X156240000Y-77149166D02*
X156240000Y-77899166D01*
X151940000Y-72819166D02*
X151940000Y-72069166D01*
X149630000Y-81299166D02*
X157100000Y-81299166D01*
X151940000Y-79399166D02*
X151590000Y-79399166D01*
X149240000Y-81689166D02*
X149240000Y-79689166D01*
X151940000Y-74319166D02*
X151590000Y-74319166D01*
X151590000Y-74319166D02*
X151590000Y-74819166D01*
X151940000Y-75069166D02*
X151940000Y-74319166D01*
X151940000Y-80149166D02*
X151940000Y-79399166D01*
X149630000Y-70919166D02*
X149630000Y-81299166D01*
X151590000Y-72319166D02*
X151590000Y-72819166D01*
X150590000Y-72069166D02*
X151590000Y-72319166D01*
X157100000Y-81299166D02*
X157100000Y-70919166D01*
X150490000Y-81689166D02*
X149240000Y-81689166D01*
X151590000Y-79399166D02*
X151590000Y-79899166D01*
X150590000Y-75069166D02*
X150590000Y-72069166D01*
X151940000Y-77149166D02*
X156240000Y-77149166D01*
X151590000Y-79899166D02*
X150590000Y-80149166D01*
X151940000Y-77899166D02*
X151940000Y-77149166D01*
X151590000Y-77899166D02*
X151940000Y-77899166D01*
X151590000Y-72819166D02*
X151940000Y-72819166D01*
X157100000Y-70919166D02*
X149630000Y-70919166D01*
X156240000Y-79399166D02*
X156240000Y-80149166D01*
X151590000Y-74819166D02*
X150590000Y-75069166D01*
X156240000Y-72069166D02*
X156240000Y-72819166D01*
X156239845Y-72819519D02*
G75*
G03*
X156240000Y-74319166I1700155J-749647D01*
G01*
X156239845Y-77899519D02*
G75*
G03*
X156240000Y-79399166I1700155J-749647D01*
G01*
%TO.C,J3*%
X156240000Y-68445833D02*
X151940000Y-68445833D01*
X150590000Y-65445833D02*
X151590000Y-65695833D01*
X151940000Y-60365833D02*
X156240000Y-60365833D01*
X156240000Y-63365833D02*
X151940000Y-63365833D01*
X151590000Y-65695833D02*
X151590000Y-66195833D01*
X150590000Y-68445833D02*
X150590000Y-65445833D01*
X156240000Y-62615833D02*
X156240000Y-63365833D01*
X156240000Y-65445833D02*
X156240000Y-66195833D01*
X151940000Y-61115833D02*
X151940000Y-60365833D01*
X149630000Y-69595833D02*
X157100000Y-69595833D01*
X151940000Y-67695833D02*
X151590000Y-67695833D01*
X149240000Y-69985833D02*
X149240000Y-67985833D01*
X151940000Y-62615833D02*
X151590000Y-62615833D01*
X151590000Y-62615833D02*
X151590000Y-63115833D01*
X151940000Y-63365833D02*
X151940000Y-62615833D01*
X151940000Y-68445833D02*
X151940000Y-67695833D01*
X149630000Y-59215833D02*
X149630000Y-69595833D01*
X151590000Y-60615833D02*
X151590000Y-61115833D01*
X150590000Y-60365833D02*
X151590000Y-60615833D01*
X157100000Y-69595833D02*
X157100000Y-59215833D01*
X150490000Y-69985833D02*
X149240000Y-69985833D01*
X151590000Y-67695833D02*
X151590000Y-68195833D01*
X150590000Y-63365833D02*
X150590000Y-60365833D01*
X151940000Y-65445833D02*
X156240000Y-65445833D01*
X151590000Y-68195833D02*
X150590000Y-68445833D01*
X151940000Y-66195833D02*
X151940000Y-65445833D01*
X151590000Y-66195833D02*
X151940000Y-66195833D01*
X151590000Y-61115833D02*
X151940000Y-61115833D01*
X157100000Y-59215833D02*
X149630000Y-59215833D01*
X156240000Y-67695833D02*
X156240000Y-68445833D01*
X151590000Y-63115833D02*
X150590000Y-63365833D01*
X156240000Y-60365833D02*
X156240000Y-61115833D01*
X156239845Y-61116186D02*
G75*
G03*
X156240000Y-62615833I1700155J-749647D01*
G01*
X156239845Y-66196186D02*
G75*
G03*
X156240000Y-67695833I1700155J-749647D01*
G01*
%TO.C,J2*%
X156240000Y-56742500D02*
X151940000Y-56742500D01*
X150590000Y-53742500D02*
X151590000Y-53992500D01*
X151940000Y-48662500D02*
X156240000Y-48662500D01*
X156240000Y-51662500D02*
X151940000Y-51662500D01*
X151590000Y-53992500D02*
X151590000Y-54492500D01*
X150590000Y-56742500D02*
X150590000Y-53742500D01*
X156240000Y-50912500D02*
X156240000Y-51662500D01*
X156240000Y-53742500D02*
X156240000Y-54492500D01*
X151940000Y-49412500D02*
X151940000Y-48662500D01*
X149630000Y-57892500D02*
X157100000Y-57892500D01*
X151940000Y-55992500D02*
X151590000Y-55992500D01*
X149240000Y-58282500D02*
X149240000Y-56282500D01*
X151940000Y-50912500D02*
X151590000Y-50912500D01*
X151590000Y-50912500D02*
X151590000Y-51412500D01*
X151940000Y-51662500D02*
X151940000Y-50912500D01*
X151940000Y-56742500D02*
X151940000Y-55992500D01*
X149630000Y-47512500D02*
X149630000Y-57892500D01*
X151590000Y-48912500D02*
X151590000Y-49412500D01*
X150590000Y-48662500D02*
X151590000Y-48912500D01*
X157100000Y-57892500D02*
X157100000Y-47512500D01*
X150490000Y-58282500D02*
X149240000Y-58282500D01*
X151590000Y-55992500D02*
X151590000Y-56492500D01*
X150590000Y-51662500D02*
X150590000Y-48662500D01*
X151940000Y-53742500D02*
X156240000Y-53742500D01*
X151590000Y-56492500D02*
X150590000Y-56742500D01*
X151940000Y-54492500D02*
X151940000Y-53742500D01*
X151590000Y-54492500D02*
X151940000Y-54492500D01*
X151590000Y-49412500D02*
X151940000Y-49412500D01*
X157100000Y-47512500D02*
X149630000Y-47512500D01*
X156240000Y-55992500D02*
X156240000Y-56742500D01*
X151590000Y-51412500D02*
X150590000Y-51662500D01*
X156240000Y-48662500D02*
X156240000Y-49412500D01*
X156239845Y-49412853D02*
G75*
G03*
X156240000Y-50912500I1700155J-749647D01*
G01*
X156239845Y-54492853D02*
G75*
G03*
X156240000Y-55992500I1700155J-749647D01*
G01*
%TO.C,J1*%
X89590000Y-76110000D02*
X97560000Y-76110000D01*
X89590000Y-63890000D02*
X97560000Y-63890000D01*
X106210000Y-76110000D02*
X102460000Y-76110000D01*
X106210000Y-63890000D02*
X106210000Y-76110000D01*
X106910000Y-70750000D02*
X106410000Y-71250000D01*
X89590000Y-63890000D02*
X89590000Y-76110000D01*
X106210000Y-63890000D02*
X102460000Y-63890000D01*
X106410000Y-71250000D02*
X106910000Y-71750000D01*
X106910000Y-71750000D02*
X106910000Y-70750000D01*
%TO.C,C8*%
X130068748Y-50330000D02*
X131491252Y-50330000D01*
X130068748Y-48510000D02*
X131491252Y-48510000D01*
%TO.C,C7*%
X146101252Y-82330000D02*
X144678748Y-82330000D01*
X146101252Y-84150000D02*
X144678748Y-84150000D01*
%TO.C,C6*%
X114230000Y-67999000D02*
X114843000Y-67999000D01*
X114230000Y-68679000D02*
X115414000Y-68679000D01*
X114230000Y-69800000D02*
X115763000Y-69800000D01*
X110922000Y-68759000D02*
X112150000Y-68759000D01*
X110861000Y-68879000D02*
X112150000Y-68879000D01*
X110880000Y-68839000D02*
X112150000Y-68839000D01*
X111219000Y-68319000D02*
X112150000Y-68319000D01*
X114230000Y-68039000D02*
X114889000Y-68039000D01*
X114230000Y-68359000D02*
X115194000Y-68359000D01*
X110614000Y-69840000D02*
X112150000Y-69840000D01*
X111125000Y-68439000D02*
X112150000Y-68439000D01*
X114230000Y-69960000D02*
X115770000Y-69960000D01*
X114230000Y-69279000D02*
X115670000Y-69279000D01*
X110762000Y-69119000D02*
X112150000Y-69119000D01*
X110776000Y-69079000D02*
X112150000Y-69079000D01*
X111289000Y-68239000D02*
X112150000Y-68239000D01*
X110679000Y-69400000D02*
X112150000Y-69400000D01*
X114230000Y-69760000D02*
X115759000Y-69760000D01*
X114230000Y-69159000D02*
X115632000Y-69159000D01*
X114230000Y-69440000D02*
X115710000Y-69440000D01*
X114230000Y-68719000D02*
X115437000Y-68719000D01*
X114230000Y-68599000D02*
X115365000Y-68599000D01*
X114230000Y-69880000D02*
X115768000Y-69880000D01*
X110662000Y-69480000D02*
X112150000Y-69480000D01*
X111041000Y-68559000D02*
X112150000Y-68559000D01*
X111364000Y-68159000D02*
X112150000Y-68159000D01*
X111537000Y-67999000D02*
X112150000Y-67999000D01*
X114230000Y-68959000D02*
X115555000Y-68959000D01*
X110610000Y-70000000D02*
X112150000Y-70000000D01*
X110629000Y-69680000D02*
X112150000Y-69680000D01*
X110825000Y-68959000D02*
X112150000Y-68959000D01*
X110654000Y-69520000D02*
X112150000Y-69520000D01*
X112385000Y-67519000D02*
X113995000Y-67519000D01*
X111939000Y-67719000D02*
X114441000Y-67719000D01*
X111690000Y-67879000D02*
X114690000Y-67879000D01*
X114230000Y-69640000D02*
X115746000Y-69640000D01*
X114230000Y-68919000D02*
X115538000Y-68919000D01*
X112513000Y-67479000D02*
X113867000Y-67479000D01*
X114230000Y-68439000D02*
X115255000Y-68439000D01*
X114230000Y-68479000D02*
X115285000Y-68479000D01*
X110722000Y-69239000D02*
X112150000Y-69239000D01*
X114230000Y-68999000D02*
X115572000Y-68999000D01*
X114230000Y-69119000D02*
X115618000Y-69119000D01*
X110842000Y-68919000D02*
X112150000Y-68919000D01*
X114230000Y-68759000D02*
X115458000Y-68759000D01*
X111405000Y-68119000D02*
X112150000Y-68119000D01*
X111095000Y-68479000D02*
X112150000Y-68479000D01*
X114230000Y-69680000D02*
X115751000Y-69680000D01*
X114230000Y-69079000D02*
X115604000Y-69079000D01*
X114230000Y-69039000D02*
X115588000Y-69039000D01*
X114230000Y-69840000D02*
X115766000Y-69840000D01*
X110808000Y-68999000D02*
X112150000Y-68999000D01*
X110699000Y-69320000D02*
X112150000Y-69320000D01*
X112179000Y-67599000D02*
X114201000Y-67599000D01*
X111636000Y-67919000D02*
X114744000Y-67919000D01*
X112275000Y-67559000D02*
X114105000Y-67559000D01*
X111715000Y-72804775D02*
X111715000Y-72304775D01*
X114230000Y-70000000D02*
X115770000Y-70000000D01*
X110735000Y-69199000D02*
X112150000Y-69199000D01*
X111068000Y-68519000D02*
X112150000Y-68519000D01*
X114230000Y-68799000D02*
X115480000Y-68799000D01*
X110990000Y-68639000D02*
X112150000Y-68639000D01*
X111326000Y-68199000D02*
X112150000Y-68199000D01*
X114230000Y-68079000D02*
X114933000Y-68079000D01*
X112092000Y-67639000D02*
X114288000Y-67639000D01*
X110612000Y-69880000D02*
X112150000Y-69880000D01*
X110625000Y-69720000D02*
X112150000Y-69720000D01*
X110611000Y-69920000D02*
X112150000Y-69920000D01*
X110617000Y-69800000D02*
X112150000Y-69800000D01*
X114230000Y-68199000D02*
X115054000Y-68199000D01*
X114230000Y-68879000D02*
X115519000Y-68879000D01*
X112672000Y-67439000D02*
X113708000Y-67439000D01*
X112906000Y-67399000D02*
X113474000Y-67399000D01*
X114230000Y-69400000D02*
X115701000Y-69400000D01*
X114230000Y-68279000D02*
X115127000Y-68279000D01*
X114230000Y-68839000D02*
X115500000Y-68839000D01*
X114230000Y-69600000D02*
X115740000Y-69600000D01*
X111871000Y-67759000D02*
X114509000Y-67759000D01*
X111807000Y-67799000D02*
X114573000Y-67799000D01*
X110792000Y-69039000D02*
X112150000Y-69039000D01*
X110943000Y-68719000D02*
X112150000Y-68719000D01*
X112012000Y-67679000D02*
X114368000Y-67679000D01*
X114230000Y-68639000D02*
X115390000Y-68639000D01*
X111447000Y-68079000D02*
X112150000Y-68079000D01*
X111155000Y-68399000D02*
X112150000Y-68399000D01*
X111585000Y-67959000D02*
X114795000Y-67959000D01*
X114230000Y-68519000D02*
X115312000Y-68519000D01*
X114230000Y-69239000D02*
X115658000Y-69239000D01*
X114230000Y-69480000D02*
X115718000Y-69480000D01*
X110748000Y-69159000D02*
X112150000Y-69159000D01*
X110634000Y-69640000D02*
X112150000Y-69640000D01*
X114230000Y-69560000D02*
X115733000Y-69560000D01*
X111747000Y-67839000D02*
X114633000Y-67839000D01*
X114230000Y-68159000D02*
X115016000Y-68159000D01*
X114230000Y-69199000D02*
X115645000Y-69199000D01*
X114230000Y-69720000D02*
X115755000Y-69720000D01*
X114230000Y-69920000D02*
X115769000Y-69920000D01*
X114230000Y-69320000D02*
X115681000Y-69320000D01*
X114230000Y-68119000D02*
X114975000Y-68119000D01*
X110710000Y-69279000D02*
X112150000Y-69279000D01*
X111186000Y-68359000D02*
X112150000Y-68359000D01*
X114230000Y-68559000D02*
X115339000Y-68559000D01*
X111015000Y-68599000D02*
X112150000Y-68599000D01*
X110900000Y-68799000D02*
X112150000Y-68799000D01*
X110621000Y-69760000D02*
X112150000Y-69760000D01*
X111253000Y-68279000D02*
X112150000Y-68279000D01*
X110647000Y-69560000D02*
X112150000Y-69560000D01*
X114230000Y-69360000D02*
X115691000Y-69360000D01*
X110966000Y-68679000D02*
X112150000Y-68679000D01*
X111465000Y-72554775D02*
X111965000Y-72554775D01*
X110640000Y-69600000D02*
X112150000Y-69600000D01*
X114230000Y-68319000D02*
X115161000Y-68319000D01*
X114230000Y-69520000D02*
X115726000Y-69520000D01*
X110670000Y-69440000D02*
X112150000Y-69440000D01*
X114230000Y-68399000D02*
X115225000Y-68399000D01*
X114230000Y-68239000D02*
X115091000Y-68239000D01*
X110610000Y-69960000D02*
X112150000Y-69960000D01*
X110689000Y-69360000D02*
X112150000Y-69360000D01*
X111491000Y-68039000D02*
X112150000Y-68039000D01*
X115810000Y-70000000D02*
G75*
G03*
X110570000Y-70000000I-2620000J0D01*
G01*
X110570000Y-70000000D02*
G75*
G03*
X115810000Y-70000000I2620000J0D01*
G01*
%TO.C,C5*%
X114040000Y-73999000D02*
X114653000Y-73999000D01*
X114040000Y-74679000D02*
X115224000Y-74679000D01*
X114040000Y-75800000D02*
X115573000Y-75800000D01*
X110732000Y-74759000D02*
X111960000Y-74759000D01*
X110671000Y-74879000D02*
X111960000Y-74879000D01*
X110690000Y-74839000D02*
X111960000Y-74839000D01*
X111029000Y-74319000D02*
X111960000Y-74319000D01*
X114040000Y-74039000D02*
X114699000Y-74039000D01*
X114040000Y-74359000D02*
X115004000Y-74359000D01*
X110424000Y-75840000D02*
X111960000Y-75840000D01*
X110935000Y-74439000D02*
X111960000Y-74439000D01*
X114040000Y-75960000D02*
X115580000Y-75960000D01*
X114040000Y-75279000D02*
X115480000Y-75279000D01*
X110572000Y-75119000D02*
X111960000Y-75119000D01*
X110586000Y-75079000D02*
X111960000Y-75079000D01*
X111099000Y-74239000D02*
X111960000Y-74239000D01*
X110489000Y-75400000D02*
X111960000Y-75400000D01*
X114040000Y-75760000D02*
X115569000Y-75760000D01*
X114040000Y-75159000D02*
X115442000Y-75159000D01*
X114040000Y-75440000D02*
X115520000Y-75440000D01*
X114040000Y-74719000D02*
X115247000Y-74719000D01*
X114040000Y-74599000D02*
X115175000Y-74599000D01*
X114040000Y-75880000D02*
X115578000Y-75880000D01*
X110472000Y-75480000D02*
X111960000Y-75480000D01*
X110851000Y-74559000D02*
X111960000Y-74559000D01*
X111174000Y-74159000D02*
X111960000Y-74159000D01*
X111347000Y-73999000D02*
X111960000Y-73999000D01*
X114040000Y-74959000D02*
X115365000Y-74959000D01*
X110420000Y-76000000D02*
X111960000Y-76000000D01*
X110439000Y-75680000D02*
X111960000Y-75680000D01*
X110635000Y-74959000D02*
X111960000Y-74959000D01*
X110464000Y-75520000D02*
X111960000Y-75520000D01*
X112195000Y-73519000D02*
X113805000Y-73519000D01*
X111749000Y-73719000D02*
X114251000Y-73719000D01*
X111500000Y-73879000D02*
X114500000Y-73879000D01*
X114040000Y-75640000D02*
X115556000Y-75640000D01*
X114040000Y-74919000D02*
X115348000Y-74919000D01*
X112323000Y-73479000D02*
X113677000Y-73479000D01*
X114040000Y-74439000D02*
X115065000Y-74439000D01*
X114040000Y-74479000D02*
X115095000Y-74479000D01*
X110532000Y-75239000D02*
X111960000Y-75239000D01*
X114040000Y-74999000D02*
X115382000Y-74999000D01*
X114040000Y-75119000D02*
X115428000Y-75119000D01*
X110652000Y-74919000D02*
X111960000Y-74919000D01*
X114040000Y-74759000D02*
X115268000Y-74759000D01*
X111215000Y-74119000D02*
X111960000Y-74119000D01*
X110905000Y-74479000D02*
X111960000Y-74479000D01*
X114040000Y-75680000D02*
X115561000Y-75680000D01*
X114040000Y-75079000D02*
X115414000Y-75079000D01*
X114040000Y-75039000D02*
X115398000Y-75039000D01*
X114040000Y-75840000D02*
X115576000Y-75840000D01*
X110618000Y-74999000D02*
X111960000Y-74999000D01*
X110509000Y-75320000D02*
X111960000Y-75320000D01*
X111989000Y-73599000D02*
X114011000Y-73599000D01*
X111446000Y-73919000D02*
X114554000Y-73919000D01*
X112085000Y-73559000D02*
X113915000Y-73559000D01*
X111525000Y-78804775D02*
X111525000Y-78304775D01*
X114040000Y-76000000D02*
X115580000Y-76000000D01*
X110545000Y-75199000D02*
X111960000Y-75199000D01*
X110878000Y-74519000D02*
X111960000Y-74519000D01*
X114040000Y-74799000D02*
X115290000Y-74799000D01*
X110800000Y-74639000D02*
X111960000Y-74639000D01*
X111136000Y-74199000D02*
X111960000Y-74199000D01*
X114040000Y-74079000D02*
X114743000Y-74079000D01*
X111902000Y-73639000D02*
X114098000Y-73639000D01*
X110422000Y-75880000D02*
X111960000Y-75880000D01*
X110435000Y-75720000D02*
X111960000Y-75720000D01*
X110421000Y-75920000D02*
X111960000Y-75920000D01*
X110427000Y-75800000D02*
X111960000Y-75800000D01*
X114040000Y-74199000D02*
X114864000Y-74199000D01*
X114040000Y-74879000D02*
X115329000Y-74879000D01*
X112482000Y-73439000D02*
X113518000Y-73439000D01*
X112716000Y-73399000D02*
X113284000Y-73399000D01*
X114040000Y-75400000D02*
X115511000Y-75400000D01*
X114040000Y-74279000D02*
X114937000Y-74279000D01*
X114040000Y-74839000D02*
X115310000Y-74839000D01*
X114040000Y-75600000D02*
X115550000Y-75600000D01*
X111681000Y-73759000D02*
X114319000Y-73759000D01*
X111617000Y-73799000D02*
X114383000Y-73799000D01*
X110602000Y-75039000D02*
X111960000Y-75039000D01*
X110753000Y-74719000D02*
X111960000Y-74719000D01*
X111822000Y-73679000D02*
X114178000Y-73679000D01*
X114040000Y-74639000D02*
X115200000Y-74639000D01*
X111257000Y-74079000D02*
X111960000Y-74079000D01*
X110965000Y-74399000D02*
X111960000Y-74399000D01*
X111395000Y-73959000D02*
X114605000Y-73959000D01*
X114040000Y-74519000D02*
X115122000Y-74519000D01*
X114040000Y-75239000D02*
X115468000Y-75239000D01*
X114040000Y-75480000D02*
X115528000Y-75480000D01*
X110558000Y-75159000D02*
X111960000Y-75159000D01*
X110444000Y-75640000D02*
X111960000Y-75640000D01*
X114040000Y-75560000D02*
X115543000Y-75560000D01*
X111557000Y-73839000D02*
X114443000Y-73839000D01*
X114040000Y-74159000D02*
X114826000Y-74159000D01*
X114040000Y-75199000D02*
X115455000Y-75199000D01*
X114040000Y-75720000D02*
X115565000Y-75720000D01*
X114040000Y-75920000D02*
X115579000Y-75920000D01*
X114040000Y-75320000D02*
X115491000Y-75320000D01*
X114040000Y-74119000D02*
X114785000Y-74119000D01*
X110520000Y-75279000D02*
X111960000Y-75279000D01*
X110996000Y-74359000D02*
X111960000Y-74359000D01*
X114040000Y-74559000D02*
X115149000Y-74559000D01*
X110825000Y-74599000D02*
X111960000Y-74599000D01*
X110710000Y-74799000D02*
X111960000Y-74799000D01*
X110431000Y-75760000D02*
X111960000Y-75760000D01*
X111063000Y-74279000D02*
X111960000Y-74279000D01*
X110457000Y-75560000D02*
X111960000Y-75560000D01*
X114040000Y-75360000D02*
X115501000Y-75360000D01*
X110776000Y-74679000D02*
X111960000Y-74679000D01*
X111275000Y-78554775D02*
X111775000Y-78554775D01*
X110450000Y-75600000D02*
X111960000Y-75600000D01*
X114040000Y-74319000D02*
X114971000Y-74319000D01*
X114040000Y-75520000D02*
X115536000Y-75520000D01*
X110480000Y-75440000D02*
X111960000Y-75440000D01*
X114040000Y-74399000D02*
X115035000Y-74399000D01*
X114040000Y-74239000D02*
X114901000Y-74239000D01*
X110420000Y-75960000D02*
X111960000Y-75960000D01*
X110499000Y-75360000D02*
X111960000Y-75360000D01*
X111301000Y-74039000D02*
X111960000Y-74039000D01*
X115620000Y-76000000D02*
G75*
G03*
X110380000Y-76000000I-2620000J0D01*
G01*
X110380000Y-76000000D02*
G75*
G03*
X115620000Y-76000000I2620000J0D01*
G01*
%TO.C,C4*%
X146101252Y-70626666D02*
X144678748Y-70626666D01*
X146101252Y-72446666D02*
X144678748Y-72446666D01*
%TO.C,C3*%
X146101252Y-58923333D02*
X144678748Y-58923333D01*
X146101252Y-60743333D02*
X144678748Y-60743333D01*
%TO.C,C2*%
X146101252Y-47220000D02*
X144678748Y-47220000D01*
X146101252Y-49040000D02*
X144678748Y-49040000D01*
%TO.C,C1*%
X123131252Y-70170000D02*
X121708748Y-70170000D01*
X123131252Y-71990000D02*
X121708748Y-71990000D01*
%TD*%
M02*
