%TF.GenerationSoftware,KiCad,Pcbnew,7.0.11+1*%
%TF.CreationDate,2024-03-31T13:17:59+02:00*%
%TF.ProjectId,ch32v203_thermokoppel,63683332-7632-4303-935f-746865726d6f,rev?*%
%TF.SameCoordinates,Original*%
%TF.FileFunction,Paste,Top*%
%TF.FilePolarity,Positive*%
%FSLAX46Y46*%
G04 Gerber Fmt 4.6, Leading zero omitted, Abs format (unit mm)*
G04 Created by KiCad (PCBNEW 7.0.11+1) date 2024-03-31 13:17:59*
%MOMM*%
%LPD*%
G01*
G04 APERTURE LIST*
G04 Aperture macros list*
%AMRoundRect*
0 Rectangle with rounded corners*
0 $1 Rounding radius*
0 $2 $3 $4 $5 $6 $7 $8 $9 X,Y pos of 4 corners*
0 Add a 4 corners polygon primitive as box body*
4,1,4,$2,$3,$4,$5,$6,$7,$8,$9,$2,$3,0*
0 Add four circle primitives for the rounded corners*
1,1,$1+$1,$2,$3*
1,1,$1+$1,$4,$5*
1,1,$1+$1,$6,$7*
1,1,$1+$1,$8,$9*
0 Add four rect primitives between the rounded corners*
20,1,$1+$1,$2,$3,$4,$5,0*
20,1,$1+$1,$4,$5,$6,$7,0*
20,1,$1+$1,$6,$7,$8,$9,0*
20,1,$1+$1,$8,$9,$2,$3,0*%
G04 Aperture macros list end*
%ADD10RoundRect,0.250000X-0.650000X0.412500X-0.650000X-0.412500X0.650000X-0.412500X0.650000X0.412500X0*%
%ADD11RoundRect,0.250000X0.650000X-0.412500X0.650000X0.412500X-0.650000X0.412500X-0.650000X-0.412500X0*%
%ADD12RoundRect,0.150000X0.800000X0.150000X-0.800000X0.150000X-0.800000X-0.150000X0.800000X-0.150000X0*%
%ADD13RoundRect,0.375000X-0.625000X-0.375000X0.625000X-0.375000X0.625000X0.375000X-0.625000X0.375000X0*%
%ADD14RoundRect,0.500000X-0.500000X-1.400000X0.500000X-1.400000X0.500000X1.400000X-0.500000X1.400000X0*%
%ADD15RoundRect,0.125000X0.125000X-0.625000X0.125000X0.625000X-0.125000X0.625000X-0.125000X-0.625000X0*%
%ADD16RoundRect,0.125000X0.625000X-0.125000X0.625000X0.125000X-0.625000X0.125000X-0.625000X-0.125000X0*%
%ADD17RoundRect,0.250000X-0.412500X-0.650000X0.412500X-0.650000X0.412500X0.650000X-0.412500X0.650000X0*%
%ADD18RoundRect,0.250000X0.412500X0.650000X-0.412500X0.650000X-0.412500X-0.650000X0.412500X-0.650000X0*%
G04 APERTURE END LIST*
D10*
%TO.C,C12*%
X134700000Y-57675000D03*
X134700000Y-60800000D03*
%TD*%
%TO.C,C11*%
X125000000Y-85875000D03*
X125000000Y-89000000D03*
%TD*%
D11*
%TO.C,C10*%
X132390000Y-85062500D03*
X132390000Y-81937500D03*
%TD*%
D10*
%TO.C,C9*%
X132390000Y-90137500D03*
X132390000Y-93262500D03*
%TD*%
D12*
%TO.C,U6*%
X139680000Y-89735000D03*
X139680000Y-88465000D03*
X139680000Y-87195000D03*
X139680000Y-85925000D03*
X146680000Y-85925000D03*
X146680000Y-87195000D03*
X146680000Y-88465000D03*
X146680000Y-89735000D03*
%TD*%
%TO.C,U5*%
X146680000Y-78031666D03*
X146680000Y-76761666D03*
X146680000Y-75491666D03*
X146680000Y-74221666D03*
X139680000Y-74221666D03*
X139680000Y-75491666D03*
X139680000Y-76761666D03*
X139680000Y-78031666D03*
%TD*%
%TO.C,U4*%
X139680000Y-66328333D03*
X139680000Y-65058333D03*
X139680000Y-63788333D03*
X139680000Y-62518333D03*
X146680000Y-62518333D03*
X146680000Y-63788333D03*
X146680000Y-65058333D03*
X146680000Y-66328333D03*
%TD*%
%TO.C,U3*%
X146680000Y-54625000D03*
X146680000Y-53355000D03*
X146680000Y-52085000D03*
X146680000Y-50815000D03*
X139680000Y-50815000D03*
X139680000Y-52085000D03*
X139680000Y-53355000D03*
X139680000Y-54625000D03*
%TD*%
D13*
%TO.C,U2*%
X117800000Y-73940000D03*
X117800000Y-76240000D03*
D14*
X124100000Y-76240000D03*
D13*
X117800000Y-78540000D03*
%TD*%
D15*
%TO.C,U1*%
X124320000Y-67640000D03*
X125120000Y-67640000D03*
X125920000Y-67640000D03*
X126720000Y-67640000D03*
X127520000Y-67640000D03*
X128320000Y-67640000D03*
X129120000Y-67640000D03*
X129920000Y-67640000D03*
D16*
X131295000Y-66265000D03*
X131295000Y-65465000D03*
X131295000Y-64665000D03*
X131295000Y-63865000D03*
X131295000Y-63065000D03*
X131295000Y-62265000D03*
X131295000Y-61465000D03*
X131295000Y-60665000D03*
D15*
X129920000Y-59290000D03*
X129120000Y-59290000D03*
X128320000Y-59290000D03*
X127520000Y-59290000D03*
X126720000Y-59290000D03*
X125920000Y-59290000D03*
X125120000Y-59290000D03*
X124320000Y-59290000D03*
D16*
X122945000Y-60665000D03*
X122945000Y-61465000D03*
X122945000Y-62265000D03*
X122945000Y-63065000D03*
X122945000Y-63865000D03*
X122945000Y-64665000D03*
X122945000Y-65465000D03*
X122945000Y-66265000D03*
%TD*%
D17*
%TO.C,C8*%
X129217500Y-49420000D03*
X132342500Y-49420000D03*
%TD*%
D18*
%TO.C,C7*%
X146952500Y-83240000D03*
X143827500Y-83240000D03*
%TD*%
%TO.C,C4*%
X146952500Y-71536666D03*
X143827500Y-71536666D03*
%TD*%
%TO.C,C3*%
X146952500Y-59833333D03*
X143827500Y-59833333D03*
%TD*%
%TO.C,C2*%
X146952500Y-48130000D03*
X143827500Y-48130000D03*
%TD*%
%TO.C,C1*%
X123982500Y-71080000D03*
X120857500Y-71080000D03*
%TD*%
M02*
