%TF.GenerationSoftware,KiCad,Pcbnew,7.0.11+1*%
%TF.CreationDate,2024-03-31T13:18:14+02:00*%
%TF.ProjectId,ch32v203_thermokoppel,63683332-7632-4303-935f-746865726d6f,rev?*%
%TF.SameCoordinates,Original*%
%TF.FileFunction,Soldermask,Bot*%
%TF.FilePolarity,Negative*%
%FSLAX46Y46*%
G04 Gerber Fmt 4.6, Leading zero omitted, Abs format (unit mm)*
G04 Created by KiCad (PCBNEW 7.0.11+1) date 2024-03-31 13:18:14*
%MOMM*%
%LPD*%
G01*
G04 APERTURE LIST*
G04 Aperture macros list*
%AMRoundRect*
0 Rectangle with rounded corners*
0 $1 Rounding radius*
0 $2 $3 $4 $5 $6 $7 $8 $9 X,Y pos of 4 corners*
0 Add a 4 corners polygon primitive as box body*
4,1,4,$2,$3,$4,$5,$6,$7,$8,$9,$2,$3,0*
0 Add four circle primitives for the rounded corners*
1,1,$1+$1,$2,$3*
1,1,$1+$1,$4,$5*
1,1,$1+$1,$6,$7*
1,1,$1+$1,$8,$9*
0 Add four rect primitives between the rounded corners*
20,1,$1+$1,$2,$3,$4,$5,0*
20,1,$1+$1,$4,$5,$6,$7,0*
20,1,$1+$1,$6,$7,$8,$9,0*
20,1,$1+$1,$8,$9,$2,$3,0*%
G04 Aperture macros list end*
%ADD10C,2.000000*%
%ADD11C,3.200000*%
%ADD12R,2.000000X2.000000*%
%ADD13C,1.800000*%
%ADD14C,1.600000*%
%ADD15O,1.600000X1.600000*%
%ADD16O,3.600000X1.800000*%
%ADD17RoundRect,0.250000X1.550000X-0.650000X1.550000X0.650000X-1.550000X0.650000X-1.550000X-0.650000X0*%
%ADD18C,4.000000*%
%ADD19R,1.600000X1.600000*%
G04 APERTURE END LIST*
D10*
%TO.C,SW3*%
X121100000Y-85100000D03*
X121100000Y-90100000D03*
D11*
X128100000Y-93200000D03*
X128100000Y-82000000D03*
D10*
X135600000Y-87600000D03*
X135600000Y-90100000D03*
D12*
X135600000Y-85100000D03*
%TD*%
D13*
%TO.C,U7*%
X124540000Y-54240000D03*
X127080000Y-54240000D03*
X129620000Y-54240000D03*
X132160000Y-54240000D03*
%TD*%
D10*
%TO.C,SW2*%
X106250000Y-54000000D03*
X99750000Y-54000000D03*
X106250000Y-58500000D03*
X99750000Y-58500000D03*
%TD*%
%TO.C,SW1*%
X106250000Y-81750000D03*
X99750000Y-81750000D03*
X106250000Y-86250000D03*
X99750000Y-86250000D03*
%TD*%
D14*
%TO.C,R2*%
X110000000Y-53990000D03*
D15*
X110000000Y-61610000D03*
%TD*%
%TO.C,R1*%
X110000000Y-87620000D03*
D14*
X110000000Y-80000000D03*
%TD*%
D16*
%TO.C,J5*%
X154090000Y-85272500D03*
D17*
X154090000Y-90352500D03*
%TD*%
%TO.C,J4*%
X154090000Y-78649166D03*
D16*
X154090000Y-73569166D03*
%TD*%
D17*
%TO.C,J3*%
X154090000Y-66945833D03*
D16*
X154090000Y-61865833D03*
%TD*%
D17*
%TO.C,J2*%
X154090000Y-55242500D03*
D16*
X154090000Y-50162500D03*
%TD*%
D18*
%TO.C,J1*%
X100000000Y-64000000D03*
X100000000Y-76000000D03*
D14*
X102860000Y-71250000D03*
X102860000Y-68750000D03*
X104860000Y-68750000D03*
D19*
X104860000Y-71250000D03*
%TD*%
%TO.C,C6*%
X113190000Y-71000000D03*
D14*
X113190000Y-69000000D03*
%TD*%
D19*
%TO.C,C5*%
X113000000Y-77000000D03*
D14*
X113000000Y-75000000D03*
%TD*%
M02*
