M48
; DRILL file {KiCad 7.0.11+1} date Sun Mar 31 13:18:27 2024
; FORMAT={-:-/ absolute / inch / decimal}
; #@! TF.CreationDate,2024-03-31T13:18:27+02:00
; #@! TF.GenerationSoftware,Kicad,Pcbnew,7.0.11+1
; #@! TF.FileFunction,Plated,1,2,PTH
FMAT,2
INCH
; #@! TA.AperFunction,Plated,PTH,ViaDrill
T1C0.0118
; #@! TA.AperFunction,Plated,PTH,ComponentDrill
T2C0.0315
; #@! TA.AperFunction,Plated,PTH,ComponentDrill
T3C0.0374
; #@! TA.AperFunction,Plated,PTH,ComponentDrill
T4C0.0394
; #@! TA.AperFunction,Plated,PTH,ComponentDrill
T5C0.0433
; #@! TA.AperFunction,Plated,PTH,ComponentDrill
T6C0.0472
; #@! TA.AperFunction,Plated,PTH,ComponentDrill
T7C0.0906
; #@! TA.AperFunction,Plated,PTH,ComponentDrill
T8C0.1024
%
G90
G05
T1
X4.0787Y-2.4724
X4.1575Y-3.0276
X4.2362Y-2.6693
X4.2402Y-3.0354
X4.2677Y-2.5118
X4.311Y-2.8465
X4.4291Y-2.3661
X4.4724Y-2.4488
X4.5079Y-2.5472
X4.5079Y-3.1457
X4.5197Y-3.3622
X4.5276Y-2.1772
X4.622Y-2.3031
X4.6693Y-2.4134
X4.7205Y-3.7992
X4.7559Y-2.6732
X4.7638Y-3.1772
X4.7913Y-2.2913
X4.8701Y-2.0236
X4.8701Y-3.685
X4.9173Y-2.4685
X4.9213Y-2.5197
X4.9488Y-2.4449
X4.9843Y-2.2087
X5.0154Y-2.752
X5.0276Y-2.2362
X5.0823Y-2.7559
X5.1063Y-3.4173
X5.122Y-3.0984
X5.1531Y-2.7402
X5.1654Y-2.9528
X5.1929Y-2.2205
X5.2205Y-2.3228
X5.248Y-2.4606
X5.2791Y-2.6969
X5.2835Y-2.9016
X5.2953Y-2.7953
X5.3067Y-2.5906
X5.315Y-2.9764
X5.3268Y-2.6575
X5.3622Y-3.1417
X5.3736Y-2.0433
X5.3819Y-2.5512
X5.4016Y-1.9173
X5.4091Y-2.9409
X5.4248Y-2.4764
X5.4252Y-2.7165
X5.4646Y-3.626
X5.5Y-3.2756
X5.5039Y-2.2835
X5.5079Y-2.7953
X5.5236Y-3.2008
X5.5902Y-2.7402
X5.6024Y-3.7283
X5.6378Y-3.2008
X5.6457Y-2.9291
X5.6535Y-2.2795
X5.6575Y-2.7323
X5.7594Y-3.1969
X5.8189Y-2.7126
X5.8268Y-2.2362
X5.8386Y-3.1732
X6.0039Y-3.7165
X6.0197Y-1.7717
T2
X4.3307Y-2.1256
X4.3307Y-2.4256
X4.3307Y-3.1496
X4.3307Y-3.4496
X4.4488Y-2.9528
X4.4488Y-3.0315
X4.4563Y-2.7165
X4.4563Y-2.7953
T3
X4.0496Y-2.7067
X4.0496Y-2.8051
X4.1283Y-2.7067
X4.1283Y-2.8051
T4
X4.7677Y-3.3504
X4.7677Y-3.5472
X4.9031Y-2.1354
X5.0031Y-2.1354
X5.1031Y-2.1354
X5.2031Y-2.1354
X5.3386Y-3.3504
X5.3386Y-3.4488
X5.3386Y-3.5472
T5
X3.9272Y-2.126
X3.9272Y-2.3031
X3.9272Y-3.2185
X3.9272Y-3.3957
X4.1831Y-2.126
X4.1831Y-2.3031
X4.1831Y-3.2185
X4.1831Y-3.3957
T6
X6.0665Y-1.9749
X6.0665Y-2.1749
X6.0665Y-2.4357
X6.0665Y-2.6357
X6.0665Y-2.8964
X6.0665Y-3.0964
X6.0665Y-3.3572
X6.0665Y-3.5572
T7
X3.937Y-2.5197
X3.937Y-2.9921
T8
X5.0433Y-3.2283
X5.0433Y-3.6693
M30
