%TF.GenerationSoftware,KiCad,Pcbnew,7.0.11+1*%
%TF.CreationDate,2024-03-31T13:17:56+02:00*%
%TF.ProjectId,ch32v203_thermokoppel,63683332-7632-4303-935f-746865726d6f,rev?*%
%TF.SameCoordinates,Original*%
%TF.FileFunction,Copper,L2,Bot*%
%TF.FilePolarity,Positive*%
%FSLAX46Y46*%
G04 Gerber Fmt 4.6, Leading zero omitted, Abs format (unit mm)*
G04 Created by KiCad (PCBNEW 7.0.11+1) date 2024-03-31 13:17:56*
%MOMM*%
%LPD*%
G01*
G04 APERTURE LIST*
G04 Aperture macros list*
%AMRoundRect*
0 Rectangle with rounded corners*
0 $1 Rounding radius*
0 $2 $3 $4 $5 $6 $7 $8 $9 X,Y pos of 4 corners*
0 Add a 4 corners polygon primitive as box body*
4,1,4,$2,$3,$4,$5,$6,$7,$8,$9,$2,$3,0*
0 Add four circle primitives for the rounded corners*
1,1,$1+$1,$2,$3*
1,1,$1+$1,$4,$5*
1,1,$1+$1,$6,$7*
1,1,$1+$1,$8,$9*
0 Add four rect primitives between the rounded corners*
20,1,$1+$1,$2,$3,$4,$5,0*
20,1,$1+$1,$4,$5,$6,$7,0*
20,1,$1+$1,$6,$7,$8,$9,0*
20,1,$1+$1,$8,$9,$2,$3,0*%
G04 Aperture macros list end*
%TA.AperFunction,ComponentPad*%
%ADD10C,2.000000*%
%TD*%
%TA.AperFunction,ComponentPad*%
%ADD11C,3.200000*%
%TD*%
%TA.AperFunction,ComponentPad*%
%ADD12R,2.000000X2.000000*%
%TD*%
%TA.AperFunction,ComponentPad*%
%ADD13C,1.800000*%
%TD*%
%TA.AperFunction,ComponentPad*%
%ADD14C,1.600000*%
%TD*%
%TA.AperFunction,ComponentPad*%
%ADD15O,1.600000X1.600000*%
%TD*%
%TA.AperFunction,ComponentPad*%
%ADD16O,3.600000X1.800000*%
%TD*%
%TA.AperFunction,ComponentPad*%
%ADD17RoundRect,0.250000X1.550000X-0.650000X1.550000X0.650000X-1.550000X0.650000X-1.550000X-0.650000X0*%
%TD*%
%TA.AperFunction,ComponentPad*%
%ADD18C,4.000000*%
%TD*%
%TA.AperFunction,ComponentPad*%
%ADD19R,1.600000X1.600000*%
%TD*%
%TA.AperFunction,ViaPad*%
%ADD20C,0.600000*%
%TD*%
%TA.AperFunction,Conductor*%
%ADD21C,0.200000*%
%TD*%
%TA.AperFunction,Conductor*%
%ADD22C,0.600000*%
%TD*%
G04 APERTURE END LIST*
D10*
%TO.P,SW3,S2,S2*%
%TO.N,rotsw*%
X121100000Y-85100000D03*
%TO.P,SW3,S1,S1*%
%TO.N,GND*%
X121100000Y-90100000D03*
D11*
%TO.P,SW3,MP*%
%TO.N,N/C*%
X128100000Y-93200000D03*
X128100000Y-82000000D03*
D10*
%TO.P,SW3,C,C*%
%TO.N,GND*%
X135600000Y-87600000D03*
%TO.P,SW3,B,B*%
%TO.N,rotb*%
X135600000Y-90100000D03*
D12*
%TO.P,SW3,A,A*%
%TO.N,rotA*%
X135600000Y-85100000D03*
%TD*%
D13*
%TO.P,U7,4,sda*%
%TO.N,sda*%
X124540000Y-54240000D03*
%TO.P,U7,3,scl*%
%TO.N,scl*%
X127080000Y-54240000D03*
%TO.P,U7,2,vcc*%
%TO.N,+3.3V*%
X129620000Y-54240000D03*
%TO.P,U7,1,gnd*%
%TO.N,GND*%
X132160000Y-54240000D03*
%TD*%
D10*
%TO.P,SW2,1,1*%
%TO.N,boot*%
X106250000Y-54000000D03*
X99750000Y-54000000D03*
%TO.P,SW2,2,2*%
%TO.N,+3.3V*%
X106250000Y-58500000D03*
X99750000Y-58500000D03*
%TD*%
%TO.P,SW1,1,1*%
%TO.N,rst*%
X106250000Y-81750000D03*
X99750000Y-81750000D03*
%TO.P,SW1,2,2*%
%TO.N,GND*%
X106250000Y-86250000D03*
X99750000Y-86250000D03*
%TD*%
D14*
%TO.P,R2,1*%
%TO.N,boot*%
X110000000Y-53990000D03*
D15*
%TO.P,R2,2*%
%TO.N,GND*%
X110000000Y-61610000D03*
%TD*%
%TO.P,R1,2*%
%TO.N,+3.3V*%
X110000000Y-87620000D03*
D14*
%TO.P,R1,1*%
%TO.N,rst*%
X110000000Y-80000000D03*
%TD*%
D16*
%TO.P,J5,2,Pin_2*%
%TO.N,Net-(J5-Pin_2)*%
X154090000Y-85272500D03*
D17*
%TO.P,J5,1,Pin_1*%
%TO.N,GND*%
X154090000Y-90352500D03*
%TD*%
%TO.P,J4,1,Pin_1*%
%TO.N,GND*%
X154090000Y-78649166D03*
D16*
%TO.P,J4,2,Pin_2*%
%TO.N,Net-(J4-Pin_2)*%
X154090000Y-73569166D03*
%TD*%
D17*
%TO.P,J3,1,Pin_1*%
%TO.N,GND*%
X154090000Y-66945833D03*
D16*
%TO.P,J3,2,Pin_2*%
%TO.N,Net-(J3-Pin_2)*%
X154090000Y-61865833D03*
%TD*%
D17*
%TO.P,J2,1,Pin_1*%
%TO.N,GND*%
X154090000Y-55242500D03*
D16*
%TO.P,J2,2,Pin_2*%
%TO.N,Net-(J2-Pin_2)*%
X154090000Y-50162500D03*
%TD*%
D18*
%TO.P,J1,5,Shield*%
%TO.N,GND*%
X100000000Y-64000000D03*
X100000000Y-76000000D03*
D14*
%TO.P,J1,4,GND*%
X102860000Y-71250000D03*
%TO.P,J1,3,D+*%
%TO.N,usbp*%
X102860000Y-68750000D03*
%TO.P,J1,2,D-*%
%TO.N,usbm*%
X104860000Y-68750000D03*
D19*
%TO.P,J1,1,VBUS*%
%TO.N,+5V*%
X104860000Y-71250000D03*
%TD*%
%TO.P,C6,1*%
%TO.N,+3.3V*%
X113190000Y-71000000D03*
D14*
%TO.P,C6,2*%
%TO.N,GND*%
X113190000Y-69000000D03*
%TD*%
D19*
%TO.P,C5,1*%
%TO.N,+5V*%
X113000000Y-77000000D03*
D14*
%TO.P,C5,2*%
%TO.N,GND*%
X113000000Y-75000000D03*
%TD*%
D20*
%TO.N,GND*%
X121700000Y-58200000D03*
X132600000Y-59000000D03*
X131900000Y-56400000D03*
X143700000Y-69400000D03*
X143600000Y-57900000D03*
X130100000Y-78700000D03*
X107600000Y-67800000D03*
X117400000Y-58500000D03*
X107700000Y-77100000D03*
X152900000Y-45000000D03*
X134200000Y-73700000D03*
X137800000Y-69000000D03*
X148000000Y-56800000D03*
X103600000Y-62800000D03*
X108400000Y-63800000D03*
X113600000Y-62200000D03*
X123700000Y-51400000D03*
X118600000Y-61300000D03*
X120800000Y-67900000D03*
X121000000Y-80700000D03*
X114500000Y-79900000D03*
X114800000Y-85400000D03*
X136200000Y-79800000D03*
X140300000Y-81300000D03*
X143400000Y-74400000D03*
X135000000Y-75600000D03*
X134500000Y-71000000D03*
X139900000Y-71000000D03*
X135300000Y-67500000D03*
X136700000Y-64800000D03*
X133300000Y-62500000D03*
X139800000Y-58000000D03*
X137200000Y-48700000D03*
X119900000Y-96500000D03*
X123700000Y-93600000D03*
X142300000Y-94700000D03*
X138800000Y-92100000D03*
X147800000Y-68900000D03*
X143200000Y-81300000D03*
X148300000Y-80600000D03*
X152500000Y-94400000D03*
X115000000Y-55300000D03*
X112500000Y-60100000D03*
X114500000Y-64700000D03*
X109500000Y-72300000D03*
X105600000Y-76900000D03*
X129700000Y-86800000D03*
X131200000Y-75000000D03*
%TO.N,rotsw*%
X125000000Y-64000000D03*
%TO.N,rotb*%
X124900000Y-62700000D03*
%TO.N,rotA*%
X125700000Y-62100000D03*
%TO.N,usbp*%
X126600000Y-56100000D03*
%TO.N,usbm*%
X127700000Y-56800000D03*
%TO.N,cs1*%
X136490000Y-51900000D03*
%TO.N,cs2*%
X137790000Y-62900000D03*
%TO.N,cs3*%
X137390000Y-74700000D03*
%TO.N,cs4*%
X139700000Y-83200000D03*
%TO.N,cs1*%
X127390000Y-69900000D03*
%TO.N,cs2*%
X129090000Y-70000000D03*
%TO.N,cs4*%
X134090000Y-68500000D03*
%TO.N,cs3*%
X130890000Y-69600000D03*
%TO.N,sck*%
X141990000Y-69600000D03*
X134790000Y-65800000D03*
%TO.N,+3.3V*%
X146290000Y-81200000D03*
%TD*%
D21*
%TO.N,rotb*%
X135600000Y-90100000D02*
X134600000Y-90100000D01*
X125800000Y-63500000D02*
X125000000Y-62700000D01*
X134600000Y-90100000D02*
X132500000Y-88000000D01*
X132500000Y-88000000D02*
X132500000Y-82600000D01*
X125800000Y-75900000D02*
X125800000Y-63500000D01*
X132500000Y-82600000D02*
X125800000Y-75900000D01*
%TO.N,rotA*%
X135600000Y-85100000D02*
X135600000Y-82300000D01*
X135600000Y-82300000D02*
X126700000Y-73400000D01*
X126700000Y-73400000D02*
X126700000Y-63200000D01*
X126700000Y-63200000D02*
X125700000Y-62200000D01*
%TO.N,usbm*%
X104860000Y-68750000D02*
X108450000Y-68750000D01*
X108450000Y-68750000D02*
X120400000Y-56800000D01*
X120400000Y-56800000D02*
X127700000Y-56800000D01*
D22*
%TO.N,+3.3V*%
X117190000Y-87500000D02*
X117190000Y-90190000D01*
X122300000Y-95300000D02*
X123200000Y-95300000D01*
X117190000Y-90190000D02*
X122300000Y-95300000D01*
X123200000Y-95300000D02*
X123700000Y-95800000D01*
X123700000Y-95800000D02*
X138200000Y-95800000D01*
X138200000Y-95800000D02*
X146290000Y-87710000D01*
X146290000Y-87710000D02*
X146290000Y-81200000D01*
D21*
%TO.N,rotsw*%
X125000000Y-64000000D02*
X125100000Y-64000000D01*
%TO.N,rotb*%
X124900000Y-62600000D02*
X125000000Y-62700000D01*
X124900000Y-62700000D02*
X124900000Y-62600000D01*
X125000000Y-62700000D02*
X124900000Y-62700000D01*
%TO.N,rotA*%
X125600000Y-62100000D02*
X125700000Y-62200000D01*
X125700000Y-62100000D02*
X125600000Y-62100000D01*
X125700000Y-62200000D02*
X125700000Y-62100000D01*
%TO.N,rotsw*%
X125100000Y-81100000D02*
X125000000Y-64000000D01*
X121100000Y-85100000D02*
X125100000Y-81100000D01*
%TO.N,cs4*%
X138190000Y-81690000D02*
X138190000Y-72600000D01*
X139700000Y-83200000D02*
X138190000Y-81690000D01*
X138190000Y-72600000D02*
X134090000Y-68500000D01*
D22*
%TO.N,+3.3V*%
X117190000Y-73190000D02*
X117190000Y-87500000D01*
D21*
X110000000Y-87620000D02*
X117070000Y-87620000D01*
X117070000Y-87620000D02*
X117190000Y-87500000D01*
%TO.N,usbp*%
X126600000Y-56100000D02*
X126400000Y-56100000D01*
%TO.N,usbm*%
X127700000Y-56800000D02*
X127600000Y-56800000D01*
%TO.N,usbp*%
X102860000Y-68750000D02*
X104710000Y-66900000D01*
X107700000Y-66900000D02*
X118500000Y-56100000D01*
X104710000Y-66900000D02*
X107700000Y-66900000D01*
X118500000Y-56100000D02*
X126600000Y-56100000D01*
D22*
%TO.N,+3.3V*%
X113190000Y-71000000D02*
X115000000Y-71000000D01*
X115000000Y-71000000D02*
X117190000Y-73190000D01*
D21*
%TO.N,cs2*%
X137790000Y-62900000D02*
X137690000Y-62900000D01*
%TO.N,cs3*%
X137490000Y-74700000D02*
X137390000Y-74600000D01*
X137390000Y-74700000D02*
X137490000Y-74700000D01*
X137390000Y-74600000D02*
X137390000Y-74700000D01*
X130890000Y-69600000D02*
X133390000Y-72100000D01*
X133390000Y-72100000D02*
X134890000Y-72100000D01*
X134890000Y-72100000D02*
X137390000Y-74600000D01*
%TO.N,cs2*%
X136190000Y-62900000D02*
X137790000Y-62900000D01*
X129090000Y-70000000D02*
X136190000Y-62900000D01*
%TO.N,cs1*%
X136490000Y-60800000D02*
X136490000Y-51900000D01*
X127390000Y-69900000D02*
X136490000Y-60800000D01*
%TO.N,sck*%
X134790000Y-65800000D02*
X138190000Y-65800000D01*
X138190000Y-65800000D02*
X141990000Y-69600000D01*
%TD*%
%TA.AperFunction,Conductor*%
%TO.N,GND*%
G36*
X126605703Y-74155384D02*
G01*
X126612181Y-74161416D01*
X134963181Y-82512416D01*
X134996666Y-82573739D01*
X134999500Y-82600097D01*
X134999500Y-82852879D01*
X134979815Y-82919918D01*
X134967669Y-82935830D01*
X134231682Y-83753596D01*
X134205666Y-83784958D01*
X134205663Y-83784961D01*
X134195096Y-83803880D01*
X134186109Y-83817718D01*
X134156205Y-83857665D01*
X134156202Y-83857670D01*
X134141718Y-83896504D01*
X134137127Y-83906444D01*
X134137383Y-83906564D01*
X134135510Y-83910562D01*
X134132507Y-83918384D01*
X134132497Y-83918414D01*
X134130747Y-83924666D01*
X134127522Y-83934566D01*
X134105908Y-83992517D01*
X134100162Y-84045971D01*
X134099501Y-84052123D01*
X134099500Y-84052135D01*
X134099500Y-86147870D01*
X134099501Y-86147876D01*
X134105908Y-86207483D01*
X134156202Y-86342328D01*
X134156206Y-86342335D01*
X134242452Y-86457544D01*
X134242455Y-86457547D01*
X134358986Y-86544783D01*
X134400857Y-86600717D01*
X134405841Y-86670408D01*
X134388484Y-86711870D01*
X134276267Y-86883631D01*
X134176412Y-87111282D01*
X134115387Y-87352261D01*
X134115385Y-87352270D01*
X134094859Y-87599994D01*
X134094859Y-87600005D01*
X134115385Y-87847729D01*
X134115387Y-87847738D01*
X134176412Y-88088717D01*
X134276267Y-88316367D01*
X134412232Y-88524478D01*
X134436714Y-88551072D01*
X134467637Y-88613726D01*
X134459777Y-88683152D01*
X134415630Y-88737308D01*
X134362168Y-88757928D01*
X134198550Y-88780143D01*
X134129472Y-88769656D01*
X134094186Y-88744951D01*
X133136819Y-87787583D01*
X133103334Y-87726260D01*
X133100500Y-87699902D01*
X133100500Y-82647487D01*
X133101561Y-82631301D01*
X133105682Y-82600000D01*
X133105682Y-82599998D01*
X133088173Y-82467005D01*
X133085044Y-82443238D01*
X133025713Y-82300000D01*
X133024538Y-82297163D01*
X133024535Y-82297157D01*
X132983578Y-82243782D01*
X132983576Y-82243780D01*
X132928282Y-82171718D01*
X132903228Y-82152493D01*
X132891034Y-82141799D01*
X126436819Y-75687584D01*
X126403334Y-75626261D01*
X126400500Y-75599903D01*
X126400500Y-74249097D01*
X126420185Y-74182058D01*
X126472989Y-74136303D01*
X126542147Y-74126359D01*
X126605703Y-74155384D01*
G37*
%TD.AperFunction*%
%TA.AperFunction,Conductor*%
G36*
X119417942Y-56720185D02*
G01*
X119463697Y-56772989D01*
X119473641Y-56842147D01*
X119444616Y-56905703D01*
X119438584Y-56912181D01*
X108237584Y-68113181D01*
X108176261Y-68146666D01*
X108149903Y-68149500D01*
X106617119Y-68149500D01*
X106562203Y-68136677D01*
X106280922Y-67997737D01*
X105750385Y-67735676D01*
X105698997Y-67688338D01*
X105681359Y-67620731D01*
X105703072Y-67554321D01*
X105757243Y-67510192D01*
X105805302Y-67500500D01*
X107652513Y-67500500D01*
X107668697Y-67501560D01*
X107700000Y-67505682D01*
X107700001Y-67505682D01*
X107752254Y-67498802D01*
X107856762Y-67485044D01*
X108002841Y-67424536D01*
X108128282Y-67328282D01*
X108147510Y-67303222D01*
X108158189Y-67291044D01*
X118712417Y-56736819D01*
X118773740Y-56703334D01*
X118800098Y-56700500D01*
X119350903Y-56700500D01*
X119417942Y-56720185D01*
G37*
%TD.AperFunction*%
%TA.AperFunction,Conductor*%
G36*
X163943039Y-41019685D02*
G01*
X163988794Y-41072489D01*
X164000000Y-41124000D01*
X164000000Y-98876000D01*
X163980315Y-98943039D01*
X163927511Y-98988794D01*
X163876000Y-99000000D01*
X96124000Y-99000000D01*
X96056961Y-98980315D01*
X96011206Y-98927511D01*
X96000000Y-98876000D01*
X96000000Y-95000007D01*
X97744671Y-95000007D01*
X97763964Y-95294363D01*
X97763965Y-95294373D01*
X97763966Y-95294380D01*
X97763968Y-95294390D01*
X97821518Y-95583716D01*
X97821521Y-95583730D01*
X97916349Y-95863080D01*
X98046825Y-96127660D01*
X98046829Y-96127667D01*
X98210725Y-96372955D01*
X98405241Y-96594758D01*
X98627043Y-96789273D01*
X98872335Y-96953172D01*
X99136923Y-97083652D01*
X99416278Y-97178481D01*
X99705620Y-97236034D01*
X99733888Y-97237886D01*
X99999993Y-97255329D01*
X100000000Y-97255329D01*
X100000007Y-97255329D01*
X100235675Y-97239881D01*
X100294380Y-97236034D01*
X100583722Y-97178481D01*
X100863077Y-97083652D01*
X101127665Y-96953172D01*
X101372957Y-96789273D01*
X101594758Y-96594758D01*
X101789273Y-96372957D01*
X101953172Y-96127665D01*
X102083652Y-95863077D01*
X102178481Y-95583722D01*
X102236034Y-95294380D01*
X102255329Y-95000000D01*
X102255329Y-94999992D01*
X102236035Y-94705636D01*
X102236034Y-94705620D01*
X102178481Y-94416278D01*
X102083652Y-94136923D01*
X101953172Y-93872336D01*
X101789273Y-93627043D01*
X101666183Y-93486686D01*
X101594758Y-93405241D01*
X101372955Y-93210725D01*
X101127667Y-93046829D01*
X101127660Y-93046825D01*
X100863080Y-92916349D01*
X100583730Y-92821521D01*
X100583724Y-92821519D01*
X100583722Y-92821519D01*
X100294380Y-92763966D01*
X100294373Y-92763965D01*
X100294363Y-92763964D01*
X100000007Y-92744671D01*
X99999993Y-92744671D01*
X99705636Y-92763964D01*
X99705624Y-92763965D01*
X99705620Y-92763966D01*
X99705612Y-92763967D01*
X99705609Y-92763968D01*
X99416283Y-92821518D01*
X99416269Y-92821521D01*
X99136919Y-92916349D01*
X98872334Y-93046828D01*
X98627041Y-93210728D01*
X98405241Y-93405241D01*
X98210728Y-93627041D01*
X98046828Y-93872334D01*
X97916349Y-94136919D01*
X97821521Y-94416269D01*
X97821518Y-94416283D01*
X97763968Y-94705609D01*
X97763964Y-94705636D01*
X97744671Y-94999992D01*
X97744671Y-95000007D01*
X96000000Y-95000007D01*
X96000000Y-86250005D01*
X98244859Y-86250005D01*
X98265385Y-86497729D01*
X98265387Y-86497738D01*
X98326412Y-86738717D01*
X98426266Y-86966364D01*
X98526564Y-87119882D01*
X99224070Y-86422376D01*
X99226884Y-86435915D01*
X99296442Y-86570156D01*
X99399638Y-86680652D01*
X99528819Y-86759209D01*
X99580002Y-86773549D01*
X98879942Y-87473609D01*
X98926768Y-87510055D01*
X98926770Y-87510056D01*
X99145385Y-87628364D01*
X99145396Y-87628369D01*
X99380506Y-87709083D01*
X99625707Y-87750000D01*
X99874293Y-87750000D01*
X100119493Y-87709083D01*
X100354603Y-87628369D01*
X100354614Y-87628364D01*
X100573228Y-87510057D01*
X100573231Y-87510055D01*
X100620056Y-87473609D01*
X99921568Y-86775121D01*
X100038458Y-86724349D01*
X100155739Y-86628934D01*
X100242928Y-86505415D01*
X100273354Y-86419802D01*
X100973434Y-87119882D01*
X101073731Y-86966369D01*
X101173587Y-86738717D01*
X101234612Y-86497738D01*
X101234614Y-86497729D01*
X101255141Y-86250005D01*
X104744859Y-86250005D01*
X104765385Y-86497729D01*
X104765387Y-86497738D01*
X104826412Y-86738717D01*
X104926266Y-86966364D01*
X105026564Y-87119882D01*
X105724070Y-86422376D01*
X105726884Y-86435915D01*
X105796442Y-86570156D01*
X105899638Y-86680652D01*
X106028819Y-86759209D01*
X106080002Y-86773549D01*
X105379942Y-87473609D01*
X105426768Y-87510055D01*
X105426770Y-87510056D01*
X105645385Y-87628364D01*
X105645396Y-87628369D01*
X105880506Y-87709083D01*
X106125707Y-87750000D01*
X106374293Y-87750000D01*
X106619493Y-87709083D01*
X106854603Y-87628369D01*
X106854614Y-87628364D01*
X106870068Y-87620001D01*
X108694532Y-87620001D01*
X108714364Y-87846686D01*
X108714366Y-87846697D01*
X108773258Y-88066488D01*
X108773261Y-88066497D01*
X108869431Y-88272732D01*
X108869432Y-88272734D01*
X108999954Y-88459141D01*
X109160858Y-88620045D01*
X109160861Y-88620047D01*
X109347266Y-88750568D01*
X109553504Y-88846739D01*
X109773308Y-88905635D01*
X109935230Y-88919801D01*
X109999998Y-88925468D01*
X110000000Y-88925468D01*
X110000002Y-88925468D01*
X110056673Y-88920509D01*
X110226692Y-88905635D01*
X110446496Y-88846739D01*
X110504126Y-88819864D01*
X110517965Y-88814398D01*
X110541213Y-88806798D01*
X111702201Y-88233322D01*
X111757117Y-88220500D01*
X116265500Y-88220500D01*
X116332539Y-88240185D01*
X116378294Y-88292989D01*
X116389500Y-88344500D01*
X116389500Y-90280191D01*
X116389501Y-90280200D01*
X116398017Y-90317518D01*
X116400345Y-90331217D01*
X116404633Y-90369260D01*
X116417271Y-90405380D01*
X116421119Y-90418735D01*
X116429639Y-90456061D01*
X116446250Y-90490554D01*
X116451570Y-90503397D01*
X116464212Y-90539525D01*
X116484572Y-90571927D01*
X116491296Y-90584093D01*
X116507910Y-90618589D01*
X116531771Y-90648510D01*
X116539817Y-90659849D01*
X116560184Y-90692262D01*
X116592174Y-90724252D01*
X121670184Y-95802262D01*
X121797738Y-95929816D01*
X121830148Y-95950180D01*
X121841479Y-95958219D01*
X121871413Y-95982091D01*
X121905905Y-95998701D01*
X121918057Y-96005417D01*
X121950478Y-96025789D01*
X121986613Y-96038433D01*
X121999458Y-96043754D01*
X122012784Y-96050171D01*
X122033936Y-96060358D01*
X122033937Y-96060358D01*
X122033939Y-96060359D01*
X122071255Y-96068876D01*
X122084606Y-96072722D01*
X122120745Y-96085368D01*
X122158797Y-96089655D01*
X122172475Y-96091979D01*
X122209805Y-96100500D01*
X122255046Y-96100500D01*
X122817060Y-96100500D01*
X122884099Y-96120185D01*
X122904741Y-96136819D01*
X123197739Y-96429817D01*
X123197742Y-96429819D01*
X123230143Y-96450178D01*
X123241483Y-96458224D01*
X123270947Y-96481720D01*
X123271414Y-96482092D01*
X123305895Y-96498697D01*
X123305899Y-96498699D01*
X123318067Y-96505425D01*
X123350470Y-96525785D01*
X123350473Y-96525786D01*
X123350478Y-96525789D01*
X123386613Y-96538433D01*
X123399442Y-96543748D01*
X123433939Y-96560360D01*
X123471249Y-96568876D01*
X123484612Y-96572725D01*
X123520742Y-96585367D01*
X123520745Y-96585368D01*
X123558790Y-96589654D01*
X123572479Y-96591980D01*
X123609806Y-96600500D01*
X123609808Y-96600500D01*
X138290194Y-96600500D01*
X138327517Y-96591981D01*
X138341211Y-96589654D01*
X138379255Y-96585368D01*
X138415392Y-96572722D01*
X138428726Y-96568881D01*
X138466061Y-96560360D01*
X138500561Y-96543745D01*
X138513398Y-96538429D01*
X138549519Y-96525790D01*
X138549518Y-96525790D01*
X138549522Y-96525789D01*
X138581939Y-96505419D01*
X138594103Y-96498697D01*
X138628587Y-96482091D01*
X138658515Y-96458222D01*
X138669847Y-96450182D01*
X138702262Y-96429816D01*
X138829816Y-96302262D01*
X140132071Y-95000007D01*
X157744671Y-95000007D01*
X157763964Y-95294363D01*
X157763965Y-95294373D01*
X157763966Y-95294380D01*
X157763968Y-95294390D01*
X157821518Y-95583716D01*
X157821521Y-95583730D01*
X157916349Y-95863080D01*
X158046825Y-96127660D01*
X158046829Y-96127667D01*
X158210725Y-96372955D01*
X158405241Y-96594758D01*
X158627043Y-96789273D01*
X158872335Y-96953172D01*
X159136923Y-97083652D01*
X159416278Y-97178481D01*
X159705620Y-97236034D01*
X159733888Y-97237886D01*
X159999993Y-97255329D01*
X160000000Y-97255329D01*
X160000007Y-97255329D01*
X160235675Y-97239881D01*
X160294380Y-97236034D01*
X160583722Y-97178481D01*
X160863077Y-97083652D01*
X161127665Y-96953172D01*
X161372957Y-96789273D01*
X161594758Y-96594758D01*
X161789273Y-96372957D01*
X161953172Y-96127665D01*
X162083652Y-95863077D01*
X162178481Y-95583722D01*
X162236034Y-95294380D01*
X162255329Y-95000000D01*
X162255329Y-94999992D01*
X162236035Y-94705636D01*
X162236034Y-94705620D01*
X162178481Y-94416278D01*
X162083652Y-94136923D01*
X161953172Y-93872336D01*
X161789273Y-93627043D01*
X161666183Y-93486686D01*
X161594758Y-93405241D01*
X161372955Y-93210725D01*
X161127667Y-93046829D01*
X161127660Y-93046825D01*
X160863080Y-92916349D01*
X160583730Y-92821521D01*
X160583724Y-92821519D01*
X160583722Y-92821519D01*
X160294380Y-92763966D01*
X160294373Y-92763965D01*
X160294363Y-92763964D01*
X160000007Y-92744671D01*
X159999993Y-92744671D01*
X159705636Y-92763964D01*
X159705624Y-92763965D01*
X159705620Y-92763966D01*
X159705612Y-92763967D01*
X159705609Y-92763968D01*
X159416283Y-92821518D01*
X159416269Y-92821521D01*
X159136919Y-92916349D01*
X158872334Y-93046828D01*
X158627041Y-93210728D01*
X158405241Y-93405241D01*
X158210728Y-93627041D01*
X158046828Y-93872334D01*
X157916349Y-94136919D01*
X157821521Y-94416269D01*
X157821518Y-94416283D01*
X157763968Y-94705609D01*
X157763964Y-94705636D01*
X157744671Y-94999992D01*
X157744671Y-95000007D01*
X140132071Y-95000007D01*
X145029578Y-90102500D01*
X151790000Y-90102500D01*
X153544118Y-90102500D01*
X153505444Y-90195869D01*
X153484823Y-90352500D01*
X153505444Y-90509131D01*
X153544118Y-90602500D01*
X151790001Y-90602500D01*
X151790001Y-91052486D01*
X151800494Y-91155197D01*
X151855641Y-91321619D01*
X151855643Y-91321624D01*
X151947684Y-91470845D01*
X152071654Y-91594815D01*
X152220875Y-91686856D01*
X152220880Y-91686858D01*
X152387302Y-91742005D01*
X152387309Y-91742006D01*
X152490019Y-91752499D01*
X153839999Y-91752499D01*
X153840000Y-91752498D01*
X153840000Y-90898381D01*
X153933369Y-90937056D01*
X154050677Y-90952500D01*
X154129323Y-90952500D01*
X154246631Y-90937056D01*
X154340000Y-90898381D01*
X154340000Y-91752499D01*
X155689972Y-91752499D01*
X155689986Y-91752498D01*
X155792697Y-91742005D01*
X155959119Y-91686858D01*
X155959124Y-91686856D01*
X156108345Y-91594815D01*
X156232315Y-91470845D01*
X156324356Y-91321624D01*
X156324358Y-91321619D01*
X156379505Y-91155197D01*
X156379506Y-91155190D01*
X156389999Y-91052486D01*
X156390000Y-91052473D01*
X156390000Y-90602500D01*
X154635882Y-90602500D01*
X154674556Y-90509131D01*
X154695177Y-90352500D01*
X154674556Y-90195869D01*
X154635882Y-90102500D01*
X156389999Y-90102500D01*
X156389999Y-89652528D01*
X156389998Y-89652513D01*
X156379505Y-89549802D01*
X156324358Y-89383380D01*
X156324356Y-89383375D01*
X156232315Y-89234154D01*
X156108345Y-89110184D01*
X155959124Y-89018143D01*
X155959119Y-89018141D01*
X155792697Y-88962994D01*
X155792690Y-88962993D01*
X155689986Y-88952500D01*
X154340000Y-88952500D01*
X154340000Y-89806618D01*
X154246631Y-89767944D01*
X154129323Y-89752500D01*
X154050677Y-89752500D01*
X153933369Y-89767944D01*
X153840000Y-89806618D01*
X153840000Y-88952500D01*
X152490028Y-88952500D01*
X152490012Y-88952501D01*
X152387302Y-88962994D01*
X152220880Y-89018141D01*
X152220875Y-89018143D01*
X152071654Y-89110184D01*
X151947684Y-89234154D01*
X151855643Y-89383375D01*
X151855641Y-89383380D01*
X151800494Y-89549802D01*
X151800493Y-89549809D01*
X151790000Y-89652513D01*
X151790000Y-90102500D01*
X145029578Y-90102500D01*
X146887826Y-88244252D01*
X146919816Y-88212262D01*
X146940180Y-88179851D01*
X146948215Y-88168525D01*
X146972092Y-88138586D01*
X146988705Y-88104086D01*
X146995423Y-88091931D01*
X147015789Y-88059522D01*
X147028432Y-88023391D01*
X147033747Y-88010556D01*
X147050360Y-87976061D01*
X147058881Y-87938726D01*
X147062722Y-87925392D01*
X147075368Y-87889255D01*
X147079654Y-87851211D01*
X147081982Y-87837512D01*
X147088297Y-87809844D01*
X147090500Y-87800194D01*
X147090500Y-87619806D01*
X147090500Y-85212846D01*
X151785702Y-85212846D01*
X151795819Y-85451028D01*
X151795819Y-85451032D01*
X151846045Y-85684080D01*
X151934935Y-85905288D01*
X151934936Y-85905290D01*
X152059931Y-86108295D01*
X152094763Y-86147872D01*
X152184646Y-86249999D01*
X152217436Y-86287255D01*
X152402920Y-86437023D01*
X152611046Y-86553290D01*
X152799723Y-86619954D01*
X152835829Y-86632711D01*
X153070790Y-86672999D01*
X153070798Y-86672999D01*
X153070800Y-86673000D01*
X153070801Y-86673000D01*
X155049496Y-86673000D01*
X155049497Y-86673000D01*
X155049498Y-86672999D01*
X155049515Y-86672999D01*
X155227536Y-86657847D01*
X155227539Y-86657846D01*
X155227541Y-86657846D01*
X155458249Y-86597775D01*
X155590973Y-86537779D01*
X155675480Y-86499580D01*
X155675481Y-86499578D01*
X155675486Y-86499577D01*
X155873003Y-86366079D01*
X156045118Y-86201121D01*
X156186879Y-86009447D01*
X156294207Y-85796574D01*
X156364016Y-85568623D01*
X156394298Y-85332154D01*
X156384180Y-85093968D01*
X156369615Y-85026388D01*
X156333954Y-84860919D01*
X156305824Y-84790916D01*
X156245064Y-84639710D01*
X156120069Y-84436705D01*
X155962564Y-84257745D01*
X155777080Y-84107977D01*
X155615419Y-84017667D01*
X155568955Y-83991710D01*
X155344170Y-83912288D01*
X155109209Y-83872000D01*
X155109200Y-83872000D01*
X153130503Y-83872000D01*
X153130484Y-83872000D01*
X152952463Y-83887152D01*
X152721751Y-83947224D01*
X152504519Y-84045419D01*
X152504511Y-84045424D01*
X152307006Y-84178913D01*
X152306997Y-84178921D01*
X152134881Y-84343879D01*
X151993123Y-84535550D01*
X151993120Y-84535554D01*
X151885796Y-84748420D01*
X151885793Y-84748426D01*
X151815983Y-84976378D01*
X151785702Y-85212846D01*
X147090500Y-85212846D01*
X147090500Y-81251914D01*
X147091280Y-81238029D01*
X147095565Y-81200001D01*
X147095565Y-81199996D01*
X147075369Y-81020750D01*
X147075368Y-81020745D01*
X147029387Y-80889340D01*
X147015789Y-80850478D01*
X147008665Y-80839141D01*
X146976582Y-80788080D01*
X146919816Y-80697738D01*
X146792262Y-80570184D01*
X146663896Y-80489526D01*
X146639523Y-80474211D01*
X146469254Y-80414631D01*
X146469249Y-80414630D01*
X146290004Y-80394435D01*
X146289996Y-80394435D01*
X146110750Y-80414630D01*
X146110745Y-80414631D01*
X145940476Y-80474211D01*
X145787737Y-80570184D01*
X145660184Y-80697737D01*
X145564211Y-80850476D01*
X145504631Y-81020745D01*
X145504630Y-81020750D01*
X145484435Y-81199996D01*
X145484435Y-81200001D01*
X145488720Y-81238029D01*
X145489500Y-81251914D01*
X145489500Y-87327060D01*
X145469815Y-87394099D01*
X145453181Y-87414741D01*
X137904741Y-94963181D01*
X137843418Y-94996666D01*
X137817060Y-94999500D01*
X129565399Y-94999500D01*
X129498360Y-94979815D01*
X129452605Y-94927011D01*
X129442661Y-94857853D01*
X129471686Y-94794297D01*
X129487138Y-94779316D01*
X129537053Y-94738708D01*
X129733189Y-94528698D01*
X129898901Y-94293936D01*
X130031104Y-94038797D01*
X130127334Y-93768032D01*
X130185798Y-93486686D01*
X130205408Y-93200000D01*
X130185798Y-92913314D01*
X130127334Y-92631968D01*
X130031105Y-92361206D01*
X130031106Y-92361206D01*
X129898901Y-92106064D01*
X129733187Y-91871299D01*
X129654554Y-91787105D01*
X129537053Y-91661292D01*
X129314147Y-91479945D01*
X129314146Y-91479944D01*
X129068617Y-91330634D01*
X128805063Y-91216158D01*
X128805061Y-91216157D01*
X128805058Y-91216156D01*
X128642665Y-91170656D01*
X128528364Y-91138630D01*
X128528359Y-91138629D01*
X128528358Y-91138629D01*
X128334221Y-91111945D01*
X128243679Y-91099500D01*
X128243678Y-91099500D01*
X127956322Y-91099500D01*
X127956321Y-91099500D01*
X127671642Y-91138629D01*
X127671635Y-91138630D01*
X127463861Y-91196845D01*
X127394942Y-91216156D01*
X127394939Y-91216156D01*
X127394936Y-91216158D01*
X127394935Y-91216158D01*
X127131382Y-91330634D01*
X126885853Y-91479944D01*
X126662950Y-91661289D01*
X126466812Y-91871299D01*
X126301098Y-92106064D01*
X126168894Y-92361206D01*
X126072667Y-92631962D01*
X126072666Y-92631965D01*
X126014201Y-92913319D01*
X125994592Y-93200000D01*
X126014201Y-93486680D01*
X126072666Y-93768034D01*
X126072667Y-93768037D01*
X126168894Y-94038793D01*
X126168893Y-94038793D01*
X126301098Y-94293935D01*
X126466812Y-94528700D01*
X126509317Y-94574211D01*
X126662947Y-94738708D01*
X126712857Y-94779312D01*
X126752436Y-94836889D01*
X126754605Y-94906725D01*
X126718674Y-94966647D01*
X126656050Y-94997631D01*
X126634601Y-94999500D01*
X124082940Y-94999500D01*
X124015901Y-94979815D01*
X123995259Y-94963181D01*
X123702262Y-94670184D01*
X123702259Y-94670182D01*
X123669849Y-94649817D01*
X123658510Y-94641771D01*
X123628589Y-94617910D01*
X123594093Y-94601296D01*
X123581927Y-94594572D01*
X123549524Y-94574212D01*
X123549525Y-94574212D01*
X123542652Y-94571807D01*
X123513393Y-94561568D01*
X123500554Y-94556250D01*
X123466061Y-94539639D01*
X123428735Y-94531119D01*
X123415380Y-94527271D01*
X123379260Y-94514633D01*
X123379256Y-94514632D01*
X123379255Y-94514632D01*
X123361139Y-94512590D01*
X123341217Y-94510345D01*
X123327518Y-94508017D01*
X123290200Y-94499501D01*
X123290196Y-94499500D01*
X123290194Y-94499500D01*
X123290191Y-94499500D01*
X122682940Y-94499500D01*
X122615901Y-94479815D01*
X122595259Y-94463181D01*
X118232083Y-90100005D01*
X119594859Y-90100005D01*
X119615385Y-90347729D01*
X119615387Y-90347738D01*
X119676412Y-90588717D01*
X119776266Y-90816364D01*
X119876564Y-90969882D01*
X120616923Y-90229523D01*
X120640507Y-90309844D01*
X120718239Y-90430798D01*
X120826900Y-90524952D01*
X120957685Y-90584680D01*
X120967466Y-90586086D01*
X120229942Y-91323609D01*
X120276768Y-91360055D01*
X120276770Y-91360056D01*
X120495385Y-91478364D01*
X120495396Y-91478369D01*
X120730506Y-91559083D01*
X120975707Y-91600000D01*
X121224293Y-91600000D01*
X121469493Y-91559083D01*
X121704603Y-91478369D01*
X121704614Y-91478364D01*
X121923228Y-91360057D01*
X121923231Y-91360055D01*
X121970056Y-91323609D01*
X121232533Y-90586086D01*
X121242315Y-90584680D01*
X121373100Y-90524952D01*
X121481761Y-90430798D01*
X121559493Y-90309844D01*
X121583076Y-90229524D01*
X122323434Y-90969882D01*
X122423731Y-90816369D01*
X122523587Y-90588717D01*
X122584612Y-90347738D01*
X122584614Y-90347729D01*
X122605141Y-90100005D01*
X122605141Y-90099994D01*
X122584614Y-89852270D01*
X122584612Y-89852261D01*
X122523587Y-89611282D01*
X122423731Y-89383630D01*
X122323434Y-89230116D01*
X121583076Y-89970475D01*
X121559493Y-89890156D01*
X121481761Y-89769202D01*
X121373100Y-89675048D01*
X121242315Y-89615320D01*
X121232534Y-89613913D01*
X121970057Y-88876390D01*
X121970056Y-88876389D01*
X121923229Y-88839943D01*
X121704614Y-88721635D01*
X121704603Y-88721630D01*
X121469493Y-88640916D01*
X121224293Y-88600000D01*
X120975707Y-88600000D01*
X120730506Y-88640916D01*
X120495396Y-88721630D01*
X120495390Y-88721632D01*
X120276761Y-88839949D01*
X120229942Y-88876388D01*
X120229942Y-88876390D01*
X120967466Y-89613913D01*
X120957685Y-89615320D01*
X120826900Y-89675048D01*
X120718239Y-89769202D01*
X120640507Y-89890156D01*
X120616923Y-89970475D01*
X119876564Y-89230116D01*
X119776267Y-89383632D01*
X119676412Y-89611282D01*
X119615387Y-89852261D01*
X119615385Y-89852270D01*
X119594859Y-90099994D01*
X119594859Y-90100005D01*
X118232083Y-90100005D01*
X118026819Y-89894741D01*
X117993334Y-89833418D01*
X117990500Y-89807060D01*
X117990500Y-85100005D01*
X119594357Y-85100005D01*
X119614890Y-85347812D01*
X119614892Y-85347824D01*
X119675936Y-85588881D01*
X119775826Y-85816606D01*
X119911833Y-86024782D01*
X119911836Y-86024785D01*
X120080256Y-86207738D01*
X120276491Y-86360474D01*
X120495190Y-86478828D01*
X120730386Y-86559571D01*
X120975665Y-86600500D01*
X121224335Y-86600500D01*
X121469614Y-86559571D01*
X121704810Y-86478828D01*
X121923509Y-86360474D01*
X122119744Y-86207738D01*
X122288164Y-86024785D01*
X122424173Y-85816607D01*
X122496797Y-85651038D01*
X122499082Y-85646125D01*
X122508533Y-85626909D01*
X122509925Y-85622624D01*
X122514289Y-85611162D01*
X122524063Y-85588881D01*
X122534245Y-85548669D01*
X122536503Y-85540849D01*
X123022368Y-84045968D01*
X123052612Y-83996621D01*
X125492545Y-81556688D01*
X125504160Y-81546443D01*
X125530775Y-81525773D01*
X125530774Y-81525773D01*
X125530779Y-81525770D01*
X125577475Y-81464171D01*
X125624536Y-81402841D01*
X125624537Y-81402838D01*
X125624575Y-81402789D01*
X125625218Y-81401662D01*
X125625562Y-81401062D01*
X125626270Y-81399834D01*
X125626295Y-81399771D01*
X125626298Y-81399768D01*
X125655464Y-81328174D01*
X125685044Y-81256762D01*
X125685044Y-81256758D01*
X125685072Y-81256692D01*
X125685429Y-81255331D01*
X125685599Y-81254687D01*
X125685943Y-81253401D01*
X125687005Y-81244953D01*
X125695564Y-81176859D01*
X125695622Y-81176405D01*
X125705682Y-81100000D01*
X125701281Y-81066579D01*
X125700223Y-81051134D01*
X125676097Y-76925416D01*
X125695389Y-76858264D01*
X125747925Y-76812201D01*
X125817024Y-76801853D01*
X125880748Y-76830506D01*
X125887776Y-76837011D01*
X128834008Y-79783244D01*
X128867493Y-79844567D01*
X128862509Y-79914259D01*
X128820637Y-79970192D01*
X128755173Y-79994609D01*
X128712872Y-79990327D01*
X128528364Y-79938630D01*
X128528359Y-79938629D01*
X128528358Y-79938629D01*
X128351056Y-79914259D01*
X128243679Y-79899500D01*
X128243678Y-79899500D01*
X127956322Y-79899500D01*
X127956321Y-79899500D01*
X127671642Y-79938629D01*
X127671635Y-79938630D01*
X127471845Y-79994609D01*
X127394942Y-80016156D01*
X127394939Y-80016156D01*
X127394936Y-80016158D01*
X127394935Y-80016158D01*
X127131382Y-80130634D01*
X126885853Y-80279944D01*
X126662950Y-80461289D01*
X126662947Y-80461291D01*
X126662947Y-80461292D01*
X126643513Y-80482100D01*
X126466812Y-80671299D01*
X126301098Y-80906064D01*
X126168894Y-81161206D01*
X126072667Y-81431962D01*
X126072666Y-81431965D01*
X126014201Y-81713319D01*
X125994592Y-82000000D01*
X126014201Y-82286680D01*
X126014201Y-82286684D01*
X126014202Y-82286686D01*
X126016969Y-82300000D01*
X126072666Y-82568034D01*
X126072667Y-82568037D01*
X126168894Y-82838793D01*
X126168893Y-82838793D01*
X126301098Y-83093935D01*
X126466812Y-83328700D01*
X126514022Y-83379249D01*
X126662947Y-83538708D01*
X126885853Y-83720055D01*
X127112148Y-83857669D01*
X127131382Y-83869365D01*
X127281492Y-83934566D01*
X127394942Y-83983844D01*
X127671642Y-84061371D01*
X127921920Y-84095771D01*
X127956321Y-84100500D01*
X127956322Y-84100500D01*
X128243679Y-84100500D01*
X128274370Y-84096281D01*
X128528358Y-84061371D01*
X128805058Y-83983844D01*
X128929775Y-83929672D01*
X129068617Y-83869365D01*
X129068620Y-83869363D01*
X129068625Y-83869361D01*
X129314147Y-83720055D01*
X129537053Y-83538708D01*
X129733189Y-83328698D01*
X129898901Y-83093936D01*
X130031104Y-82838797D01*
X130127334Y-82568032D01*
X130185798Y-82286686D01*
X130205408Y-82000000D01*
X130185798Y-81713314D01*
X130127334Y-81431968D01*
X130127332Y-81431962D01*
X130115386Y-81398348D01*
X130111483Y-81328588D01*
X130145916Y-81267792D01*
X130207752Y-81235262D01*
X130277357Y-81241328D01*
X130319907Y-81269142D01*
X131863181Y-82812416D01*
X131896666Y-82873739D01*
X131899500Y-82900097D01*
X131899500Y-87952512D01*
X131898439Y-87968697D01*
X131897470Y-87976061D01*
X131894318Y-88000000D01*
X131912563Y-88138586D01*
X131914956Y-88156762D01*
X131975464Y-88302841D01*
X132007430Y-88344500D01*
X132071719Y-88428283D01*
X132096769Y-88447504D01*
X132108964Y-88458199D01*
X133416165Y-89765400D01*
X133430238Y-89783606D01*
X133430873Y-89783171D01*
X133433376Y-89786819D01*
X133433381Y-89786826D01*
X134059070Y-90571927D01*
X134371162Y-90963533D01*
X134377999Y-90972994D01*
X134411836Y-91024785D01*
X134469477Y-91087400D01*
X134475218Y-91094100D01*
X134489439Y-91111945D01*
X134507602Y-91133473D01*
X134507611Y-91133483D01*
X134507616Y-91133489D01*
X134508480Y-91134457D01*
X134540391Y-91164829D01*
X134546107Y-91170642D01*
X134558247Y-91183829D01*
X134580248Y-91207731D01*
X134580255Y-91207737D01*
X134580256Y-91207738D01*
X134776491Y-91360474D01*
X134776493Y-91360475D01*
X134994332Y-91478364D01*
X134995190Y-91478828D01*
X135214141Y-91553994D01*
X135228964Y-91559083D01*
X135230386Y-91559571D01*
X135475665Y-91600500D01*
X135724335Y-91600500D01*
X135969614Y-91559571D01*
X136204810Y-91478828D01*
X136423509Y-91360474D01*
X136619744Y-91207738D01*
X136788164Y-91024785D01*
X136924173Y-90816607D01*
X137024063Y-90588881D01*
X137085108Y-90347821D01*
X137088255Y-90309844D01*
X137105643Y-90100005D01*
X137105643Y-90099994D01*
X137085109Y-89852187D01*
X137085107Y-89852175D01*
X137024063Y-89611118D01*
X136924173Y-89383393D01*
X136788166Y-89175217D01*
X136767860Y-89153159D01*
X136619744Y-88992262D01*
X136518623Y-88913556D01*
X136477810Y-88856846D01*
X136473697Y-88827249D01*
X135732534Y-88086086D01*
X135742315Y-88084680D01*
X135873100Y-88024952D01*
X135981761Y-87930798D01*
X136059493Y-87809844D01*
X136083076Y-87729524D01*
X136823434Y-88469882D01*
X136923731Y-88316369D01*
X137023587Y-88088717D01*
X137084612Y-87847738D01*
X137084614Y-87847729D01*
X137105141Y-87600005D01*
X137105141Y-87599994D01*
X137084614Y-87352270D01*
X137084612Y-87352261D01*
X137023587Y-87111282D01*
X136923732Y-86883632D01*
X136811515Y-86711870D01*
X136791328Y-86644981D01*
X136810508Y-86577795D01*
X136841013Y-86544782D01*
X136842329Y-86543796D01*
X136842331Y-86543796D01*
X136957546Y-86457546D01*
X137043796Y-86342331D01*
X137094091Y-86207483D01*
X137100500Y-86147873D01*
X137100499Y-84052128D01*
X137094091Y-83992517D01*
X137091425Y-83985368D01*
X137076147Y-83944406D01*
X137072775Y-83933978D01*
X137072116Y-83931586D01*
X137070065Y-83925789D01*
X137069127Y-83923137D01*
X137061036Y-83903659D01*
X137059387Y-83899474D01*
X137043796Y-83857669D01*
X136990840Y-83786930D01*
X136987106Y-83781658D01*
X136968313Y-83753591D01*
X136232330Y-82935832D01*
X136202116Y-82872834D01*
X136200500Y-82852881D01*
X136200500Y-82347487D01*
X136201561Y-82331301D01*
X136205682Y-82299999D01*
X136205682Y-82299998D01*
X136185044Y-82143239D01*
X136185042Y-82143234D01*
X136124538Y-81997163D01*
X136124535Y-81997158D01*
X136121222Y-81992841D01*
X136052450Y-81903215D01*
X136038761Y-81885375D01*
X136028281Y-81871716D01*
X136003229Y-81852494D01*
X135991034Y-81841799D01*
X127336819Y-73187584D01*
X127303334Y-73126261D01*
X127300500Y-73099903D01*
X127300500Y-70826462D01*
X127320185Y-70759423D01*
X127372989Y-70713668D01*
X127410617Y-70703242D01*
X127569249Y-70685369D01*
X127569252Y-70685368D01*
X127569255Y-70685368D01*
X127739522Y-70625789D01*
X127892262Y-70529816D01*
X128019816Y-70402262D01*
X128115789Y-70249522D01*
X128115789Y-70249520D01*
X128115884Y-70249370D01*
X128168219Y-70203079D01*
X128237272Y-70192431D01*
X128301121Y-70220806D01*
X128337919Y-70274387D01*
X128364209Y-70349519D01*
X128397266Y-70402129D01*
X128460184Y-70502262D01*
X128587738Y-70629816D01*
X128676148Y-70685368D01*
X128721187Y-70713668D01*
X128740478Y-70725789D01*
X128881115Y-70775000D01*
X128910745Y-70785368D01*
X128910750Y-70785369D01*
X129089996Y-70805565D01*
X129090000Y-70805565D01*
X129090004Y-70805565D01*
X129269249Y-70785369D01*
X129269252Y-70785368D01*
X129269255Y-70785368D01*
X129439522Y-70725789D01*
X129592262Y-70629816D01*
X129719816Y-70502262D01*
X129815789Y-70349522D01*
X129818024Y-70343132D01*
X129828470Y-70321917D01*
X129828085Y-70321704D01*
X129830225Y-70317845D01*
X129830236Y-70317830D01*
X129974579Y-70007445D01*
X130020697Y-69954959D01*
X130087870Y-69935737D01*
X130154772Y-69955883D01*
X130192008Y-69993761D01*
X130260184Y-70102262D01*
X130387738Y-70229816D01*
X130540478Y-70325789D01*
X130540480Y-70325790D01*
X130546865Y-70328024D01*
X130568082Y-70338464D01*
X130568294Y-70338084D01*
X130572157Y-70340228D01*
X130572168Y-70340235D01*
X130920575Y-70502262D01*
X130942659Y-70512532D01*
X130978052Y-70537287D01*
X132931799Y-72491034D01*
X132942493Y-72503228D01*
X132961718Y-72528282D01*
X133055183Y-72600000D01*
X133087159Y-72624536D01*
X133233238Y-72685044D01*
X133311619Y-72695363D01*
X133389999Y-72705682D01*
X133390000Y-72705682D01*
X133421302Y-72701560D01*
X133437487Y-72700500D01*
X134589903Y-72700500D01*
X134656942Y-72720185D01*
X134677584Y-72736819D01*
X136484391Y-74543626D01*
X136515132Y-74594536D01*
X136626278Y-74952486D01*
X136633418Y-74973799D01*
X136633776Y-74974794D01*
X136651228Y-75013759D01*
X136655101Y-75023487D01*
X136664212Y-75049525D01*
X136760184Y-75202262D01*
X136887738Y-75329816D01*
X137040478Y-75425789D01*
X137190497Y-75478283D01*
X137210745Y-75485368D01*
X137210750Y-75485369D01*
X137389996Y-75505565D01*
X137390000Y-75505565D01*
X137390001Y-75505565D01*
X137398324Y-75504627D01*
X137451617Y-75498622D01*
X137520437Y-75510676D01*
X137571817Y-75558024D01*
X137589500Y-75621842D01*
X137589500Y-81642512D01*
X137588438Y-81658697D01*
X137584318Y-81690000D01*
X137600471Y-81812696D01*
X137604956Y-81846762D01*
X137665464Y-81992841D01*
X137761718Y-82118282D01*
X137761719Y-82118283D01*
X137786769Y-82137504D01*
X137798964Y-82148199D01*
X138762710Y-83111946D01*
X138787465Y-83147338D01*
X138959765Y-83517834D01*
X138966124Y-83530126D01*
X138973026Y-83546137D01*
X138974209Y-83549518D01*
X138974211Y-83549522D01*
X139070184Y-83702262D01*
X139197738Y-83829816D01*
X139288080Y-83886582D01*
X139348690Y-83924666D01*
X139350478Y-83925789D01*
X139411736Y-83947224D01*
X139520745Y-83985368D01*
X139520750Y-83985369D01*
X139699996Y-84005565D01*
X139700000Y-84005565D01*
X139700004Y-84005565D01*
X139879249Y-83985369D01*
X139879252Y-83985368D01*
X139879255Y-83985368D01*
X140049522Y-83925789D01*
X140202262Y-83829816D01*
X140329816Y-83702262D01*
X140425789Y-83549522D01*
X140485368Y-83379255D01*
X140491064Y-83328700D01*
X140505565Y-83200003D01*
X140505565Y-83199996D01*
X140485369Y-83020750D01*
X140485368Y-83020745D01*
X140433928Y-82873739D01*
X140425789Y-82850478D01*
X140418449Y-82838797D01*
X140329815Y-82697737D01*
X140202262Y-82570184D01*
X140049524Y-82474212D01*
X140049523Y-82474211D01*
X140049522Y-82474211D01*
X140043125Y-82471972D01*
X140021911Y-82461532D01*
X140021701Y-82461912D01*
X140017830Y-82459763D01*
X139647339Y-82287466D01*
X139611947Y-82262711D01*
X138826819Y-81477583D01*
X138793334Y-81416260D01*
X138790500Y-81389902D01*
X138790500Y-78399166D01*
X151790000Y-78399166D01*
X153544118Y-78399166D01*
X153505444Y-78492535D01*
X153484823Y-78649166D01*
X153505444Y-78805797D01*
X153544118Y-78899166D01*
X151790001Y-78899166D01*
X151790001Y-79349152D01*
X151800494Y-79451863D01*
X151855641Y-79618285D01*
X151855643Y-79618290D01*
X151947684Y-79767511D01*
X152071654Y-79891481D01*
X152220875Y-79983522D01*
X152220880Y-79983524D01*
X152387302Y-80038671D01*
X152387309Y-80038672D01*
X152490019Y-80049165D01*
X153839999Y-80049165D01*
X153840000Y-80049164D01*
X153840000Y-79195047D01*
X153933369Y-79233722D01*
X154050677Y-79249166D01*
X154129323Y-79249166D01*
X154246631Y-79233722D01*
X154340000Y-79195047D01*
X154340000Y-80049165D01*
X155689972Y-80049165D01*
X155689986Y-80049164D01*
X155792697Y-80038671D01*
X155959119Y-79983524D01*
X155959124Y-79983522D01*
X156108345Y-79891481D01*
X156232315Y-79767511D01*
X156324356Y-79618290D01*
X156324358Y-79618285D01*
X156379505Y-79451863D01*
X156379506Y-79451856D01*
X156389999Y-79349152D01*
X156390000Y-79349139D01*
X156390000Y-78899166D01*
X154635882Y-78899166D01*
X154674556Y-78805797D01*
X154695177Y-78649166D01*
X154674556Y-78492535D01*
X154635882Y-78399166D01*
X156389999Y-78399166D01*
X156389999Y-77949194D01*
X156389998Y-77949179D01*
X156379505Y-77846468D01*
X156324358Y-77680046D01*
X156324356Y-77680041D01*
X156232315Y-77530820D01*
X156108345Y-77406850D01*
X155959124Y-77314809D01*
X155959119Y-77314807D01*
X155792697Y-77259660D01*
X155792690Y-77259659D01*
X155689986Y-77249166D01*
X154340000Y-77249166D01*
X154340000Y-78103284D01*
X154246631Y-78064610D01*
X154129323Y-78049166D01*
X154050677Y-78049166D01*
X153933369Y-78064610D01*
X153840000Y-78103284D01*
X153840000Y-77249166D01*
X152490028Y-77249166D01*
X152490012Y-77249167D01*
X152387302Y-77259660D01*
X152220880Y-77314807D01*
X152220875Y-77314809D01*
X152071654Y-77406850D01*
X151947684Y-77530820D01*
X151855643Y-77680041D01*
X151855641Y-77680046D01*
X151800494Y-77846468D01*
X151800493Y-77846475D01*
X151790000Y-77949179D01*
X151790000Y-78399166D01*
X138790500Y-78399166D01*
X138790500Y-73509512D01*
X151785702Y-73509512D01*
X151795819Y-73747694D01*
X151795819Y-73747698D01*
X151846045Y-73980746D01*
X151926940Y-74182058D01*
X151934936Y-74201956D01*
X152059931Y-74404961D01*
X152217436Y-74583921D01*
X152402920Y-74733689D01*
X152611046Y-74849956D01*
X152736951Y-74894441D01*
X152835829Y-74929377D01*
X153070790Y-74969665D01*
X153070798Y-74969665D01*
X153070800Y-74969666D01*
X153070801Y-74969666D01*
X155049496Y-74969666D01*
X155049497Y-74969666D01*
X155049498Y-74969665D01*
X155049515Y-74969665D01*
X155227536Y-74954513D01*
X155227539Y-74954512D01*
X155227541Y-74954512D01*
X155458249Y-74894441D01*
X155590973Y-74834445D01*
X155675480Y-74796246D01*
X155675481Y-74796244D01*
X155675486Y-74796243D01*
X155873003Y-74662745D01*
X156045118Y-74497787D01*
X156186879Y-74306113D01*
X156294207Y-74093240D01*
X156364016Y-73865289D01*
X156394298Y-73628820D01*
X156384180Y-73390634D01*
X156333954Y-73157585D01*
X156245064Y-72936376D01*
X156120069Y-72733371D01*
X155962564Y-72554411D01*
X155777080Y-72404643D01*
X155641719Y-72329025D01*
X155568955Y-72288376D01*
X155344170Y-72208954D01*
X155109209Y-72168666D01*
X155109200Y-72168666D01*
X153130503Y-72168666D01*
X153130484Y-72168666D01*
X152952463Y-72183818D01*
X152721751Y-72243890D01*
X152504519Y-72342085D01*
X152504511Y-72342090D01*
X152307006Y-72475579D01*
X152306997Y-72475587D01*
X152134881Y-72640545D01*
X151993123Y-72832216D01*
X151993120Y-72832220D01*
X151885796Y-73045086D01*
X151885793Y-73045092D01*
X151815983Y-73273044D01*
X151785702Y-73509512D01*
X138790500Y-73509512D01*
X138790500Y-72647487D01*
X138791561Y-72631301D01*
X138795682Y-72599999D01*
X138795682Y-72599998D01*
X138775044Y-72443239D01*
X138775044Y-72443238D01*
X138714536Y-72297159D01*
X138714535Y-72297158D01*
X138714535Y-72297157D01*
X138648009Y-72210459D01*
X138618282Y-72171718D01*
X138599731Y-72157483D01*
X138593228Y-72152493D01*
X138581034Y-72141799D01*
X135027287Y-68588052D01*
X135002532Y-68552659D01*
X134830246Y-68182190D01*
X134830243Y-68182185D01*
X134830236Y-68182169D01*
X134823874Y-68169873D01*
X134816970Y-68153855D01*
X134815789Y-68150478D01*
X134719816Y-67997738D01*
X134592262Y-67870184D01*
X134591751Y-67869863D01*
X134439523Y-67774211D01*
X134269254Y-67714631D01*
X134269249Y-67714630D01*
X134090004Y-67694435D01*
X134089996Y-67694435D01*
X133910750Y-67714630D01*
X133910745Y-67714631D01*
X133740476Y-67774211D01*
X133587737Y-67870184D01*
X133460184Y-67997737D01*
X133364211Y-68150476D01*
X133304631Y-68320745D01*
X133304630Y-68320750D01*
X133284435Y-68499996D01*
X133284435Y-68500003D01*
X133304630Y-68679249D01*
X133304631Y-68679254D01*
X133364211Y-68849523D01*
X133444117Y-68976692D01*
X133460184Y-69002262D01*
X133587738Y-69129816D01*
X133740478Y-69225789D01*
X133740480Y-69225790D01*
X133746865Y-69228024D01*
X133768082Y-69238464D01*
X133768294Y-69238084D01*
X133772157Y-69240228D01*
X133772168Y-69240235D01*
X133845926Y-69274536D01*
X134142659Y-69412532D01*
X134178052Y-69437287D01*
X137553181Y-72812416D01*
X137586666Y-72873739D01*
X137589500Y-72900097D01*
X137589500Y-73650903D01*
X137569815Y-73717942D01*
X137517011Y-73763697D01*
X137447853Y-73773641D01*
X137384297Y-73744616D01*
X137377819Y-73738584D01*
X135348199Y-71708964D01*
X135337503Y-71696767D01*
X135318286Y-71671722D01*
X135318283Y-71671720D01*
X135318282Y-71671718D01*
X135192841Y-71575464D01*
X135165787Y-71564258D01*
X135046762Y-71514956D01*
X135046760Y-71514955D01*
X134929361Y-71499500D01*
X134890000Y-71494318D01*
X134858697Y-71498439D01*
X134842513Y-71499500D01*
X133690097Y-71499500D01*
X133623058Y-71479815D01*
X133602416Y-71463181D01*
X131827287Y-69688052D01*
X131802532Y-69652659D01*
X131630246Y-69282190D01*
X131630243Y-69282185D01*
X131630236Y-69282169D01*
X131623874Y-69269873D01*
X131616970Y-69253855D01*
X131615789Y-69250478D01*
X131519816Y-69097738D01*
X131392262Y-68970184D01*
X131392260Y-68970182D01*
X131264015Y-68889600D01*
X131217725Y-68837266D01*
X131207077Y-68768212D01*
X131235452Y-68704364D01*
X131242295Y-68696938D01*
X133853515Y-66085718D01*
X133914836Y-66052235D01*
X133984528Y-66057219D01*
X134040461Y-66099091D01*
X134058236Y-66132447D01*
X134064210Y-66149521D01*
X134064211Y-66149522D01*
X134160184Y-66302262D01*
X134287738Y-66429816D01*
X134440478Y-66525789D01*
X134524187Y-66555080D01*
X134610745Y-66585368D01*
X134610750Y-66585369D01*
X134789996Y-66605565D01*
X134790000Y-66605565D01*
X134790004Y-66605565D01*
X134969249Y-66585369D01*
X134969250Y-66585368D01*
X134969255Y-66585368D01*
X135048251Y-66557725D01*
X135063651Y-66553431D01*
X135088687Y-66548166D01*
X135472495Y-66408022D01*
X135515026Y-66400500D01*
X137889903Y-66400500D01*
X137956942Y-66420185D01*
X137977584Y-66436819D01*
X141052710Y-69511945D01*
X141077465Y-69547337D01*
X141249765Y-69917834D01*
X141256124Y-69930126D01*
X141263026Y-69946137D01*
X141264209Y-69949518D01*
X141264212Y-69949524D01*
X141292009Y-69993762D01*
X141360184Y-70102262D01*
X141487738Y-70229816D01*
X141534612Y-70259269D01*
X141634315Y-70321917D01*
X141640478Y-70325789D01*
X141767346Y-70370182D01*
X141810745Y-70385368D01*
X141810750Y-70385369D01*
X141989996Y-70405565D01*
X141990000Y-70405565D01*
X141990004Y-70405565D01*
X142169249Y-70385369D01*
X142169252Y-70385368D01*
X142169255Y-70385368D01*
X142339522Y-70325789D01*
X142492262Y-70229816D01*
X142619816Y-70102262D01*
X142715789Y-69949522D01*
X142775368Y-69779255D01*
X142775705Y-69776265D01*
X142795565Y-69600003D01*
X142795565Y-69599996D01*
X142775369Y-69420750D01*
X142775368Y-69420745D01*
X142745379Y-69335042D01*
X142715789Y-69250478D01*
X142709355Y-69240239D01*
X142670425Y-69178282D01*
X142619816Y-69097738D01*
X142492262Y-68970184D01*
X142492259Y-68970182D01*
X142339524Y-68874212D01*
X142339523Y-68874211D01*
X142339522Y-68874211D01*
X142333125Y-68871972D01*
X142311911Y-68861532D01*
X142311701Y-68861912D01*
X142307830Y-68859763D01*
X141937337Y-68687465D01*
X141901945Y-68662710D01*
X139935068Y-66695833D01*
X151790000Y-66695833D01*
X153544118Y-66695833D01*
X153505444Y-66789202D01*
X153484823Y-66945833D01*
X153505444Y-67102464D01*
X153544118Y-67195833D01*
X151790001Y-67195833D01*
X151790001Y-67645819D01*
X151800494Y-67748530D01*
X151855641Y-67914952D01*
X151855643Y-67914957D01*
X151947684Y-68064178D01*
X152071654Y-68188148D01*
X152220875Y-68280189D01*
X152220880Y-68280191D01*
X152387302Y-68335338D01*
X152387309Y-68335339D01*
X152490019Y-68345832D01*
X153839999Y-68345832D01*
X153840000Y-68345831D01*
X153840000Y-67491714D01*
X153933369Y-67530389D01*
X154050677Y-67545833D01*
X154129323Y-67545833D01*
X154246631Y-67530389D01*
X154340000Y-67491714D01*
X154340000Y-68345832D01*
X155689972Y-68345832D01*
X155689986Y-68345831D01*
X155792697Y-68335338D01*
X155959119Y-68280191D01*
X155959124Y-68280189D01*
X156108345Y-68188148D01*
X156232315Y-68064178D01*
X156324356Y-67914957D01*
X156324358Y-67914952D01*
X156379505Y-67748530D01*
X156379506Y-67748523D01*
X156389999Y-67645819D01*
X156390000Y-67645806D01*
X156390000Y-67195833D01*
X154635882Y-67195833D01*
X154674556Y-67102464D01*
X154695177Y-66945833D01*
X154674556Y-66789202D01*
X154635882Y-66695833D01*
X156389999Y-66695833D01*
X156389999Y-66245861D01*
X156389998Y-66245846D01*
X156379505Y-66143135D01*
X156324358Y-65976713D01*
X156324356Y-65976708D01*
X156232315Y-65827487D01*
X156108345Y-65703517D01*
X155959124Y-65611476D01*
X155959119Y-65611474D01*
X155792697Y-65556327D01*
X155792690Y-65556326D01*
X155689986Y-65545833D01*
X154340000Y-65545833D01*
X154340000Y-66399951D01*
X154246631Y-66361277D01*
X154129323Y-66345833D01*
X154050677Y-66345833D01*
X153933369Y-66361277D01*
X153840000Y-66399951D01*
X153840000Y-65545833D01*
X152490028Y-65545833D01*
X152490012Y-65545834D01*
X152387302Y-65556327D01*
X152220880Y-65611474D01*
X152220875Y-65611476D01*
X152071654Y-65703517D01*
X151947684Y-65827487D01*
X151855643Y-65976708D01*
X151855641Y-65976713D01*
X151800494Y-66143135D01*
X151800493Y-66143142D01*
X151790000Y-66245846D01*
X151790000Y-66695833D01*
X139935068Y-66695833D01*
X138648199Y-65408964D01*
X138637504Y-65396769D01*
X138618283Y-65371719D01*
X138618282Y-65371718D01*
X138492841Y-65275464D01*
X138346762Y-65214956D01*
X138346760Y-65214955D01*
X138229361Y-65199500D01*
X138190000Y-65194318D01*
X138158697Y-65198439D01*
X138142513Y-65199500D01*
X135515027Y-65199500D01*
X135472496Y-65191978D01*
X135123864Y-65064679D01*
X135067643Y-65023195D01*
X135042775Y-64957901D01*
X135057155Y-64889527D01*
X135078714Y-64860520D01*
X136402416Y-63536819D01*
X136463739Y-63503334D01*
X136490097Y-63500500D01*
X137064975Y-63500500D01*
X137107506Y-63508022D01*
X137430031Y-63625789D01*
X137491312Y-63648165D01*
X137531824Y-63661054D01*
X137533230Y-63661228D01*
X137558956Y-63667246D01*
X137610745Y-63685368D01*
X137610749Y-63685368D01*
X137610751Y-63685369D01*
X137789996Y-63705565D01*
X137790000Y-63705565D01*
X137790004Y-63705565D01*
X137969249Y-63685369D01*
X137969252Y-63685368D01*
X137969255Y-63685368D01*
X138139522Y-63625789D01*
X138292262Y-63529816D01*
X138419816Y-63402262D01*
X138515789Y-63249522D01*
X138575368Y-63079255D01*
X138575369Y-63079249D01*
X138595565Y-62900003D01*
X138595565Y-62899996D01*
X138575369Y-62720750D01*
X138575368Y-62720745D01*
X138566096Y-62694246D01*
X138515789Y-62550478D01*
X138501431Y-62527628D01*
X138447353Y-62441563D01*
X138419816Y-62397738D01*
X138292262Y-62270184D01*
X138235809Y-62234712D01*
X138139523Y-62174211D01*
X137969254Y-62114631D01*
X137969249Y-62114630D01*
X137790004Y-62094435D01*
X137789996Y-62094435D01*
X137610746Y-62114631D01*
X137610745Y-62114631D01*
X137531764Y-62142267D01*
X137516338Y-62146569D01*
X137491314Y-62151833D01*
X137107503Y-62291978D01*
X137064972Y-62299500D01*
X136237487Y-62299500D01*
X136221302Y-62298439D01*
X136190000Y-62294318D01*
X136189996Y-62294318D01*
X136154761Y-62298956D01*
X136085726Y-62288189D01*
X136033471Y-62241808D01*
X136014587Y-62174539D01*
X136035069Y-62107739D01*
X136050892Y-62088341D01*
X136333054Y-61806179D01*
X151785702Y-61806179D01*
X151795819Y-62044361D01*
X151795819Y-62044365D01*
X151846045Y-62277413D01*
X151934935Y-62498621D01*
X151934936Y-62498623D01*
X152058930Y-62700003D01*
X152059932Y-62701629D01*
X152216257Y-62879249D01*
X152217436Y-62880588D01*
X152402920Y-63030356D01*
X152611046Y-63146623D01*
X152835829Y-63226044D01*
X153070790Y-63266332D01*
X153070798Y-63266332D01*
X153070800Y-63266333D01*
X153070801Y-63266333D01*
X155049496Y-63266333D01*
X155049497Y-63266333D01*
X155049498Y-63266332D01*
X155049515Y-63266332D01*
X155227536Y-63251180D01*
X155227539Y-63251179D01*
X155227541Y-63251179D01*
X155458249Y-63191108D01*
X155590973Y-63131112D01*
X155675480Y-63092913D01*
X155675481Y-63092911D01*
X155675486Y-63092910D01*
X155873003Y-62959412D01*
X156045118Y-62794454D01*
X156186879Y-62602780D01*
X156294207Y-62389907D01*
X156364016Y-62161956D01*
X156394298Y-61925487D01*
X156392578Y-61885007D01*
X156386864Y-61750478D01*
X156384180Y-61687301D01*
X156364877Y-61597737D01*
X156333954Y-61454252D01*
X156245064Y-61233043D01*
X156120069Y-61030038D01*
X155962564Y-60851078D01*
X155777080Y-60701310D01*
X155614241Y-60610342D01*
X155568955Y-60585043D01*
X155344170Y-60505621D01*
X155109209Y-60465333D01*
X155109200Y-60465333D01*
X153130503Y-60465333D01*
X153130484Y-60465333D01*
X152952463Y-60480485D01*
X152721751Y-60540557D01*
X152504519Y-60638752D01*
X152504511Y-60638757D01*
X152307006Y-60772246D01*
X152306997Y-60772254D01*
X152134881Y-60937212D01*
X151993123Y-61128883D01*
X151993120Y-61128887D01*
X151885796Y-61341753D01*
X151885793Y-61341759D01*
X151815983Y-61569711D01*
X151785702Y-61806179D01*
X136333054Y-61806179D01*
X136881043Y-61258190D01*
X136893223Y-61247509D01*
X136918282Y-61228282D01*
X137014536Y-61102841D01*
X137075044Y-60956762D01*
X137088957Y-60851078D01*
X137095682Y-60800000D01*
X137091561Y-60768697D01*
X137090500Y-60752512D01*
X137090500Y-54992500D01*
X151790000Y-54992500D01*
X153544118Y-54992500D01*
X153505444Y-55085869D01*
X153484823Y-55242500D01*
X153505444Y-55399131D01*
X153544118Y-55492500D01*
X151790001Y-55492500D01*
X151790001Y-55942486D01*
X151800494Y-56045197D01*
X151855641Y-56211619D01*
X151855643Y-56211624D01*
X151947684Y-56360845D01*
X152071654Y-56484815D01*
X152220875Y-56576856D01*
X152220880Y-56576858D01*
X152387302Y-56632005D01*
X152387309Y-56632006D01*
X152490019Y-56642499D01*
X153839999Y-56642499D01*
X153840000Y-56642498D01*
X153840000Y-55788381D01*
X153933369Y-55827056D01*
X154050677Y-55842500D01*
X154129323Y-55842500D01*
X154246631Y-55827056D01*
X154340000Y-55788381D01*
X154340000Y-56642499D01*
X155689972Y-56642499D01*
X155689986Y-56642498D01*
X155792697Y-56632005D01*
X155959119Y-56576858D01*
X155959124Y-56576856D01*
X156108345Y-56484815D01*
X156232315Y-56360845D01*
X156324356Y-56211624D01*
X156324358Y-56211619D01*
X156379505Y-56045197D01*
X156379506Y-56045190D01*
X156389999Y-55942486D01*
X156390000Y-55942473D01*
X156390000Y-55492500D01*
X154635882Y-55492500D01*
X154674556Y-55399131D01*
X154695177Y-55242500D01*
X154674556Y-55085869D01*
X154635882Y-54992500D01*
X156389999Y-54992500D01*
X156389999Y-54542528D01*
X156389998Y-54542513D01*
X156379505Y-54439802D01*
X156324358Y-54273380D01*
X156324356Y-54273375D01*
X156232315Y-54124154D01*
X156108345Y-54000184D01*
X155959124Y-53908143D01*
X155959119Y-53908141D01*
X155792697Y-53852994D01*
X155792690Y-53852993D01*
X155689986Y-53842500D01*
X154340000Y-53842500D01*
X154340000Y-54696618D01*
X154246631Y-54657944D01*
X154129323Y-54642500D01*
X154050677Y-54642500D01*
X153933369Y-54657944D01*
X153840000Y-54696618D01*
X153840000Y-53842500D01*
X152490028Y-53842500D01*
X152490012Y-53842501D01*
X152387302Y-53852994D01*
X152220880Y-53908141D01*
X152220875Y-53908143D01*
X152071654Y-54000184D01*
X151947684Y-54124154D01*
X151855643Y-54273375D01*
X151855641Y-54273380D01*
X151800494Y-54439802D01*
X151800493Y-54439809D01*
X151790000Y-54542513D01*
X151790000Y-54992500D01*
X137090500Y-54992500D01*
X137090500Y-52625025D01*
X137098022Y-52582494D01*
X137113382Y-52540429D01*
X137238166Y-52198686D01*
X137251071Y-52158117D01*
X137251241Y-52156739D01*
X137257262Y-52130994D01*
X137275368Y-52079255D01*
X137295565Y-51900000D01*
X137275368Y-51720745D01*
X137215789Y-51550478D01*
X137119816Y-51397738D01*
X136992262Y-51270184D01*
X136969814Y-51256079D01*
X136839523Y-51174211D01*
X136669254Y-51114631D01*
X136669249Y-51114630D01*
X136490004Y-51094435D01*
X136489996Y-51094435D01*
X136310750Y-51114630D01*
X136310745Y-51114631D01*
X136140476Y-51174211D01*
X135987737Y-51270184D01*
X135860184Y-51397737D01*
X135764211Y-51550476D01*
X135704631Y-51720745D01*
X135704630Y-51720750D01*
X135684435Y-51899996D01*
X135684435Y-51900003D01*
X135704631Y-52079252D01*
X135732268Y-52158236D01*
X135736570Y-52173663D01*
X135741833Y-52198685D01*
X135881978Y-52582494D01*
X135889500Y-52625025D01*
X135889500Y-60499902D01*
X135869815Y-60566941D01*
X135853181Y-60587583D01*
X127512181Y-68928583D01*
X127450858Y-68962068D01*
X127381166Y-68957084D01*
X127325233Y-68915212D01*
X127300816Y-68849748D01*
X127300500Y-68840902D01*
X127300500Y-63247494D01*
X127301561Y-63231308D01*
X127305683Y-63200000D01*
X127305683Y-63199999D01*
X127291584Y-63092913D01*
X127285044Y-63043238D01*
X127235266Y-62923063D01*
X127224538Y-62897163D01*
X127224535Y-62897158D01*
X127187159Y-62848448D01*
X127187156Y-62848445D01*
X127128281Y-62771717D01*
X127103228Y-62752493D01*
X127091034Y-62741799D01*
X126605606Y-62256371D01*
X126574864Y-62205461D01*
X126565161Y-62174211D01*
X126463718Y-61847505D01*
X126456574Y-61826182D01*
X126456223Y-61825207D01*
X126438775Y-61786252D01*
X126434900Y-61776517D01*
X126425790Y-61750481D01*
X126425789Y-61750478D01*
X126329816Y-61597738D01*
X126202262Y-61470184D01*
X126049523Y-61374211D01*
X125879254Y-61314631D01*
X125879249Y-61314630D01*
X125700004Y-61294435D01*
X125699996Y-61294435D01*
X125520750Y-61314630D01*
X125520745Y-61314631D01*
X125350476Y-61374211D01*
X125197737Y-61470184D01*
X125070184Y-61597737D01*
X124974209Y-61750480D01*
X124950549Y-61818097D01*
X124909828Y-61874873D01*
X124847391Y-61900362D01*
X124720750Y-61914630D01*
X124720745Y-61914631D01*
X124550476Y-61974211D01*
X124397737Y-62070184D01*
X124270184Y-62197737D01*
X124174211Y-62350476D01*
X124114631Y-62520745D01*
X124114630Y-62520750D01*
X124094435Y-62699996D01*
X124094435Y-62700003D01*
X124114630Y-62879249D01*
X124114631Y-62879254D01*
X124174211Y-63049523D01*
X124270184Y-63202262D01*
X124380240Y-63312318D01*
X124413725Y-63373641D01*
X124408741Y-63443333D01*
X124380243Y-63487677D01*
X124370187Y-63497732D01*
X124370186Y-63497734D01*
X124274211Y-63650476D01*
X124214631Y-63820745D01*
X124214630Y-63820750D01*
X124194435Y-63999996D01*
X124194435Y-64000003D01*
X124214630Y-64179249D01*
X124214632Y-64179257D01*
X124243223Y-64260965D01*
X124247365Y-64275643D01*
X124253007Y-64301666D01*
X124253008Y-64301670D01*
X124253009Y-64301672D01*
X124258365Y-64316061D01*
X124395962Y-64685754D01*
X124403748Y-64728282D01*
X124497740Y-80800934D01*
X124478448Y-80868087D01*
X124461423Y-80889340D01*
X122203380Y-83147383D01*
X122154028Y-83177630D01*
X120573057Y-83691477D01*
X120554367Y-83697958D01*
X120553592Y-83698243D01*
X120553573Y-83698251D01*
X120532953Y-83707610D01*
X120521976Y-83711974D01*
X120495200Y-83721167D01*
X120495187Y-83721173D01*
X120276496Y-83839522D01*
X120276494Y-83839523D01*
X120080257Y-83992261D01*
X119911833Y-84175217D01*
X119775826Y-84383393D01*
X119675936Y-84611118D01*
X119614892Y-84852175D01*
X119614890Y-84852187D01*
X119594357Y-85099994D01*
X119594357Y-85100005D01*
X117990500Y-85100005D01*
X117990500Y-73099807D01*
X117990500Y-73099806D01*
X117981980Y-73062479D01*
X117979654Y-73048790D01*
X117975368Y-73010745D01*
X117962725Y-72974612D01*
X117958876Y-72961249D01*
X117950360Y-72923939D01*
X117933748Y-72889442D01*
X117928433Y-72876613D01*
X117915789Y-72840478D01*
X117910598Y-72832216D01*
X117895426Y-72808070D01*
X117888698Y-72795897D01*
X117872093Y-72761415D01*
X117868280Y-72756634D01*
X117848219Y-72731478D01*
X117840180Y-72720147D01*
X117819818Y-72687741D01*
X117819817Y-72687740D01*
X117819816Y-72687738D01*
X117692262Y-72560184D01*
X117692261Y-72560183D01*
X117687931Y-72555853D01*
X117687920Y-72555843D01*
X116611892Y-71479815D01*
X115534252Y-70402174D01*
X115502262Y-70370184D01*
X115502259Y-70370182D01*
X115469849Y-70349817D01*
X115458510Y-70341771D01*
X115428589Y-70317910D01*
X115394093Y-70301296D01*
X115381927Y-70294572D01*
X115349524Y-70274212D01*
X115349525Y-70274212D01*
X115342652Y-70271807D01*
X115313393Y-70261568D01*
X115300554Y-70256250D01*
X115266061Y-70239639D01*
X115228735Y-70231119D01*
X115215380Y-70227271D01*
X115179260Y-70214633D01*
X115179256Y-70214632D01*
X115179255Y-70214632D01*
X115161139Y-70212590D01*
X115141217Y-70210345D01*
X115127518Y-70208017D01*
X115090200Y-70199501D01*
X115090196Y-70199500D01*
X115090194Y-70199500D01*
X115090191Y-70199500D01*
X114978538Y-70199500D01*
X114912818Y-70180652D01*
X114354101Y-69831453D01*
X114307685Y-69779229D01*
X114296871Y-69710202D01*
X114317464Y-69657197D01*
X114317425Y-69657175D01*
X114317573Y-69656918D01*
X114318254Y-69655166D01*
X114320134Y-69652480D01*
X114416265Y-69446326D01*
X114416269Y-69446317D01*
X114475139Y-69226610D01*
X114475141Y-69226599D01*
X114494966Y-69000002D01*
X114494966Y-68999997D01*
X114475141Y-68773400D01*
X114475139Y-68773389D01*
X114416269Y-68553682D01*
X114416264Y-68553668D01*
X114320136Y-68347521D01*
X114320132Y-68347513D01*
X114269025Y-68274526D01*
X113587953Y-68955597D01*
X113575165Y-68874852D01*
X113517641Y-68761955D01*
X113428045Y-68672359D01*
X113315148Y-68614835D01*
X113234401Y-68602046D01*
X113915472Y-67920974D01*
X113842478Y-67869863D01*
X113636331Y-67773735D01*
X113636317Y-67773730D01*
X113416610Y-67714860D01*
X113416599Y-67714858D01*
X113190002Y-67695034D01*
X113189998Y-67695034D01*
X112963400Y-67714858D01*
X112963389Y-67714860D01*
X112743682Y-67773730D01*
X112743673Y-67773734D01*
X112537516Y-67869866D01*
X112537512Y-67869868D01*
X112464526Y-67920973D01*
X112464526Y-67920974D01*
X113145599Y-68602046D01*
X113064852Y-68614835D01*
X112951955Y-68672359D01*
X112862359Y-68761955D01*
X112804835Y-68874852D01*
X112792046Y-68955598D01*
X112110974Y-68274526D01*
X112110973Y-68274526D01*
X112059868Y-68347512D01*
X112059866Y-68347516D01*
X111963734Y-68553673D01*
X111963730Y-68553682D01*
X111904860Y-68773389D01*
X111904858Y-68773400D01*
X111885034Y-68999997D01*
X111885034Y-69000002D01*
X111904858Y-69226599D01*
X111904860Y-69226610D01*
X111963730Y-69446317D01*
X111963734Y-69446326D01*
X112059865Y-69652481D01*
X112059868Y-69652485D01*
X112068812Y-69665260D01*
X112091138Y-69731467D01*
X112074125Y-69799234D01*
X112041549Y-69835645D01*
X112032456Y-69842452D01*
X112032451Y-69842457D01*
X111946206Y-69957664D01*
X111946202Y-69957671D01*
X111895908Y-70092517D01*
X111889501Y-70152116D01*
X111889500Y-70152135D01*
X111889500Y-71847870D01*
X111889501Y-71847876D01*
X111895908Y-71907483D01*
X111946202Y-72042328D01*
X111946206Y-72042335D01*
X112032452Y-72157544D01*
X112032455Y-72157547D01*
X112147664Y-72243793D01*
X112147671Y-72243797D01*
X112282517Y-72294091D01*
X112282516Y-72294091D01*
X112289444Y-72294835D01*
X112342127Y-72300500D01*
X114037872Y-72300499D01*
X114097483Y-72294091D01*
X114116541Y-72286982D01*
X114132895Y-72282136D01*
X114134177Y-72281850D01*
X114134177Y-72281849D01*
X114134181Y-72281849D01*
X114151951Y-72274001D01*
X114158658Y-72271273D01*
X114232331Y-72243796D01*
X114238235Y-72239375D01*
X114262466Y-72225205D01*
X114265802Y-72223733D01*
X114690372Y-71958375D01*
X114757651Y-71939539D01*
X114824437Y-71960066D01*
X114843770Y-71975848D01*
X116353181Y-73485258D01*
X116386666Y-73546581D01*
X116389500Y-73572939D01*
X116389500Y-86895500D01*
X116369815Y-86962539D01*
X116317011Y-87008294D01*
X116265500Y-87019500D01*
X111757119Y-87019500D01*
X111702203Y-87006677D01*
X111620590Y-86966364D01*
X110541204Y-86433197D01*
X110526255Y-86426115D01*
X110526231Y-86426104D01*
X110525569Y-86425803D01*
X110525559Y-86425799D01*
X110484133Y-86410375D01*
X110474996Y-86406551D01*
X110446496Y-86393261D01*
X110446492Y-86393260D01*
X110446488Y-86393258D01*
X110226697Y-86334366D01*
X110226693Y-86334365D01*
X110226692Y-86334365D01*
X110226691Y-86334364D01*
X110226686Y-86334364D01*
X110000002Y-86314532D01*
X109999998Y-86314532D01*
X109773313Y-86334364D01*
X109773302Y-86334366D01*
X109553511Y-86393258D01*
X109553502Y-86393261D01*
X109347267Y-86489431D01*
X109347265Y-86489432D01*
X109160858Y-86619954D01*
X108999954Y-86780858D01*
X108869432Y-86967265D01*
X108869431Y-86967267D01*
X108773261Y-87173502D01*
X108773258Y-87173511D01*
X108714366Y-87393302D01*
X108714364Y-87393313D01*
X108694532Y-87619998D01*
X108694532Y-87620001D01*
X106870068Y-87620001D01*
X107073228Y-87510057D01*
X107073231Y-87510055D01*
X107120056Y-87473609D01*
X106421568Y-86775121D01*
X106538458Y-86724349D01*
X106655739Y-86628934D01*
X106742928Y-86505415D01*
X106773354Y-86419802D01*
X107473434Y-87119882D01*
X107573731Y-86966369D01*
X107673587Y-86738717D01*
X107734612Y-86497738D01*
X107734614Y-86497729D01*
X107755141Y-86250005D01*
X107755141Y-86249994D01*
X107734614Y-86002270D01*
X107734612Y-86002261D01*
X107673587Y-85761282D01*
X107573731Y-85533630D01*
X107473434Y-85380116D01*
X106775929Y-86077622D01*
X106773116Y-86064085D01*
X106703558Y-85929844D01*
X106600362Y-85819348D01*
X106471181Y-85740791D01*
X106419997Y-85726450D01*
X107120057Y-85026390D01*
X107120056Y-85026389D01*
X107073229Y-84989943D01*
X106854614Y-84871635D01*
X106854603Y-84871630D01*
X106619493Y-84790916D01*
X106374293Y-84750000D01*
X106125707Y-84750000D01*
X105880506Y-84790916D01*
X105645396Y-84871630D01*
X105645390Y-84871632D01*
X105426761Y-84989949D01*
X105379942Y-85026388D01*
X105379942Y-85026390D01*
X106078431Y-85724878D01*
X105961542Y-85775651D01*
X105844261Y-85871066D01*
X105757072Y-85994585D01*
X105726645Y-86080197D01*
X105026564Y-85380116D01*
X104926267Y-85533632D01*
X104826412Y-85761282D01*
X104765387Y-86002261D01*
X104765385Y-86002270D01*
X104744859Y-86249994D01*
X104744859Y-86250005D01*
X101255141Y-86250005D01*
X101255141Y-86249994D01*
X101234614Y-86002270D01*
X101234612Y-86002261D01*
X101173587Y-85761282D01*
X101073731Y-85533630D01*
X100973434Y-85380116D01*
X100275929Y-86077622D01*
X100273116Y-86064085D01*
X100203558Y-85929844D01*
X100100362Y-85819348D01*
X99971181Y-85740791D01*
X99919997Y-85726450D01*
X100620057Y-85026390D01*
X100620056Y-85026389D01*
X100573229Y-84989943D01*
X100354614Y-84871635D01*
X100354603Y-84871630D01*
X100119493Y-84790916D01*
X99874293Y-84750000D01*
X99625707Y-84750000D01*
X99380506Y-84790916D01*
X99145396Y-84871630D01*
X99145390Y-84871632D01*
X98926761Y-84989949D01*
X98879942Y-85026388D01*
X98879942Y-85026390D01*
X99578431Y-85724878D01*
X99461542Y-85775651D01*
X99344261Y-85871066D01*
X99257072Y-85994585D01*
X99226645Y-86080197D01*
X98526564Y-85380116D01*
X98426267Y-85533632D01*
X98326412Y-85761282D01*
X98265387Y-86002261D01*
X98265385Y-86002270D01*
X98244859Y-86249994D01*
X98244859Y-86250005D01*
X96000000Y-86250005D01*
X96000000Y-81750005D01*
X98244357Y-81750005D01*
X98264890Y-81997812D01*
X98264892Y-81997824D01*
X98325936Y-82238881D01*
X98425826Y-82466606D01*
X98561833Y-82674782D01*
X98561836Y-82674785D01*
X98730256Y-82857738D01*
X98926491Y-83010474D01*
X99145190Y-83128828D01*
X99380386Y-83209571D01*
X99625665Y-83250500D01*
X99874335Y-83250500D01*
X100119614Y-83209571D01*
X100354810Y-83128828D01*
X100573509Y-83010474D01*
X100769744Y-82857738D01*
X100938164Y-82674785D01*
X101074173Y-82466607D01*
X101174063Y-82238881D01*
X101235108Y-81997821D01*
X101242947Y-81903216D01*
X101255643Y-81750005D01*
X104744357Y-81750005D01*
X104764890Y-81997812D01*
X104764892Y-81997824D01*
X104825936Y-82238881D01*
X104925826Y-82466606D01*
X105061833Y-82674782D01*
X105061836Y-82674785D01*
X105230256Y-82857738D01*
X105426491Y-83010474D01*
X105645190Y-83128828D01*
X105880386Y-83209571D01*
X106125665Y-83250500D01*
X106374335Y-83250500D01*
X106619614Y-83209571D01*
X106854810Y-83128828D01*
X107073509Y-83010474D01*
X107269744Y-82857738D01*
X107438164Y-82674785D01*
X107574173Y-82466607D01*
X107674063Y-82238881D01*
X107735108Y-81997821D01*
X107742947Y-81903216D01*
X107755643Y-81750005D01*
X107755643Y-81749994D01*
X107735109Y-81502187D01*
X107735107Y-81502175D01*
X107674063Y-81261118D01*
X107574173Y-81033393D01*
X107438166Y-80825217D01*
X107320812Y-80697737D01*
X107269744Y-80642262D01*
X107073509Y-80489526D01*
X107073507Y-80489525D01*
X107073506Y-80489524D01*
X106854811Y-80371172D01*
X106854802Y-80371169D01*
X106619616Y-80290429D01*
X106374335Y-80249500D01*
X106125665Y-80249500D01*
X105880383Y-80290429D01*
X105645197Y-80371169D01*
X105645188Y-80371172D01*
X105426493Y-80489524D01*
X105230257Y-80642261D01*
X105061833Y-80825217D01*
X104925826Y-81033393D01*
X104825936Y-81261118D01*
X104764892Y-81502175D01*
X104764890Y-81502187D01*
X104744357Y-81749994D01*
X104744357Y-81750005D01*
X101255643Y-81750005D01*
X101255643Y-81749994D01*
X101235109Y-81502187D01*
X101235107Y-81502175D01*
X101174063Y-81261118D01*
X101074173Y-81033393D01*
X100938166Y-80825217D01*
X100820812Y-80697737D01*
X100769744Y-80642262D01*
X100573509Y-80489526D01*
X100573507Y-80489525D01*
X100573506Y-80489524D01*
X100354811Y-80371172D01*
X100354802Y-80371169D01*
X100119616Y-80290429D01*
X99874335Y-80249500D01*
X99625665Y-80249500D01*
X99380383Y-80290429D01*
X99145197Y-80371169D01*
X99145188Y-80371172D01*
X98926493Y-80489524D01*
X98730257Y-80642261D01*
X98561833Y-80825217D01*
X98425826Y-81033393D01*
X98325936Y-81261118D01*
X98264892Y-81502175D01*
X98264890Y-81502187D01*
X98244357Y-81749994D01*
X98244357Y-81750005D01*
X96000000Y-81750005D01*
X96000000Y-80000001D01*
X108694532Y-80000001D01*
X108714364Y-80226686D01*
X108714366Y-80226697D01*
X108773258Y-80446488D01*
X108773261Y-80446497D01*
X108869431Y-80652732D01*
X108869432Y-80652734D01*
X108999954Y-80839141D01*
X109160858Y-81000045D01*
X109160861Y-81000047D01*
X109347266Y-81130568D01*
X109553504Y-81226739D01*
X109773308Y-81285635D01*
X109935230Y-81299801D01*
X109999998Y-81305468D01*
X110000000Y-81305468D01*
X110000002Y-81305468D01*
X110056673Y-81300509D01*
X110226692Y-81285635D01*
X110446496Y-81226739D01*
X110652734Y-81130568D01*
X110839139Y-81000047D01*
X111000047Y-80839139D01*
X111130568Y-80652734D01*
X111226739Y-80446496D01*
X111285635Y-80226692D01*
X111305468Y-80000000D01*
X111304996Y-79994609D01*
X111285635Y-79773313D01*
X111285635Y-79773308D01*
X111226739Y-79553504D01*
X111130568Y-79347266D01*
X111000047Y-79160861D01*
X111000045Y-79160858D01*
X110839141Y-78999954D01*
X110652734Y-78869432D01*
X110652732Y-78869431D01*
X110446497Y-78773261D01*
X110446488Y-78773258D01*
X110226697Y-78714366D01*
X110226693Y-78714365D01*
X110226692Y-78714365D01*
X110226691Y-78714364D01*
X110226686Y-78714364D01*
X110000002Y-78694532D01*
X109999998Y-78694532D01*
X109773313Y-78714364D01*
X109773302Y-78714366D01*
X109553511Y-78773258D01*
X109553502Y-78773261D01*
X109347267Y-78869431D01*
X109347265Y-78869432D01*
X109160858Y-78999954D01*
X108999954Y-79160858D01*
X108869432Y-79347265D01*
X108869431Y-79347267D01*
X108773261Y-79553502D01*
X108773258Y-79553511D01*
X108714366Y-79773302D01*
X108714364Y-79773313D01*
X108694532Y-79999998D01*
X108694532Y-80000001D01*
X96000000Y-80000001D01*
X96000000Y-76000005D01*
X97495057Y-76000005D01*
X97514807Y-76313942D01*
X97514808Y-76313949D01*
X97573755Y-76622958D01*
X97670963Y-76922132D01*
X97670965Y-76922137D01*
X97804900Y-77206761D01*
X97804903Y-77206767D01*
X97973457Y-77472367D01*
X97973460Y-77472371D01*
X98064286Y-77582160D01*
X99029438Y-76617007D01*
X99078348Y-76695999D01*
X99221931Y-76853501D01*
X99380388Y-76973163D01*
X98414971Y-77938579D01*
X98414972Y-77938581D01*
X98657772Y-78114985D01*
X98657790Y-78114996D01*
X98933447Y-78266540D01*
X98933455Y-78266544D01*
X99225926Y-78382340D01*
X99530620Y-78460573D01*
X99530629Y-78460575D01*
X99842701Y-78499999D01*
X99842715Y-78500000D01*
X100157285Y-78500000D01*
X100157298Y-78499999D01*
X100469370Y-78460575D01*
X100469379Y-78460573D01*
X100774073Y-78382340D01*
X101066544Y-78266544D01*
X101066552Y-78266540D01*
X101342209Y-78114996D01*
X101342219Y-78114990D01*
X101585026Y-77938579D01*
X101585027Y-77938579D01*
X100619611Y-76973163D01*
X100778069Y-76853501D01*
X100921652Y-76695999D01*
X100970560Y-76617008D01*
X101935712Y-77582160D01*
X102026544Y-77472364D01*
X102195096Y-77206767D01*
X102195099Y-77206761D01*
X102329034Y-76922137D01*
X102329036Y-76922132D01*
X102426244Y-76622958D01*
X102485191Y-76313949D01*
X102485192Y-76313942D01*
X102504943Y-76000005D01*
X102504943Y-75999994D01*
X102485192Y-75686057D01*
X102485191Y-75686050D01*
X102426244Y-75377041D01*
X102329036Y-75077867D01*
X102329034Y-75077862D01*
X102292396Y-75000002D01*
X111695034Y-75000002D01*
X111714858Y-75226599D01*
X111714860Y-75226610D01*
X111773730Y-75446317D01*
X111773734Y-75446326D01*
X111869865Y-75652481D01*
X111869868Y-75652485D01*
X111878812Y-75665260D01*
X111901138Y-75731467D01*
X111884125Y-75799234D01*
X111851549Y-75835645D01*
X111842456Y-75842452D01*
X111842451Y-75842457D01*
X111756206Y-75957664D01*
X111756202Y-75957671D01*
X111705908Y-76092517D01*
X111699501Y-76152116D01*
X111699501Y-76152123D01*
X111699500Y-76152135D01*
X111699500Y-77847870D01*
X111699501Y-77847876D01*
X111705908Y-77907483D01*
X111756202Y-78042328D01*
X111756206Y-78042335D01*
X111842452Y-78157544D01*
X111842455Y-78157547D01*
X111957664Y-78243793D01*
X111957671Y-78243797D01*
X112092517Y-78294091D01*
X112092516Y-78294091D01*
X112099444Y-78294835D01*
X112152127Y-78300500D01*
X113847872Y-78300499D01*
X113907483Y-78294091D01*
X114042331Y-78243796D01*
X114157546Y-78157546D01*
X114243796Y-78042331D01*
X114294091Y-77907483D01*
X114300500Y-77847873D01*
X114300499Y-76152128D01*
X114294091Y-76092517D01*
X114259586Y-76000005D01*
X114243797Y-75957671D01*
X114243793Y-75957664D01*
X114157547Y-75842456D01*
X114157548Y-75842456D01*
X114157546Y-75842454D01*
X114148449Y-75835644D01*
X114106581Y-75779710D01*
X114101599Y-75710018D01*
X114121191Y-75665253D01*
X114130134Y-75652481D01*
X114226265Y-75446326D01*
X114226269Y-75446317D01*
X114285139Y-75226610D01*
X114285141Y-75226599D01*
X114304966Y-75000002D01*
X114304966Y-74999997D01*
X114285141Y-74773400D01*
X114285139Y-74773389D01*
X114226269Y-74553682D01*
X114226264Y-74553668D01*
X114130136Y-74347521D01*
X114130132Y-74347513D01*
X114079025Y-74274526D01*
X113397953Y-74955597D01*
X113385165Y-74874852D01*
X113327641Y-74761955D01*
X113238045Y-74672359D01*
X113125148Y-74614835D01*
X113044401Y-74602046D01*
X113725472Y-73920974D01*
X113652478Y-73869863D01*
X113446331Y-73773735D01*
X113446317Y-73773730D01*
X113226610Y-73714860D01*
X113226599Y-73714858D01*
X113000002Y-73695034D01*
X112999998Y-73695034D01*
X112773400Y-73714858D01*
X112773389Y-73714860D01*
X112553682Y-73773730D01*
X112553673Y-73773734D01*
X112347516Y-73869866D01*
X112347512Y-73869868D01*
X112274526Y-73920973D01*
X112274526Y-73920974D01*
X112955599Y-74602046D01*
X112874852Y-74614835D01*
X112761955Y-74672359D01*
X112672359Y-74761955D01*
X112614835Y-74874852D01*
X112602046Y-74955598D01*
X111920974Y-74274526D01*
X111920973Y-74274526D01*
X111869868Y-74347512D01*
X111869866Y-74347516D01*
X111773734Y-74553673D01*
X111773730Y-74553682D01*
X111714860Y-74773389D01*
X111714858Y-74773400D01*
X111695034Y-74999997D01*
X111695034Y-75000002D01*
X102292396Y-75000002D01*
X102195099Y-74793238D01*
X102195096Y-74793232D01*
X102026542Y-74527632D01*
X102026539Y-74527628D01*
X101935712Y-74417838D01*
X100970560Y-75382991D01*
X100921652Y-75304001D01*
X100778069Y-75146499D01*
X100619611Y-75026836D01*
X101585027Y-74061419D01*
X101585026Y-74061417D01*
X101342227Y-73885014D01*
X101342209Y-73885003D01*
X101066552Y-73733459D01*
X101066544Y-73733455D01*
X100774073Y-73617659D01*
X100469379Y-73539426D01*
X100469370Y-73539424D01*
X100157298Y-73500000D01*
X99842701Y-73500000D01*
X99530629Y-73539424D01*
X99530620Y-73539426D01*
X99225926Y-73617659D01*
X98933455Y-73733455D01*
X98933447Y-73733459D01*
X98657787Y-73885004D01*
X98657782Y-73885007D01*
X98414972Y-74061418D01*
X98414971Y-74061419D01*
X99380388Y-75026836D01*
X99221931Y-75146499D01*
X99078348Y-75304001D01*
X99029439Y-75382991D01*
X98064286Y-74417838D01*
X98064285Y-74417838D01*
X97973459Y-74527629D01*
X97973457Y-74527632D01*
X97804903Y-74793232D01*
X97804900Y-74793238D01*
X97670965Y-75077862D01*
X97670963Y-75077867D01*
X97573755Y-75377041D01*
X97514808Y-75686050D01*
X97514807Y-75686057D01*
X97495057Y-75999994D01*
X97495057Y-76000005D01*
X96000000Y-76000005D01*
X96000000Y-68750001D01*
X101554532Y-68750001D01*
X101574364Y-68976686D01*
X101574366Y-68976697D01*
X101633258Y-69196488D01*
X101633261Y-69196497D01*
X101729431Y-69402732D01*
X101729432Y-69402734D01*
X101859954Y-69589141D01*
X102020858Y-69750045D01*
X102062538Y-69779229D01*
X102207266Y-69880568D01*
X102222975Y-69887893D01*
X102275414Y-69934064D01*
X102294567Y-70001257D01*
X102274352Y-70068138D01*
X102222979Y-70112656D01*
X102207514Y-70119867D01*
X102207512Y-70119868D01*
X102134526Y-70170973D01*
X102134526Y-70170974D01*
X102749548Y-70785995D01*
X102724801Y-70789554D01*
X102600555Y-70846295D01*
X102497327Y-70935742D01*
X102423481Y-71050649D01*
X102397064Y-71140616D01*
X101780974Y-70524526D01*
X101780973Y-70524526D01*
X101729868Y-70597512D01*
X101729866Y-70597516D01*
X101633734Y-70803673D01*
X101633730Y-70803682D01*
X101574860Y-71023389D01*
X101574858Y-71023400D01*
X101555034Y-71249997D01*
X101555034Y-71250002D01*
X101574858Y-71476599D01*
X101574860Y-71476610D01*
X101633730Y-71696317D01*
X101633735Y-71696331D01*
X101729863Y-71902478D01*
X101780974Y-71975472D01*
X102397064Y-71359382D01*
X102423481Y-71449351D01*
X102497327Y-71564258D01*
X102600555Y-71653705D01*
X102724801Y-71710446D01*
X102749547Y-71714003D01*
X102134526Y-72329025D01*
X102207513Y-72380132D01*
X102207521Y-72380136D01*
X102413668Y-72476264D01*
X102413682Y-72476269D01*
X102633389Y-72535139D01*
X102633400Y-72535141D01*
X102859998Y-72554966D01*
X102860002Y-72554966D01*
X103086599Y-72535141D01*
X103086610Y-72535139D01*
X103306317Y-72476269D01*
X103306326Y-72476265D01*
X103512481Y-72380134D01*
X103525253Y-72371191D01*
X103591459Y-72348862D01*
X103659227Y-72365870D01*
X103695644Y-72398449D01*
X103702454Y-72407546D01*
X103748643Y-72442123D01*
X103817664Y-72493793D01*
X103817671Y-72493797D01*
X103952517Y-72544091D01*
X103952516Y-72544091D01*
X103959444Y-72544835D01*
X104012127Y-72550500D01*
X105707872Y-72550499D01*
X105767483Y-72544091D01*
X105902331Y-72493796D01*
X106017546Y-72407546D01*
X106103796Y-72292331D01*
X106154091Y-72157483D01*
X106160500Y-72097873D01*
X106160499Y-70402128D01*
X106154091Y-70342517D01*
X106153241Y-70340239D01*
X106103797Y-70207671D01*
X106103793Y-70207664D01*
X106017547Y-70092455D01*
X106017544Y-70092452D01*
X105902335Y-70006206D01*
X105902328Y-70006202D01*
X105805604Y-69970127D01*
X105749670Y-69928256D01*
X105725253Y-69862792D01*
X105740104Y-69794519D01*
X105789509Y-69745113D01*
X105793989Y-69742784D01*
X106562201Y-69363322D01*
X106617117Y-69350500D01*
X108402513Y-69350500D01*
X108418697Y-69351560D01*
X108450000Y-69355682D01*
X108450001Y-69355682D01*
X108502254Y-69348802D01*
X108606762Y-69335044D01*
X108752841Y-69274536D01*
X108784194Y-69250478D01*
X108878282Y-69178282D01*
X108897510Y-69153222D01*
X108908189Y-69141044D01*
X120612416Y-57436819D01*
X120673739Y-57403334D01*
X120700097Y-57400500D01*
X126974975Y-57400500D01*
X127017506Y-57408022D01*
X127340031Y-57525789D01*
X127401312Y-57548165D01*
X127441824Y-57561054D01*
X127443230Y-57561228D01*
X127468956Y-57567246D01*
X127520745Y-57585368D01*
X127520749Y-57585368D01*
X127520751Y-57585369D01*
X127699996Y-57605565D01*
X127700000Y-57605565D01*
X127700004Y-57605565D01*
X127879249Y-57585369D01*
X127879252Y-57585368D01*
X127879255Y-57585368D01*
X128049522Y-57525789D01*
X128202262Y-57429816D01*
X128329816Y-57302262D01*
X128425789Y-57149522D01*
X128485368Y-56979255D01*
X128485369Y-56979249D01*
X128505565Y-56800003D01*
X128505565Y-56799996D01*
X128485369Y-56620750D01*
X128485368Y-56620745D01*
X128470011Y-56576858D01*
X128425789Y-56450478D01*
X128329816Y-56297738D01*
X128202262Y-56170184D01*
X128049523Y-56074211D01*
X127879254Y-56014631D01*
X127879249Y-56014630D01*
X127700004Y-55994435D01*
X127699996Y-55994435D01*
X127519770Y-56014741D01*
X127450948Y-56002686D01*
X127399569Y-55955337D01*
X127388220Y-55927124D01*
X127387668Y-55927318D01*
X127330917Y-55765133D01*
X127327356Y-55695354D01*
X127362085Y-55634726D01*
X127420247Y-55604490D01*
X127420011Y-55603557D01*
X127423972Y-55602553D01*
X127424078Y-55602499D01*
X127424469Y-55602427D01*
X127424982Y-55602298D01*
X127503146Y-55575464D01*
X127644503Y-55526936D01*
X127848626Y-55416470D01*
X127849170Y-55416047D01*
X128004090Y-55295468D01*
X128031784Y-55273913D01*
X128188979Y-55103153D01*
X128246191Y-55015582D01*
X128299337Y-54970226D01*
X128368568Y-54960802D01*
X128431904Y-54990304D01*
X128453809Y-55015583D01*
X128511016Y-55103147D01*
X128511019Y-55103151D01*
X128511021Y-55103153D01*
X128668216Y-55273913D01*
X128668219Y-55273915D01*
X128668222Y-55273918D01*
X128851365Y-55416464D01*
X128851371Y-55416468D01*
X128851374Y-55416470D01*
X128968425Y-55479815D01*
X129054652Y-55526479D01*
X129055497Y-55526936D01*
X129169487Y-55566068D01*
X129275015Y-55602297D01*
X129275017Y-55602297D01*
X129275019Y-55602298D01*
X129503951Y-55640500D01*
X129503952Y-55640500D01*
X129736048Y-55640500D01*
X129736049Y-55640500D01*
X129964981Y-55602298D01*
X130184503Y-55526936D01*
X130388626Y-55416470D01*
X130389170Y-55416047D01*
X130544090Y-55295468D01*
X130571784Y-55273913D01*
X130728979Y-55103153D01*
X130786490Y-55015124D01*
X130839635Y-54969769D01*
X130908866Y-54960345D01*
X130972202Y-54989846D01*
X130994107Y-55015125D01*
X131008812Y-55037633D01*
X131676922Y-54369523D01*
X131700507Y-54449844D01*
X131778239Y-54570798D01*
X131886900Y-54664952D01*
X132017685Y-54724680D01*
X132027466Y-54726086D01*
X131361201Y-55392351D01*
X131391649Y-55416050D01*
X131595697Y-55526476D01*
X131595706Y-55526479D01*
X131815139Y-55601811D01*
X132043993Y-55640000D01*
X132276007Y-55640000D01*
X132504860Y-55601811D01*
X132724293Y-55526479D01*
X132724301Y-55526476D01*
X132928355Y-55416047D01*
X132958797Y-55392351D01*
X132958798Y-55392350D01*
X132292534Y-54726086D01*
X132302315Y-54724680D01*
X132433100Y-54664952D01*
X132541761Y-54570798D01*
X132619493Y-54449844D01*
X132643076Y-54369523D01*
X133311186Y-55037633D01*
X133395482Y-54908611D01*
X133488682Y-54696135D01*
X133545638Y-54471218D01*
X133564798Y-54240005D01*
X133564798Y-54239994D01*
X133545638Y-54008781D01*
X133488682Y-53783864D01*
X133395484Y-53571393D01*
X133311186Y-53442365D01*
X132643076Y-54110475D01*
X132619493Y-54030156D01*
X132541761Y-53909202D01*
X132433100Y-53815048D01*
X132302315Y-53755320D01*
X132292532Y-53753913D01*
X132958797Y-53087647D01*
X132958797Y-53087645D01*
X132928360Y-53063955D01*
X132928354Y-53063951D01*
X132724302Y-52953523D01*
X132724293Y-52953520D01*
X132504860Y-52878188D01*
X132276007Y-52840000D01*
X132043993Y-52840000D01*
X131815139Y-52878188D01*
X131595706Y-52953520D01*
X131595697Y-52953523D01*
X131391650Y-53063949D01*
X131361200Y-53087647D01*
X132027467Y-53753913D01*
X132017685Y-53755320D01*
X131886900Y-53815048D01*
X131778239Y-53909202D01*
X131700507Y-54030156D01*
X131676922Y-54110476D01*
X131008811Y-53442365D01*
X130994106Y-53464873D01*
X130940959Y-53510230D01*
X130871728Y-53519653D01*
X130808392Y-53490150D01*
X130786489Y-53464873D01*
X130786190Y-53464416D01*
X130728979Y-53376847D01*
X130571784Y-53206087D01*
X130571779Y-53206083D01*
X130571777Y-53206081D01*
X130388634Y-53063535D01*
X130388628Y-53063531D01*
X130184504Y-52953064D01*
X130184495Y-52953061D01*
X129964984Y-52877702D01*
X129793282Y-52849050D01*
X129736049Y-52839500D01*
X129503951Y-52839500D01*
X129458164Y-52847140D01*
X129275015Y-52877702D01*
X129055504Y-52953061D01*
X129055495Y-52953064D01*
X128851371Y-53063531D01*
X128851365Y-53063535D01*
X128668222Y-53206081D01*
X128668219Y-53206084D01*
X128511016Y-53376852D01*
X128453809Y-53464416D01*
X128400662Y-53509773D01*
X128331431Y-53519197D01*
X128268095Y-53489695D01*
X128246191Y-53464416D01*
X128188983Y-53376852D01*
X128188980Y-53376849D01*
X128188979Y-53376847D01*
X128031784Y-53206087D01*
X128031779Y-53206083D01*
X128031777Y-53206081D01*
X127848634Y-53063535D01*
X127848628Y-53063531D01*
X127644504Y-52953064D01*
X127644495Y-52953061D01*
X127424984Y-52877702D01*
X127253282Y-52849050D01*
X127196049Y-52839500D01*
X126963951Y-52839500D01*
X126918164Y-52847140D01*
X126735015Y-52877702D01*
X126515504Y-52953061D01*
X126515495Y-52953064D01*
X126311371Y-53063531D01*
X126311365Y-53063535D01*
X126128222Y-53206081D01*
X126128219Y-53206084D01*
X125971016Y-53376852D01*
X125913809Y-53464416D01*
X125860662Y-53509773D01*
X125791431Y-53519197D01*
X125728095Y-53489695D01*
X125706191Y-53464416D01*
X125648983Y-53376852D01*
X125648980Y-53376849D01*
X125648979Y-53376847D01*
X125491784Y-53206087D01*
X125491779Y-53206083D01*
X125491777Y-53206081D01*
X125308634Y-53063535D01*
X125308628Y-53063531D01*
X125104504Y-52953064D01*
X125104495Y-52953061D01*
X124884984Y-52877702D01*
X124713282Y-52849050D01*
X124656049Y-52839500D01*
X124423951Y-52839500D01*
X124378164Y-52847140D01*
X124195015Y-52877702D01*
X123975504Y-52953061D01*
X123975495Y-52953064D01*
X123771371Y-53063531D01*
X123771365Y-53063535D01*
X123588222Y-53206081D01*
X123588219Y-53206084D01*
X123431016Y-53376852D01*
X123304075Y-53571151D01*
X123210842Y-53783699D01*
X123153866Y-54008691D01*
X123153864Y-54008702D01*
X123134700Y-54239993D01*
X123134700Y-54240006D01*
X123153864Y-54471297D01*
X123153866Y-54471308D01*
X123210842Y-54696300D01*
X123304075Y-54908848D01*
X123431016Y-55103147D01*
X123431019Y-55103151D01*
X123431021Y-55103153D01*
X123559586Y-55242812D01*
X123588218Y-55273915D01*
X123593011Y-55277645D01*
X123633825Y-55334354D01*
X123637501Y-55404127D01*
X123602872Y-55464811D01*
X123540931Y-55497139D01*
X123516851Y-55499500D01*
X118547487Y-55499500D01*
X118531302Y-55498439D01*
X118500000Y-55494318D01*
X118499999Y-55494318D01*
X118343239Y-55514955D01*
X118343234Y-55514957D01*
X118197163Y-55575461D01*
X118197158Y-55575464D01*
X118115313Y-55638266D01*
X118071717Y-55671717D01*
X118052493Y-55696770D01*
X118041801Y-55708961D01*
X111295829Y-62454934D01*
X111234506Y-62488419D01*
X111164814Y-62483435D01*
X111108881Y-62441563D01*
X111084464Y-62376099D01*
X111099316Y-62307826D01*
X111106575Y-62296127D01*
X111130132Y-62262485D01*
X111130133Y-62262483D01*
X111226265Y-62056326D01*
X111226269Y-62056317D01*
X111278872Y-61860000D01*
X110315686Y-61860000D01*
X110327641Y-61848045D01*
X110385165Y-61735148D01*
X110404986Y-61610000D01*
X110385165Y-61484852D01*
X110327641Y-61371955D01*
X110315686Y-61360000D01*
X111278872Y-61360000D01*
X111278872Y-61359999D01*
X111226269Y-61163682D01*
X111226265Y-61163673D01*
X111130134Y-60957517D01*
X110999657Y-60771179D01*
X110838820Y-60610342D01*
X110652482Y-60479865D01*
X110446328Y-60383734D01*
X110250000Y-60331127D01*
X110250000Y-61294314D01*
X110238045Y-61282359D01*
X110125148Y-61224835D01*
X110031481Y-61210000D01*
X109968519Y-61210000D01*
X109874852Y-61224835D01*
X109761955Y-61282359D01*
X109750000Y-61294314D01*
X109750000Y-60331127D01*
X109553671Y-60383734D01*
X109347517Y-60479865D01*
X109161179Y-60610342D01*
X109000342Y-60771179D01*
X108869865Y-60957517D01*
X108773734Y-61163673D01*
X108773730Y-61163682D01*
X108721127Y-61359999D01*
X108721128Y-61360000D01*
X109684314Y-61360000D01*
X109672359Y-61371955D01*
X109614835Y-61484852D01*
X109595014Y-61610000D01*
X109614835Y-61735148D01*
X109672359Y-61848045D01*
X109684314Y-61860000D01*
X108721128Y-61860000D01*
X108773730Y-62056317D01*
X108773734Y-62056326D01*
X108869865Y-62262482D01*
X109000342Y-62448820D01*
X109161179Y-62609657D01*
X109347517Y-62740134D01*
X109553673Y-62836265D01*
X109553682Y-62836269D01*
X109749999Y-62888872D01*
X109750000Y-62888871D01*
X109750000Y-61925686D01*
X109761955Y-61937641D01*
X109874852Y-61995165D01*
X109968519Y-62010000D01*
X110031481Y-62010000D01*
X110125148Y-61995165D01*
X110238045Y-61937641D01*
X110250000Y-61925686D01*
X110250000Y-62888872D01*
X110446317Y-62836269D01*
X110446326Y-62836265D01*
X110652483Y-62740133D01*
X110652485Y-62740132D01*
X110686127Y-62716575D01*
X110752333Y-62694246D01*
X110820100Y-62711255D01*
X110867915Y-62762201D01*
X110880594Y-62830911D01*
X110854114Y-62895568D01*
X110844934Y-62905829D01*
X107487584Y-66263181D01*
X107426261Y-66296666D01*
X107399903Y-66299500D01*
X104757487Y-66299500D01*
X104741302Y-66298439D01*
X104710000Y-66294318D01*
X104709999Y-66294318D01*
X104649659Y-66302262D01*
X104553239Y-66314955D01*
X104553237Y-66314956D01*
X104407160Y-66375463D01*
X104281714Y-66471721D01*
X104262495Y-66496769D01*
X104251800Y-66508964D01*
X103677851Y-67082912D01*
X103629952Y-67112676D01*
X102437971Y-67516434D01*
X102430289Y-67518762D01*
X102413510Y-67523258D01*
X102413494Y-67523264D01*
X102407025Y-67526281D01*
X102396378Y-67530656D01*
X102387548Y-67533813D01*
X102386889Y-67534061D01*
X102323196Y-67563223D01*
X102317540Y-67566579D01*
X102317385Y-67566317D01*
X102303972Y-67574336D01*
X102207266Y-67619431D01*
X102020858Y-67749954D01*
X101859954Y-67910858D01*
X101729432Y-68097265D01*
X101729431Y-68097267D01*
X101633261Y-68303502D01*
X101633258Y-68303511D01*
X101574366Y-68523302D01*
X101574364Y-68523313D01*
X101554532Y-68749998D01*
X101554532Y-68750001D01*
X96000000Y-68750001D01*
X96000000Y-64000005D01*
X97495057Y-64000005D01*
X97514807Y-64313942D01*
X97514808Y-64313949D01*
X97573755Y-64622958D01*
X97670963Y-64922132D01*
X97670965Y-64922137D01*
X97804900Y-65206761D01*
X97804903Y-65206767D01*
X97973457Y-65472367D01*
X97973460Y-65472371D01*
X98064286Y-65582160D01*
X99029438Y-64617007D01*
X99078348Y-64695999D01*
X99221931Y-64853501D01*
X99380388Y-64973163D01*
X98414971Y-65938579D01*
X98414972Y-65938581D01*
X98657772Y-66114985D01*
X98657790Y-66114996D01*
X98933447Y-66266540D01*
X98933455Y-66266544D01*
X99225926Y-66382340D01*
X99530620Y-66460573D01*
X99530629Y-66460575D01*
X99842701Y-66499999D01*
X99842715Y-66500000D01*
X100157285Y-66500000D01*
X100157298Y-66499999D01*
X100469370Y-66460575D01*
X100469379Y-66460573D01*
X100774073Y-66382340D01*
X101066544Y-66266544D01*
X101066552Y-66266540D01*
X101342209Y-66114996D01*
X101342219Y-66114990D01*
X101585026Y-65938579D01*
X101585027Y-65938579D01*
X100619611Y-64973163D01*
X100778069Y-64853501D01*
X100921652Y-64695999D01*
X100970560Y-64617008D01*
X101935712Y-65582160D01*
X102026544Y-65472364D01*
X102195096Y-65206767D01*
X102195099Y-65206761D01*
X102329034Y-64922137D01*
X102329036Y-64922132D01*
X102426244Y-64622958D01*
X102485191Y-64313949D01*
X102485192Y-64313942D01*
X102504943Y-64000005D01*
X102504943Y-63999994D01*
X102485192Y-63686057D01*
X102485191Y-63686050D01*
X102426244Y-63377041D01*
X102329036Y-63077867D01*
X102329034Y-63077862D01*
X102195099Y-62793238D01*
X102195096Y-62793232D01*
X102026542Y-62527632D01*
X102026539Y-62527628D01*
X101935712Y-62417838D01*
X100970560Y-63382991D01*
X100921652Y-63304001D01*
X100778069Y-63146499D01*
X100619611Y-63026836D01*
X101585027Y-62061419D01*
X101585026Y-62061417D01*
X101342227Y-61885014D01*
X101342209Y-61885003D01*
X101066552Y-61733459D01*
X101066544Y-61733455D01*
X100774073Y-61617659D01*
X100469379Y-61539426D01*
X100469370Y-61539424D01*
X100157298Y-61500000D01*
X99842701Y-61500000D01*
X99530629Y-61539424D01*
X99530620Y-61539426D01*
X99225926Y-61617659D01*
X98933455Y-61733455D01*
X98933447Y-61733459D01*
X98657787Y-61885004D01*
X98657782Y-61885007D01*
X98414972Y-62061418D01*
X98414971Y-62061419D01*
X99380388Y-63026836D01*
X99221931Y-63146499D01*
X99078348Y-63304001D01*
X99029439Y-63382991D01*
X98064286Y-62417838D01*
X98064285Y-62417838D01*
X97973459Y-62527629D01*
X97973457Y-62527632D01*
X97804903Y-62793232D01*
X97804900Y-62793238D01*
X97670965Y-63077862D01*
X97670963Y-63077867D01*
X97573755Y-63377041D01*
X97514808Y-63686050D01*
X97514807Y-63686057D01*
X97495057Y-63999994D01*
X97495057Y-64000005D01*
X96000000Y-64000005D01*
X96000000Y-58500005D01*
X98244357Y-58500005D01*
X98264890Y-58747812D01*
X98264892Y-58747824D01*
X98325936Y-58988881D01*
X98425826Y-59216606D01*
X98561833Y-59424782D01*
X98561836Y-59424785D01*
X98730256Y-59607738D01*
X98926491Y-59760474D01*
X99145190Y-59878828D01*
X99380386Y-59959571D01*
X99625665Y-60000500D01*
X99874335Y-60000500D01*
X100119614Y-59959571D01*
X100354810Y-59878828D01*
X100573509Y-59760474D01*
X100769744Y-59607738D01*
X100938164Y-59424785D01*
X101074173Y-59216607D01*
X101174063Y-58988881D01*
X101235108Y-58747821D01*
X101255643Y-58500005D01*
X104744357Y-58500005D01*
X104764890Y-58747812D01*
X104764892Y-58747824D01*
X104825936Y-58988881D01*
X104925826Y-59216606D01*
X105061833Y-59424782D01*
X105061836Y-59424785D01*
X105230256Y-59607738D01*
X105426491Y-59760474D01*
X105645190Y-59878828D01*
X105880386Y-59959571D01*
X106125665Y-60000500D01*
X106374335Y-60000500D01*
X106619614Y-59959571D01*
X106854810Y-59878828D01*
X107073509Y-59760474D01*
X107269744Y-59607738D01*
X107438164Y-59424785D01*
X107574173Y-59216607D01*
X107674063Y-58988881D01*
X107735108Y-58747821D01*
X107755643Y-58500000D01*
X107735108Y-58252179D01*
X107674063Y-58011119D01*
X107574173Y-57783393D01*
X107457993Y-57605565D01*
X107438166Y-57575217D01*
X107392663Y-57525788D01*
X107269744Y-57392262D01*
X107073509Y-57239526D01*
X107073507Y-57239525D01*
X107073506Y-57239524D01*
X106854811Y-57121172D01*
X106854802Y-57121169D01*
X106619616Y-57040429D01*
X106374335Y-56999500D01*
X106125665Y-56999500D01*
X105880383Y-57040429D01*
X105645197Y-57121169D01*
X105645188Y-57121172D01*
X105426493Y-57239524D01*
X105230257Y-57392261D01*
X105061833Y-57575217D01*
X104925826Y-57783393D01*
X104825936Y-58011118D01*
X104764892Y-58252175D01*
X104764890Y-58252187D01*
X104744357Y-58499994D01*
X104744357Y-58500005D01*
X101255643Y-58500005D01*
X101255643Y-58500000D01*
X101235108Y-58252179D01*
X101174063Y-58011119D01*
X101074173Y-57783393D01*
X100957993Y-57605565D01*
X100938166Y-57575217D01*
X100892663Y-57525788D01*
X100769744Y-57392262D01*
X100573509Y-57239526D01*
X100573507Y-57239525D01*
X100573506Y-57239524D01*
X100354811Y-57121172D01*
X100354802Y-57121169D01*
X100119616Y-57040429D01*
X99874335Y-56999500D01*
X99625665Y-56999500D01*
X99380383Y-57040429D01*
X99145197Y-57121169D01*
X99145188Y-57121172D01*
X98926493Y-57239524D01*
X98730257Y-57392261D01*
X98561833Y-57575217D01*
X98425826Y-57783393D01*
X98325936Y-58011118D01*
X98264892Y-58252175D01*
X98264890Y-58252187D01*
X98244357Y-58499994D01*
X98244357Y-58500005D01*
X96000000Y-58500005D01*
X96000000Y-54000005D01*
X98244357Y-54000005D01*
X98264890Y-54247812D01*
X98264892Y-54247824D01*
X98325936Y-54488881D01*
X98425826Y-54716606D01*
X98561833Y-54924782D01*
X98561836Y-54924785D01*
X98730256Y-55107738D01*
X98926491Y-55260474D01*
X99145190Y-55378828D01*
X99380386Y-55459571D01*
X99625665Y-55500500D01*
X99874335Y-55500500D01*
X100119614Y-55459571D01*
X100354810Y-55378828D01*
X100573509Y-55260474D01*
X100769744Y-55107738D01*
X100938164Y-54924785D01*
X101074173Y-54716607D01*
X101174063Y-54488881D01*
X101235108Y-54247821D01*
X101237687Y-54216697D01*
X101255643Y-54000005D01*
X104744357Y-54000005D01*
X104764890Y-54247812D01*
X104764892Y-54247824D01*
X104825936Y-54488881D01*
X104925826Y-54716606D01*
X105061833Y-54924782D01*
X105061836Y-54924785D01*
X105230256Y-55107738D01*
X105426491Y-55260474D01*
X105645190Y-55378828D01*
X105880386Y-55459571D01*
X106125665Y-55500500D01*
X106374335Y-55500500D01*
X106619614Y-55459571D01*
X106854810Y-55378828D01*
X107073509Y-55260474D01*
X107269744Y-55107738D01*
X107438164Y-54924785D01*
X107574173Y-54716607D01*
X107674063Y-54488881D01*
X107735108Y-54247821D01*
X107737687Y-54216697D01*
X107755643Y-54000005D01*
X107755643Y-53999994D01*
X107754815Y-53990001D01*
X108694532Y-53990001D01*
X108714364Y-54216686D01*
X108714366Y-54216697D01*
X108773258Y-54436488D01*
X108773261Y-54436497D01*
X108869431Y-54642732D01*
X108869432Y-54642734D01*
X108999954Y-54829141D01*
X109160858Y-54990045D01*
X109207693Y-55022839D01*
X109347266Y-55120568D01*
X109553504Y-55216739D01*
X109773308Y-55275635D01*
X109935230Y-55289801D01*
X109999998Y-55295468D01*
X110000000Y-55295468D01*
X110000002Y-55295468D01*
X110056673Y-55290509D01*
X110226692Y-55275635D01*
X110446496Y-55216739D01*
X110652734Y-55120568D01*
X110839139Y-54990047D01*
X111000047Y-54829139D01*
X111130568Y-54642734D01*
X111226739Y-54436496D01*
X111285635Y-54216692D01*
X111305468Y-53990000D01*
X111285635Y-53763308D01*
X111226739Y-53543504D01*
X111130568Y-53337266D01*
X111000047Y-53150861D01*
X111000045Y-53150858D01*
X110839141Y-52989954D01*
X110652734Y-52859432D01*
X110652732Y-52859431D01*
X110446497Y-52763261D01*
X110446488Y-52763258D01*
X110226697Y-52704366D01*
X110226693Y-52704365D01*
X110226692Y-52704365D01*
X110226691Y-52704364D01*
X110226686Y-52704364D01*
X110000002Y-52684532D01*
X109999998Y-52684532D01*
X109773313Y-52704364D01*
X109773302Y-52704366D01*
X109553511Y-52763258D01*
X109553502Y-52763261D01*
X109347267Y-52859431D01*
X109347265Y-52859432D01*
X109160858Y-52989954D01*
X108999954Y-53150858D01*
X108869432Y-53337265D01*
X108869431Y-53337267D01*
X108773261Y-53543502D01*
X108773258Y-53543511D01*
X108714366Y-53763302D01*
X108714364Y-53763313D01*
X108694532Y-53989998D01*
X108694532Y-53990001D01*
X107754815Y-53990001D01*
X107735109Y-53752187D01*
X107735107Y-53752175D01*
X107674063Y-53511118D01*
X107574173Y-53283393D01*
X107438166Y-53075217D01*
X107416557Y-53051744D01*
X107269744Y-52892262D01*
X107073509Y-52739526D01*
X107073507Y-52739525D01*
X107073506Y-52739524D01*
X106854811Y-52621172D01*
X106854802Y-52621169D01*
X106619616Y-52540429D01*
X106374335Y-52499500D01*
X106125665Y-52499500D01*
X105880383Y-52540429D01*
X105645197Y-52621169D01*
X105645188Y-52621172D01*
X105426493Y-52739524D01*
X105230257Y-52892261D01*
X105061833Y-53075217D01*
X104925826Y-53283393D01*
X104825936Y-53511118D01*
X104764892Y-53752175D01*
X104764890Y-53752187D01*
X104744357Y-53999994D01*
X104744357Y-54000005D01*
X101255643Y-54000005D01*
X101255643Y-53999994D01*
X101235109Y-53752187D01*
X101235107Y-53752175D01*
X101174063Y-53511118D01*
X101074173Y-53283393D01*
X100938166Y-53075217D01*
X100916557Y-53051744D01*
X100769744Y-52892262D01*
X100573509Y-52739526D01*
X100573507Y-52739525D01*
X100573506Y-52739524D01*
X100354811Y-52621172D01*
X100354802Y-52621169D01*
X100119616Y-52540429D01*
X99874335Y-52499500D01*
X99625665Y-52499500D01*
X99380383Y-52540429D01*
X99145197Y-52621169D01*
X99145188Y-52621172D01*
X98926493Y-52739524D01*
X98730257Y-52892261D01*
X98561833Y-53075217D01*
X98425826Y-53283393D01*
X98325936Y-53511118D01*
X98264892Y-53752175D01*
X98264890Y-53752187D01*
X98244357Y-53999994D01*
X98244357Y-54000005D01*
X96000000Y-54000005D01*
X96000000Y-50102846D01*
X151785702Y-50102846D01*
X151795819Y-50341028D01*
X151795819Y-50341032D01*
X151846045Y-50574080D01*
X151934935Y-50795288D01*
X151934936Y-50795290D01*
X152059931Y-50998295D01*
X152217436Y-51177255D01*
X152402920Y-51327023D01*
X152611046Y-51443290D01*
X152736951Y-51487775D01*
X152835829Y-51522711D01*
X153070790Y-51562999D01*
X153070798Y-51562999D01*
X153070800Y-51563000D01*
X153070801Y-51563000D01*
X155049496Y-51563000D01*
X155049497Y-51563000D01*
X155049498Y-51562999D01*
X155049515Y-51562999D01*
X155227536Y-51547847D01*
X155227539Y-51547846D01*
X155227541Y-51547846D01*
X155458249Y-51487775D01*
X155657432Y-51397738D01*
X155675480Y-51389580D01*
X155675481Y-51389578D01*
X155675486Y-51389577D01*
X155873003Y-51256079D01*
X156045118Y-51091121D01*
X156186879Y-50899447D01*
X156294207Y-50686574D01*
X156364016Y-50458623D01*
X156394298Y-50222154D01*
X156384180Y-49983968D01*
X156333954Y-49750919D01*
X156245064Y-49529710D01*
X156120069Y-49326705D01*
X155962564Y-49147745D01*
X155777080Y-48997977D01*
X155663130Y-48934320D01*
X155568955Y-48881710D01*
X155344170Y-48802288D01*
X155109209Y-48762000D01*
X155109200Y-48762000D01*
X153130503Y-48762000D01*
X153130484Y-48762000D01*
X152952463Y-48777152D01*
X152721751Y-48837224D01*
X152504519Y-48935419D01*
X152504511Y-48935424D01*
X152307006Y-49068913D01*
X152306997Y-49068921D01*
X152134881Y-49233879D01*
X151993123Y-49425550D01*
X151993120Y-49425554D01*
X151885796Y-49638420D01*
X151885793Y-49638426D01*
X151815983Y-49866378D01*
X151785702Y-50102846D01*
X96000000Y-50102846D01*
X96000000Y-45000007D01*
X97744671Y-45000007D01*
X97763964Y-45294363D01*
X97763965Y-45294373D01*
X97763966Y-45294380D01*
X97763968Y-45294390D01*
X97821518Y-45583716D01*
X97821521Y-45583730D01*
X97916349Y-45863080D01*
X98046825Y-46127660D01*
X98046829Y-46127667D01*
X98210725Y-46372955D01*
X98405241Y-46594758D01*
X98627043Y-46789273D01*
X98872335Y-46953172D01*
X99136923Y-47083652D01*
X99416278Y-47178481D01*
X99705620Y-47236034D01*
X99733888Y-47237886D01*
X99999993Y-47255329D01*
X100000000Y-47255329D01*
X100000007Y-47255329D01*
X100235675Y-47239881D01*
X100294380Y-47236034D01*
X100583722Y-47178481D01*
X100863077Y-47083652D01*
X101127665Y-46953172D01*
X101372957Y-46789273D01*
X101594758Y-46594758D01*
X101789273Y-46372957D01*
X101953172Y-46127665D01*
X102083652Y-45863077D01*
X102178481Y-45583722D01*
X102236034Y-45294380D01*
X102255329Y-45000007D01*
X157744671Y-45000007D01*
X157763964Y-45294363D01*
X157763965Y-45294373D01*
X157763966Y-45294380D01*
X157763968Y-45294390D01*
X157821518Y-45583716D01*
X157821521Y-45583730D01*
X157916349Y-45863080D01*
X158046825Y-46127660D01*
X158046829Y-46127667D01*
X158210725Y-46372955D01*
X158405241Y-46594758D01*
X158627043Y-46789273D01*
X158872335Y-46953172D01*
X159136923Y-47083652D01*
X159416278Y-47178481D01*
X159705620Y-47236034D01*
X159733888Y-47237886D01*
X159999993Y-47255329D01*
X160000000Y-47255329D01*
X160000007Y-47255329D01*
X160235675Y-47239881D01*
X160294380Y-47236034D01*
X160583722Y-47178481D01*
X160863077Y-47083652D01*
X161127665Y-46953172D01*
X161372957Y-46789273D01*
X161594758Y-46594758D01*
X161789273Y-46372957D01*
X161953172Y-46127665D01*
X162083652Y-45863077D01*
X162178481Y-45583722D01*
X162236034Y-45294380D01*
X162255329Y-45000000D01*
X162255329Y-44999992D01*
X162236035Y-44705636D01*
X162236034Y-44705620D01*
X162178481Y-44416278D01*
X162083652Y-44136923D01*
X161953172Y-43872336D01*
X161789273Y-43627043D01*
X161746655Y-43578447D01*
X161594758Y-43405241D01*
X161372955Y-43210725D01*
X161127667Y-43046829D01*
X161127660Y-43046825D01*
X160863080Y-42916349D01*
X160583730Y-42821521D01*
X160583724Y-42821519D01*
X160583722Y-42821519D01*
X160294380Y-42763966D01*
X160294373Y-42763965D01*
X160294363Y-42763964D01*
X160000007Y-42744671D01*
X159999993Y-42744671D01*
X159705636Y-42763964D01*
X159705624Y-42763965D01*
X159705620Y-42763966D01*
X159705612Y-42763967D01*
X159705609Y-42763968D01*
X159416283Y-42821518D01*
X159416269Y-42821521D01*
X159136919Y-42916349D01*
X158872334Y-43046828D01*
X158627041Y-43210728D01*
X158405241Y-43405241D01*
X158210728Y-43627041D01*
X158046828Y-43872334D01*
X157916349Y-44136919D01*
X157821521Y-44416269D01*
X157821518Y-44416283D01*
X157763968Y-44705609D01*
X157763964Y-44705636D01*
X157744671Y-44999992D01*
X157744671Y-45000007D01*
X102255329Y-45000007D01*
X102255329Y-45000000D01*
X102255329Y-44999992D01*
X102236035Y-44705636D01*
X102236034Y-44705620D01*
X102178481Y-44416278D01*
X102083652Y-44136923D01*
X101953172Y-43872336D01*
X101789273Y-43627043D01*
X101746655Y-43578447D01*
X101594758Y-43405241D01*
X101372955Y-43210725D01*
X101127667Y-43046829D01*
X101127660Y-43046825D01*
X100863080Y-42916349D01*
X100583730Y-42821521D01*
X100583724Y-42821519D01*
X100583722Y-42821519D01*
X100294380Y-42763966D01*
X100294373Y-42763965D01*
X100294363Y-42763964D01*
X100000007Y-42744671D01*
X99999993Y-42744671D01*
X99705636Y-42763964D01*
X99705624Y-42763965D01*
X99705620Y-42763966D01*
X99705612Y-42763967D01*
X99705609Y-42763968D01*
X99416283Y-42821518D01*
X99416269Y-42821521D01*
X99136919Y-42916349D01*
X98872334Y-43046828D01*
X98627041Y-43210728D01*
X98405241Y-43405241D01*
X98210728Y-43627041D01*
X98046828Y-43872334D01*
X97916349Y-44136919D01*
X97821521Y-44416269D01*
X97821518Y-44416283D01*
X97763968Y-44705609D01*
X97763964Y-44705636D01*
X97744671Y-44999992D01*
X97744671Y-45000007D01*
X96000000Y-45000007D01*
X96000000Y-41124000D01*
X96019685Y-41056961D01*
X96072489Y-41011206D01*
X96124000Y-41000000D01*
X163876000Y-41000000D01*
X163943039Y-41019685D01*
G37*
%TD.AperFunction*%
%TD*%
%TA.AperFunction,Conductor*%
%TO.N,rotb*%
G36*
X125177028Y-62588954D02*
G01*
X125182410Y-62593504D01*
X125430035Y-62985700D01*
X125431554Y-62994525D01*
X125428415Y-63000219D01*
X125298602Y-63130032D01*
X125290329Y-63133459D01*
X125286860Y-63132933D01*
X124797405Y-62980955D01*
X124790520Y-62975229D01*
X124789700Y-62966312D01*
X124790051Y-62965337D01*
X124897436Y-62703815D01*
X124903746Y-62697464D01*
X125168075Y-62588927D01*
X125177028Y-62588954D01*
G37*
%TD.AperFunction*%
%TD*%
%TA.AperFunction,Conductor*%
%TO.N,rotb*%
G36*
X135595394Y-89104084D02*
G01*
X135599903Y-89111821D01*
X135600009Y-89113387D01*
X135600703Y-90095849D01*
X135597282Y-90104124D01*
X135597268Y-90104138D01*
X134902153Y-90797864D01*
X134893876Y-90801283D01*
X134885607Y-90797848D01*
X134884743Y-90796880D01*
X133828697Y-89471777D01*
X133826221Y-89463171D01*
X133829573Y-89456213D01*
X133960814Y-89324972D01*
X133967510Y-89321652D01*
X135586735Y-89101801D01*
X135595394Y-89104084D01*
G37*
%TD.AperFunction*%
%TD*%
%TA.AperFunction,Conductor*%
%TO.N,rotA*%
G36*
X135703062Y-83103427D02*
G01*
X135703486Y-83103873D01*
X136592578Y-84091753D01*
X136595565Y-84100195D01*
X136592158Y-84107849D01*
X135608277Y-85092714D01*
X135600006Y-85096145D01*
X135591731Y-85092722D01*
X135591723Y-85092714D01*
X134607841Y-84107849D01*
X134604418Y-84099574D01*
X134607420Y-84091755D01*
X135496514Y-83103872D01*
X135504596Y-83100016D01*
X135505211Y-83100000D01*
X135694789Y-83100000D01*
X135703062Y-83103427D01*
G37*
%TD.AperFunction*%
%TD*%
%TA.AperFunction,Conductor*%
%TO.N,rotA*%
G36*
X125974292Y-61990078D02*
G01*
X125980604Y-61996430D01*
X125980955Y-61997405D01*
X126132933Y-62486860D01*
X126132113Y-62495777D01*
X126130032Y-62498602D01*
X126000219Y-62628415D01*
X125991946Y-62631842D01*
X125985700Y-62630035D01*
X125593504Y-62382410D01*
X125588338Y-62375096D01*
X125588926Y-62368075D01*
X125697436Y-62103814D01*
X125703746Y-62097464D01*
X125965337Y-61990051D01*
X125974292Y-61990078D01*
G37*
%TD.AperFunction*%
%TD*%
%TA.AperFunction,Conductor*%
%TO.N,usbm*%
G36*
X105176649Y-68016111D02*
G01*
X105177332Y-68016421D01*
X106453482Y-68646780D01*
X106459382Y-68653516D01*
X106460000Y-68657270D01*
X106460000Y-68842729D01*
X106456573Y-68851002D01*
X106453482Y-68853219D01*
X105177341Y-69483574D01*
X105168405Y-69484166D01*
X105161669Y-69478266D01*
X105161361Y-69477587D01*
X104860864Y-68754487D01*
X104860854Y-68745538D01*
X105161356Y-68022423D01*
X105167694Y-68016100D01*
X105176649Y-68016111D01*
G37*
%TD.AperFunction*%
%TD*%
%TA.AperFunction,Conductor*%
%TO.N,usbm*%
G36*
X127583641Y-56527050D02*
G01*
X127589503Y-56533148D01*
X127699115Y-56795489D01*
X127699142Y-56804444D01*
X127699115Y-56804511D01*
X127589503Y-57066851D01*
X127583151Y-57073163D01*
X127574694Y-57073329D01*
X127440947Y-57024493D01*
X127107687Y-56902806D01*
X127101091Y-56896750D01*
X127100000Y-56891816D01*
X127100000Y-56708183D01*
X127103427Y-56699910D01*
X127107687Y-56697193D01*
X127574697Y-56526669D01*
X127583641Y-56527050D01*
G37*
%TD.AperFunction*%
%TD*%
%TA.AperFunction,Conductor*%
%TO.N,rotsw*%
G36*
X125004456Y-64000864D02*
G01*
X125205913Y-64085035D01*
X125266910Y-64110521D01*
X125273222Y-64116873D01*
X125273412Y-64125266D01*
X125106266Y-64591357D01*
X125100248Y-64597988D01*
X125095321Y-64599108D01*
X124911688Y-64600182D01*
X124903395Y-64596803D01*
X124900655Y-64592563D01*
X124900206Y-64591357D01*
X124726759Y-64125345D01*
X124727085Y-64116397D01*
X124733212Y-64110469D01*
X124995485Y-64000884D01*
X125004439Y-64000858D01*
X125004456Y-64000864D01*
G37*
%TD.AperFunction*%
%TD*%
%TA.AperFunction,Conductor*%
%TO.N,rotsw*%
G36*
X122445611Y-83617994D02*
G01*
X122448573Y-83620146D01*
X122579853Y-83751426D01*
X122583280Y-83759699D01*
X122582707Y-83763316D01*
X122027788Y-85470658D01*
X122021972Y-85477466D01*
X122013044Y-85478168D01*
X122012194Y-85477855D01*
X121103784Y-85102562D01*
X121097446Y-85096235D01*
X121097437Y-85096215D01*
X120722144Y-84187805D01*
X120722153Y-84178851D01*
X120728491Y-84172524D01*
X120729318Y-84172219D01*
X122436684Y-83617292D01*
X122445611Y-83617994D01*
G37*
%TD.AperFunction*%
%TD*%
%TA.AperFunction,Conductor*%
%TO.N,cs4*%
G36*
X139353864Y-82708475D02*
G01*
X139804671Y-82918123D01*
X139810726Y-82924718D01*
X139810559Y-82933175D01*
X139702563Y-83196184D01*
X139696251Y-83202536D01*
X139696184Y-83202563D01*
X139433175Y-83310559D01*
X139424220Y-83310532D01*
X139418123Y-83304671D01*
X139208475Y-82853865D01*
X139208095Y-82844920D01*
X139210810Y-82840662D01*
X139340661Y-82710811D01*
X139348933Y-82707385D01*
X139353864Y-82708475D01*
G37*
%TD.AperFunction*%
%TD*%
%TA.AperFunction,Conductor*%
%TO.N,cs4*%
G36*
X134365779Y-68389467D02*
G01*
X134371877Y-68395329D01*
X134581523Y-68846132D01*
X134581904Y-68855079D01*
X134579187Y-68859339D01*
X134449339Y-68989187D01*
X134441066Y-68992614D01*
X134436132Y-68991523D01*
X134142736Y-68855079D01*
X133985328Y-68781876D01*
X133979273Y-68775281D01*
X133979439Y-68766825D01*
X134087436Y-68503814D01*
X134093746Y-68497464D01*
X134356825Y-68389440D01*
X134365779Y-68389467D01*
G37*
%TD.AperFunction*%
%TD*%
%TA.AperFunction,Conductor*%
%TO.N,+3.3V*%
G36*
X110316649Y-86886111D02*
G01*
X110317332Y-86886421D01*
X111593482Y-87516780D01*
X111599382Y-87523516D01*
X111600000Y-87527270D01*
X111600000Y-87712729D01*
X111596573Y-87721002D01*
X111593482Y-87723219D01*
X110317341Y-88353574D01*
X110308405Y-88354166D01*
X110301669Y-88348266D01*
X110301361Y-88347587D01*
X110000864Y-87624487D01*
X110000854Y-87615538D01*
X110301356Y-86892423D01*
X110307694Y-86886100D01*
X110316649Y-86886111D01*
G37*
%TD.AperFunction*%
%TD*%
%TA.AperFunction,Conductor*%
%TO.N,usbp*%
G36*
X103922709Y-67550843D02*
G01*
X103925800Y-67553060D01*
X104056939Y-67684199D01*
X104060366Y-67692472D01*
X104059748Y-67696226D01*
X103603109Y-69044321D01*
X103597209Y-69051057D01*
X103588273Y-69051649D01*
X103587568Y-69051384D01*
X103306586Y-68935377D01*
X102863787Y-68752562D01*
X102857448Y-68746237D01*
X102857437Y-68746212D01*
X102558617Y-68022434D01*
X102558628Y-68013482D01*
X102564967Y-68007157D01*
X102565663Y-68006895D01*
X103913774Y-67550251D01*
X103922709Y-67550843D01*
G37*
%TD.AperFunction*%
%TD*%
%TA.AperFunction,Conductor*%
%TO.N,usbp*%
G36*
X126483641Y-55827050D02*
G01*
X126489503Y-55833148D01*
X126599115Y-56095489D01*
X126599142Y-56104444D01*
X126599115Y-56104511D01*
X126489503Y-56366851D01*
X126483151Y-56373163D01*
X126474694Y-56373329D01*
X126340947Y-56324493D01*
X126007687Y-56202806D01*
X126001091Y-56196750D01*
X126000000Y-56191816D01*
X126000000Y-56008183D01*
X126003427Y-55999910D01*
X126007687Y-55997193D01*
X126474697Y-55826669D01*
X126483641Y-55827050D01*
G37*
%TD.AperFunction*%
%TD*%
%TA.AperFunction,Conductor*%
%TO.N,+3.3V*%
G36*
X113997885Y-70204928D02*
G01*
X114000517Y-70206573D01*
X114784501Y-70696563D01*
X114789700Y-70703854D01*
X114790000Y-70706485D01*
X114790000Y-71293514D01*
X114786573Y-71301787D01*
X114784501Y-71303436D01*
X113997887Y-71795070D01*
X113989055Y-71796548D01*
X113983418Y-71793426D01*
X113197288Y-71008278D01*
X113193856Y-71000007D01*
X113197278Y-70991732D01*
X113197288Y-70991722D01*
X113983419Y-70206572D01*
X113991693Y-70203151D01*
X113997885Y-70204928D01*
G37*
%TD.AperFunction*%
%TD*%
%TA.AperFunction,Conductor*%
%TO.N,cs3*%
G36*
X131165779Y-69489467D02*
G01*
X131171877Y-69495329D01*
X131381523Y-69946132D01*
X131381904Y-69955079D01*
X131379187Y-69959339D01*
X131249339Y-70089187D01*
X131241066Y-70092614D01*
X131236132Y-70091523D01*
X130942736Y-69955079D01*
X130785328Y-69881876D01*
X130779273Y-69875281D01*
X130779439Y-69866825D01*
X130887436Y-69603814D01*
X130893746Y-69597464D01*
X131156825Y-69489440D01*
X131165779Y-69489467D01*
G37*
%TD.AperFunction*%
%TD*%
%TA.AperFunction,Conductor*%
%TO.N,cs3*%
G36*
X137104299Y-74169964D02*
G01*
X137496495Y-74417589D01*
X137501661Y-74424903D01*
X137501072Y-74431926D01*
X137392563Y-74696184D01*
X137386251Y-74702536D01*
X137386184Y-74702563D01*
X137124662Y-74809948D01*
X137115707Y-74809921D01*
X137109395Y-74803569D01*
X137109044Y-74802594D01*
X137077408Y-74700707D01*
X136957066Y-74313137D01*
X136957886Y-74304222D01*
X136959964Y-74301400D01*
X137089781Y-74171583D01*
X137098053Y-74168157D01*
X137104299Y-74169964D01*
G37*
%TD.AperFunction*%
%TD*%
%TA.AperFunction,Conductor*%
%TO.N,cs2*%
G36*
X137673641Y-62627050D02*
G01*
X137679503Y-62633148D01*
X137789115Y-62895489D01*
X137789142Y-62904444D01*
X137789115Y-62904511D01*
X137679503Y-63166851D01*
X137673151Y-63173163D01*
X137664694Y-63173329D01*
X137530947Y-63124493D01*
X137197687Y-63002806D01*
X137191091Y-62996750D01*
X137190000Y-62991816D01*
X137190000Y-62808183D01*
X137193427Y-62799910D01*
X137197687Y-62797193D01*
X137664697Y-62626669D01*
X137673641Y-62627050D01*
G37*
%TD.AperFunction*%
%TD*%
%TA.AperFunction,Conductor*%
%TO.N,cs2*%
G36*
X129449339Y-69510812D02*
G01*
X129579187Y-69640660D01*
X129582614Y-69648933D01*
X129581523Y-69653867D01*
X129371877Y-70104670D01*
X129365281Y-70110726D01*
X129356824Y-70110559D01*
X129093815Y-70002563D01*
X129087463Y-69996251D01*
X129087436Y-69996184D01*
X128979440Y-69733175D01*
X128979467Y-69724220D01*
X128985326Y-69718124D01*
X129436134Y-69508475D01*
X129445079Y-69508095D01*
X129449339Y-69510812D01*
G37*
%TD.AperFunction*%
%TD*%
%TA.AperFunction,Conductor*%
%TO.N,cs1*%
G36*
X136756851Y-52010496D02*
G01*
X136763163Y-52016848D01*
X136763330Y-52025305D01*
X136592807Y-52492313D01*
X136586751Y-52498909D01*
X136581817Y-52500000D01*
X136398183Y-52500000D01*
X136389910Y-52496573D01*
X136387193Y-52492313D01*
X136216669Y-52025302D01*
X136217050Y-52016358D01*
X136223147Y-52010496D01*
X136485490Y-51900883D01*
X136494444Y-51900857D01*
X136756851Y-52010496D01*
G37*
%TD.AperFunction*%
%TD*%
%TA.AperFunction,Conductor*%
%TO.N,cs1*%
G36*
X127749339Y-69410812D02*
G01*
X127879187Y-69540660D01*
X127882614Y-69548933D01*
X127881523Y-69553867D01*
X127671877Y-70004670D01*
X127665281Y-70010726D01*
X127656824Y-70010559D01*
X127393815Y-69902563D01*
X127387463Y-69896251D01*
X127387436Y-69896184D01*
X127279440Y-69633175D01*
X127279467Y-69624220D01*
X127285326Y-69618124D01*
X127736134Y-69408475D01*
X127745079Y-69408095D01*
X127749339Y-69410812D01*
G37*
%TD.AperFunction*%
%TD*%
%TA.AperFunction,Conductor*%
%TO.N,sck*%
G36*
X135382313Y-65697193D02*
G01*
X135388909Y-65703249D01*
X135390000Y-65708183D01*
X135390000Y-65891816D01*
X135386573Y-65900089D01*
X135382313Y-65902806D01*
X134915305Y-66073330D01*
X134906358Y-66072949D01*
X134900496Y-66066851D01*
X134790883Y-65804509D01*
X134790857Y-65795556D01*
X134790862Y-65795542D01*
X134900496Y-65533147D01*
X134906848Y-65526836D01*
X134915302Y-65526669D01*
X135382313Y-65697193D01*
G37*
%TD.AperFunction*%
%TD*%
%TA.AperFunction,Conductor*%
%TO.N,sck*%
G36*
X141643864Y-69108475D02*
G01*
X142094671Y-69318123D01*
X142100726Y-69324718D01*
X142100559Y-69333175D01*
X141992563Y-69596184D01*
X141986251Y-69602536D01*
X141986184Y-69602563D01*
X141723175Y-69710559D01*
X141714220Y-69710532D01*
X141708123Y-69704671D01*
X141498475Y-69253865D01*
X141498095Y-69244920D01*
X141500810Y-69240662D01*
X141630661Y-69110811D01*
X141638933Y-69107385D01*
X141643864Y-69108475D01*
G37*
%TD.AperFunction*%
%TD*%
M02*
